%
T1C.025F197S55
X019Y0165
X02Y0165
X02Y0173
X019Y0173
T2C.035F197S55
X013Y012006
X01475Y012006
X013Y012994
X01475Y012994
T3C.037F197S55
X0181Y0281
X0214Y0281
T4C.04F139S55
X02425Y01375
X01225Y035
X01425Y035
X0252Y034
X0252Y032
X0252Y03
X025196Y028068
X025196Y026068
X025196Y024068
X02625Y01375
T5C.09F066S55
X0171Y0154
X0219Y0154
T6C.12598F035S794
X0195Y024
M30
