%
T1C.025F197S55
X062308Y008379
X063308Y008379
X063308Y009179
X062308Y009179
X061408Y019979
X064708Y019979
T2C.035F197S55
X057214Y004979
X058202Y004979
X057214Y006779
X058202Y006779
T3C.04F139S55
X067558Y005629
X068504Y015947
X068504Y017947
X068504Y019947
X068508Y021879
X068508Y023879
X068508Y025879
X056108Y026579
X058108Y026579
X069558Y005629
T4C.09F066S55
X060408Y007279
X065208Y007279
T5C.12598F035S794
X062808Y015879
M30
