*
*
G04 PADS Layout (Build Number 2007.42.1) generated Gerber (RS-274-X) file*
G04 PC Version=2.1*
*
%IN "USBRS232_final.pcb"*%
*
%MOIN*%
*
%FSLAX35Y35*%
*
*
*
*
G04 PC Standard Apertures*
*
*
G04 Thermal Relief Aperture macro.*
%AMTER*
1,1,$1,0,0*
1,0,$1-$2,0,0*
21,0,$3,$4,0,0,45*
21,0,$3,$4,0,0,135*
%
*
*
G04 Annular Aperture macro.*
%AMANN*
1,1,$1,0,0*
1,0,$2,0,0*
%
*
*
G04 Odd Aperture macro.*
%AMODD*
1,1,$1,0,0*
1,0,$1-0.005,0,0*
%
*
*
G04 PC Custom Aperture Macros*
*
*
*
*
*
*
G04 PC Aperture Table*
*
%ADD020C,0.012*%
%ADD025C,0.01*%
%ADD026C,0.00787*%
%ADD036C,0.008*%
%ADD058C,0.00012*%
*
*
*
*
G04 PC Copper Outlines (0)*
G04 Layer Name USBRS232_final.pcb - dark (0)*
%LPD*%
*
*
G04 PC Area=D83515280*
G75*
G36*
G01*
X603954Y152757D02*
X603951Y152966D01*
X603946Y153173D01*
X603937Y153376D01*
X603925Y153577D01*
X603909Y153806D01*
X603891Y154034D01*
X603871Y154262D01*
X603849Y154490D01*
X603824Y154716D01*
X603797Y154942D01*
X603766Y155167D01*
X603734Y155391D01*
X603698Y155614D01*
X603659Y155836D01*
X603617Y156056D01*
X603571Y156275D01*
X603522Y156493D01*
X603470Y156709D01*
X603414Y156924D01*
X603354Y157136D01*
X603290Y157347D01*
X603222Y157556D01*
X603150Y157763D01*
X603074Y157968D01*
X602993Y158171D01*
X602908Y158371D01*
X602817Y158569D01*
X602722Y158764D01*
X602623Y158957D01*
X602518Y159147D01*
X602408Y159335D01*
X602292Y159520D01*
X602171Y159701D01*
X602045Y159880D01*
X601912Y160057D01*
X601774Y160230D01*
X601632Y160399D01*
X601485Y160564D01*
X601334Y160723D01*
X601177Y160878D01*
X601015Y161029D01*
X600848Y161174D01*
X600675Y161314D01*
X600497Y161448D01*
X600313Y161577D01*
X600123Y161700D01*
X599928Y161818D01*
X599726Y161929D01*
X599518Y162034D01*
X599303Y162133D01*
X599082Y162226D01*
X598854Y162312D01*
X598621Y162390D01*
X598608D01*
X598634Y162359D01*
X598720Y162284D01*
X598854Y162175D01*
X599033Y162032D01*
X599248Y161861D01*
X599496Y161661D01*
X599773Y161434D01*
X600074Y161183D01*
X600273Y161001D01*
X600473Y160797D01*
X600668Y160581D01*
X600851Y160363D01*
X601019Y160151D01*
X601164Y159957D01*
X601283Y159789D01*
X601369Y159657D01*
X601481Y159469D01*
X601589Y159277D01*
X601693Y159080D01*
X601791Y158879D01*
X601886Y158675D01*
X601976Y158467D01*
X602062Y158257D01*
X602143Y158043D01*
X602220Y157827D01*
X602293Y157608D01*
X602362Y157387D01*
X602426Y157164D01*
X602487Y156940D01*
X602543Y156714D01*
X602595Y156487D01*
X602643Y156259D01*
X602687Y156031D01*
X602728Y155802D01*
X602764Y155573D01*
X602796Y155344D01*
X602824Y155115D01*
X602849Y154887D01*
X602870Y154660D01*
X602887Y154434D01*
X602900Y154209D01*
X602909Y153986D01*
X602915Y153765D01*
X602917Y153545D01*
X602916Y153329D01*
X602911Y153083D01*
X602903Y152838D01*
X602892Y152594D01*
X602879Y152352D01*
X602862Y152111D01*
X602842Y151872D01*
X602818Y151636D01*
X602791Y151401D01*
X602760Y151170D01*
X602726Y150941D01*
X602688Y150715D01*
X602646Y150493D01*
X602599Y150274D01*
X602549Y150059D01*
X602494Y149847D01*
X602434Y149640D01*
X602370Y149438D01*
X602301Y149240D01*
X602227Y149047D01*
X602149Y148859D01*
X602065Y148677D01*
X601976Y148500D01*
X601882Y148329D01*
X601753Y148117D01*
X601618Y147915D01*
X601477Y147723D01*
X601330Y147542D01*
X601175Y147371D01*
X601014Y147211D01*
X600847Y147062D01*
X600672Y146924D01*
X600490Y146797D01*
X600301Y146682D01*
X600105Y146579D01*
X599902Y146488D01*
X599691Y146409D01*
X599474Y146347D01*
X599257Y146310D01*
X599042Y146295D01*
X598828Y146301D01*
X598619Y146328D01*
X598416Y146374D01*
X598220Y146437D01*
X598033Y146518D01*
X597857Y146614D01*
X597692Y146725D01*
X597541Y146849D01*
X597405Y146985D01*
X597286Y147133D01*
X597185Y147291D01*
X597104Y147458D01*
X597044Y147632D01*
X597007Y147813D01*
X596994Y148000D01*
X597027Y148295D01*
X597116Y148551D01*
X597244Y148785D01*
X597395Y149011D01*
X597553Y149248D01*
X597669Y149438D01*
X597778Y149632D01*
X597881Y149828D01*
X597977Y150028D01*
X598066Y150229D01*
X598149Y150434D01*
X598225Y150640D01*
X598295Y150849D01*
X598359Y151059D01*
X598416Y151272D01*
X598468Y151486D01*
X598514Y151701D01*
X598554Y151918D01*
X598588Y152136D01*
X598617Y152355D01*
X598641Y152576D01*
X598659Y152796D01*
X598672Y153018D01*
X598679Y153240D01*
X598682Y153462D01*
X598680Y153685D01*
X598673Y153907D01*
X598661Y154130D01*
X598645Y154352D01*
X598624Y154574D01*
X598599Y154795D01*
X598570Y155015D01*
X598536Y155235D01*
X598499Y155454D01*
X598457Y155671D01*
X598412Y155887D01*
X598363Y156102D01*
X598310Y156315D01*
X598254Y156526D01*
X598199Y156715D01*
X598139Y156905D01*
X598072Y157096D01*
X598000Y157287D01*
X597923Y157478D01*
X597840Y157670D01*
X597752Y157861D01*
X597659Y158051D01*
X597560Y158241D01*
X597457Y158429D01*
X597348Y158616D01*
X597235Y158801D01*
X597117Y158984D01*
X596994Y159165D01*
X596867Y159343D01*
X596736Y159518D01*
X596600Y159690D01*
X596460Y159858D01*
X596315Y160022D01*
X596167Y160183D01*
X596015Y160339D01*
X595859Y160490D01*
X595699Y160637D01*
X595536Y160778D01*
X595369Y160913D01*
X595198Y161043D01*
X595024Y161167D01*
X594847Y161284D01*
X594667Y161395D01*
X594484Y161498D01*
X594298Y161595D01*
X594108Y161683D01*
X593917Y161764D01*
X593722Y161837D01*
X593525Y161902D01*
X593326Y161958D01*
X593124Y162004D01*
X592920Y162042D01*
X592713Y162070D01*
X592438Y162091D01*
X592170Y162095D01*
X591908Y162083D01*
X591653Y162056D01*
X591406Y162014D01*
X591167Y161960D01*
X590935Y161894D01*
X590713Y161818D01*
X590499Y161733D01*
X590295Y161640D01*
X590100Y161541D01*
X589916Y161436D01*
X589742Y161327D01*
X589580Y161215D01*
X589428Y161101D01*
X589288Y160986D01*
X589161Y160873D01*
X589008Y160725D01*
X588861Y160572D01*
X588720Y160413D01*
X588584Y160249D01*
X588453Y160080D01*
X588328Y159906D01*
X588207Y159727D01*
X588092Y159543D01*
X587982Y159356D01*
X587877Y159164D01*
X587777Y158969D01*
X587681Y158770D01*
X587591Y158568D01*
X587505Y158363D01*
X587423Y158155D01*
X587347Y157944D01*
X587275Y157731D01*
X587207Y157517D01*
X587143Y157300D01*
X587084Y157081D01*
X587029Y156862D01*
X586978Y156641D01*
X586932Y156419D01*
X586889Y156197D01*
X586850Y155974D01*
X586815Y155751D01*
X586784Y155528D01*
X586756Y155306D01*
X586732Y155084D01*
X586712Y154863D01*
X586695Y154642D01*
X586682Y154423D01*
X586672Y154206D01*
X586665Y153990D01*
X586662Y153776D01*
X586661Y153564D01*
X586664Y153355D01*
X586670Y153148D01*
X586678Y152945D01*
X586690Y152744D01*
X586706Y152516D01*
X586724Y152287D01*
X586744Y152059D01*
X586767Y151831D01*
X586791Y151605D01*
X586819Y151379D01*
X586849Y151154D01*
X586882Y150930D01*
X586918Y150707D01*
X586957Y150486D01*
X586999Y150265D01*
X587044Y150046D01*
X587093Y149828D01*
X587145Y149612D01*
X587201Y149398D01*
X587261Y149185D01*
X587325Y148974D01*
X587393Y148765D01*
X587465Y148558D01*
X587542Y148353D01*
X587622Y148151D01*
X587708Y147950D01*
X587798Y147753D01*
X587893Y147557D01*
X587993Y147364D01*
X588098Y147174D01*
X588208Y146986D01*
X588323Y146802D01*
X588444Y146620D01*
X588570Y146441D01*
X588704Y146264D01*
X588841Y146091D01*
X588983Y145922D01*
X589130Y145758D01*
X589282Y145598D01*
X589438Y145443D01*
X589600Y145293D01*
X589768Y145148D01*
X589940Y145008D01*
X590118Y144873D01*
X590302Y144744D01*
X590492Y144621D01*
X590688Y144504D01*
X590890Y144392D01*
X591098Y144287D01*
X591312Y144188D01*
X591533Y144096D01*
X591761Y144010D01*
X591995Y143931D01*
X592007Y143932D01*
X591982Y143962D01*
X591896Y144037D01*
X591762Y144147D01*
X591583Y144289D01*
X591368Y144460D01*
X591119Y144660D01*
X590842Y144887D01*
X590542Y145139D01*
X590342Y145321D01*
X590142Y145524D01*
X589948Y145740D01*
X589764Y145959D01*
X589597Y146170D01*
X589451Y146364D01*
X589332Y146532D01*
X589246Y146664D01*
X589134Y146852D01*
X589026Y147045D01*
X588923Y147241D01*
X588824Y147442D01*
X588730Y147646D01*
X588640Y147854D01*
X588554Y148065D01*
X588472Y148278D01*
X588395Y148495D01*
X588322Y148713D01*
X588254Y148934D01*
X588189Y149157D01*
X588129Y149381D01*
X588073Y149607D01*
X588020Y149834D01*
X587972Y150062D01*
X587928Y150291D01*
X587888Y150520D01*
X587852Y150749D01*
X587819Y150978D01*
X587791Y151206D01*
X587766Y151434D01*
X587746Y151661D01*
X587729Y151888D01*
X587715Y152112D01*
X587706Y152336D01*
X587700Y152557D01*
X587698Y152776D01*
X587699Y152993D01*
X587704Y153239D01*
X587712Y153484D01*
X587723Y153727D01*
X587737Y153970D01*
X587754Y154210D01*
X587774Y154449D01*
X587797Y154686D01*
X587824Y154920D01*
X587855Y155152D01*
X587889Y155380D01*
X587928Y155606D01*
X587970Y155829D01*
X588016Y156048D01*
X588067Y156263D01*
X588122Y156474D01*
X588181Y156681D01*
X588245Y156883D01*
X588314Y157081D01*
X588388Y157274D01*
X588467Y157462D01*
X588550Y157644D01*
X588639Y157821D01*
X588734Y157992D01*
X588862Y158204D01*
X588997Y158406D01*
X589138Y158598D01*
X589286Y158779D01*
X589440Y158950D01*
X589601Y159110D01*
X589769Y159259D01*
X589943Y159397D01*
X590125Y159524D01*
X590314Y159639D01*
X590510Y159742D01*
X590714Y159834D01*
X590925Y159913D01*
X591139Y159977D01*
X591347Y160022D01*
X591549Y160049D01*
X591743Y160059D01*
X591930Y160052D01*
X592109Y160029D01*
X592279Y159991D01*
X592440Y159939D01*
X592592Y159873D01*
X592732Y159795D01*
X592863Y159705D01*
X592981Y159604D01*
X593088Y159492D01*
X593182Y159371D01*
X593264Y159241D01*
X593332Y159103D01*
X593385Y158958D01*
X593425Y158807D01*
X593449Y158650D01*
X593457Y158488D01*
X593450Y158323D01*
X593425Y158154D01*
X593384Y157982D01*
X593324Y157810D01*
X593247Y157636D01*
X593150Y157462D01*
X593034Y157289D01*
X592922Y157127D01*
X592813Y156958D01*
X592710Y156780D01*
X592612Y156596D01*
X592518Y156404D01*
X592430Y156206D01*
X592347Y156001D01*
X592270Y155790D01*
X592199Y155573D01*
X592133Y155350D01*
X592074Y155122D01*
X592021Y154889D01*
X591975Y154651D01*
X591935Y154409D01*
X591902Y154163D01*
X591876Y153912D01*
X591858Y153658D01*
X591846Y153400D01*
X591842Y153140D01*
X591846Y152941D01*
X591855Y152740D01*
X591870Y152535D01*
X591890Y152329D01*
X591917Y152119D01*
X591948Y151907D01*
X591986Y151694D01*
X592028Y151479D01*
X592076Y151262D01*
X592128Y151044D01*
X592186Y150826D01*
X592248Y150607D01*
X592315Y150387D01*
X592386Y150168D01*
X592462Y149949D01*
X592541Y149730D01*
X592625Y149512D01*
X592713Y149295D01*
X592805Y149079D01*
X592901Y148865D01*
X593000Y148653D01*
X593102Y148442D01*
X593208Y148234D01*
X593317Y148029D01*
X593429Y147826D01*
X593545Y147627D01*
X593663Y147430D01*
X593783Y147238D01*
X593906Y147049D01*
X594032Y146865D01*
X594160Y146684D01*
X594290Y146509D01*
X594423Y146339D01*
X594557Y146173D01*
X594693Y146013D01*
X594830Y145859D01*
X594970Y145711D01*
X595110Y145569D01*
X595252Y145434D01*
X595395Y145306D01*
X595583Y145154D01*
X595786Y145012D01*
X596002Y144880D01*
X596229Y144759D01*
X596463Y144649D01*
X596703Y144551D01*
X596946Y144465D01*
X597190Y144391D01*
X597433Y144331D01*
X597671Y144284D01*
X597902Y144252D01*
X598177Y144230D01*
X598445Y144226D01*
X598707Y144238D01*
X598962Y144266D01*
X599209Y144307D01*
X599449Y144361D01*
X599680Y144427D01*
X599903Y144503D01*
X600116Y144588D01*
X600321Y144681D01*
X600515Y144781D01*
X600699Y144886D01*
X600873Y144995D01*
X601036Y145107D01*
X601187Y145221D01*
X601327Y145335D01*
X601455Y145449D01*
X601607Y145596D01*
X601754Y145749D01*
X601896Y145908D01*
X602032Y146072D01*
X602162Y146241D01*
X602288Y146416D01*
X602408Y146595D01*
X602523Y146778D01*
X602633Y146966D01*
X602738Y147157D01*
X602839Y147353D01*
X602934Y147552D01*
X603025Y147754D01*
X603111Y147959D01*
X603192Y148167D01*
X603269Y148377D01*
X603341Y148590D01*
X603409Y148805D01*
X603472Y149022D01*
X603531Y149240D01*
X603586Y149460D01*
X603637Y149680D01*
X603684Y149902D01*
X603727Y150124D01*
X603765Y150347D01*
X603800Y150570D01*
X603832Y150793D01*
X603859Y151016D01*
X603883Y151238D01*
X603903Y151459D01*
X603920Y151679D01*
X603933Y151898D01*
X603943Y152116D01*
X603950Y152331D01*
X603954Y152545D01*
Y152757D01*
G37*
G74*
*
*
G04 PC Copper Outlines (1)*
G04 Layer Name USBRS232_final.pcb - dark (1)*
%LPD*%
*
*
G04 PC Area=D86969585*
G75*
G36*
G01*
X598583Y167001D02*
X598575Y167280D01*
X598551Y167544D01*
X598511Y167793D01*
X598455Y168029D01*
X598383Y168251D01*
X598295Y168458D01*
X598191Y168652D01*
X598025Y168900D01*
X597841Y169121D01*
X597638Y169315D01*
X597416Y169484D01*
X597175Y169626D01*
X596985Y169716D01*
X596773Y169804D01*
X596538Y169888D01*
X596279Y169970D01*
X595998Y170048D01*
X595694Y170124D01*
X595367Y170197D01*
X591626Y170975D01*
Y169590D01*
X595367Y168806D01*
X595710Y168731D01*
X596010Y168656D01*
X596268Y168582D01*
X596483Y168508D01*
X596657Y168434D01*
X596891Y168295D01*
X597084Y168122D01*
X597234Y167915D01*
X597341Y167671D01*
X597406Y167388D01*
X597427Y167066D01*
X597398Y166716D01*
X597309Y166425D01*
X597159Y166194D01*
X596965Y166027D01*
X596738Y165926D01*
X596480Y165893D01*
X596408Y165895D01*
X596334Y165902D01*
X596256Y165912D01*
X595337Y166105D01*
X591626Y166878D01*
Y165494D01*
X595231Y164737D01*
X595638Y164654D01*
X595922Y164599D01*
X596083Y164573D01*
X596229Y164555D01*
X596367Y164544D01*
X596498Y164541D01*
X596754Y164554D01*
X596995Y164592D01*
X597223Y164657D01*
X597437Y164747D01*
X597638Y164863D01*
X597825Y165005D01*
X598000Y165173D01*
X598136Y165340D01*
X598255Y165525D01*
X598355Y165727D01*
X598437Y165946D01*
X598501Y166184D01*
X598546Y166438D01*
X598574Y166711D01*
X598583Y167001D01*
G37*
G74*
*
*
G04 PC Copper Outlines (2)*
G04 Layer Name USBRS232_final.pcb - dark (2)*
%LPD*%
*
*
G04 PC Area=D62888635*
G75*
G36*
G01*
X598583Y173882D02*
X598575Y174160D01*
X598551Y174423D01*
X598512Y174673D01*
X598456Y174909D01*
X598385Y175130D01*
X598298Y175337D01*
X598195Y175531D01*
X598076Y175711D01*
X597942Y175876D01*
X597754Y176066D01*
X597555Y176227D01*
X597345Y176358D01*
X597125Y176460D01*
X596894Y176533D01*
X596652Y176577D01*
X596399Y176592D01*
X596118Y176572D01*
X595858Y176515D01*
X595619Y176419D01*
X595401Y176285D01*
X595204Y176113D01*
X595094Y175982D01*
X594972Y175803D01*
X594840Y175577D01*
X594697Y175302D01*
X594543Y174979D01*
X594379Y174608D01*
X594216Y174249D01*
X594073Y173960D01*
X593947Y173740D01*
X593838Y173590D01*
X593697Y173460D01*
X593531Y173382D01*
X593342Y173356D01*
X593141Y173384D01*
X592965Y173469D01*
X592813Y173611D01*
X592697Y173818D01*
X592628Y174099D01*
X592605Y174454D01*
X592634Y174820D01*
X592722Y175122D01*
X592870Y175360D01*
X593072Y175537D01*
X593327Y175657D01*
X593621Y175718D01*
X593561Y177049D01*
X593313Y177019D01*
X593068Y176964D01*
X592839Y176884D01*
X592624Y176781D01*
X592425Y176653D01*
X592241Y176502D01*
X592073Y176326D01*
X591941Y176153D01*
X591827Y175963D01*
X591730Y175756D01*
X591651Y175532D01*
X591589Y175290D01*
X591545Y175032D01*
X591519Y174756D01*
X591510Y174464D01*
X591519Y174176D01*
X591545Y173906D01*
X591590Y173654D01*
X591652Y173419D01*
X591732Y173201D01*
X591829Y173002D01*
X591944Y172819D01*
X592077Y172655D01*
X592275Y172464D01*
X592489Y172308D01*
X592719Y172187D01*
X592965Y172100D01*
X593227Y172048D01*
X593507Y172031D01*
X593821Y172054D01*
X594108Y172124D01*
X594367Y172240D01*
X594596Y172397D01*
X594795Y172589D01*
X594964Y172815D01*
X595087Y173024D01*
X595224Y173288D01*
X595375Y173606D01*
X595544Y173985D01*
X595702Y174339D01*
X595840Y174622D01*
X595953Y174828D01*
X596043Y174957D01*
X596197Y175101D01*
X596372Y175187D01*
X596568Y175216D01*
X596794Y175180D01*
X596997Y175075D01*
X597177Y174901D01*
X597316Y174649D01*
X597399Y174313D01*
X597427Y173892D01*
X597404Y173507D01*
X597335Y173186D01*
X597220Y172930D01*
X597057Y172740D01*
X596858Y172628D01*
X596567Y172555D01*
X596196Y172519D01*
X596265Y171198D01*
X596587Y171206D01*
X596900Y171250D01*
X597193Y171330D01*
X597466Y171444D01*
X597714Y171600D01*
X597934Y171804D01*
X598124Y172055D01*
X598287Y172355D01*
X598377Y172576D01*
X598451Y172811D01*
X598509Y173059D01*
X598550Y173320D01*
X598575Y173594D01*
X598583Y173882D01*
G37*
G74*
*
*
G04 PC Copper Outlines (3)*
G04 Layer Name USBRS232_final.pcb - dark (3)*
%LPD*%
*
*
G04 PC Area=D26402539*
G75*
G36*
G01*
X598466Y178953D02*
Y180343D01*
X592750Y181537D01*
Y183523D01*
X591626Y183756D01*
Y178372D01*
X592750Y178139D01*
Y180151D01*
X598466Y178953D01*
G37*
G74*
*
*
G04 PC Copper Outlines (4)*
G04 Layer Name USBRS232_final.pcb - dark (4)*
%LPD*%
*
*
G04 PC Area=Custom_Thermal*
*
G04 PC Custom Flashes*
G04 Layer Name USBRS232_final.pcb - flashes*
%LPD*%
*
*
G04 PC Circuitry*
G04 Layer Name USBRS232_final.pcb - circuitry*
%LPD*%
*
G54D20*
G01X614080Y199793D02*
X647080D01*
G54D25*
X551444Y220356D02*
X550989Y220043D01*
X550534Y219418*
X550307Y218793*
X550080Y217856*
Y216293*
X550307Y215356*
X550534Y214731*
X550989Y214106*
X551444Y213793*
X552353*
X552807Y214106*
X553262Y214731*
X553489Y215356*
X553716Y216293*
Y217856*
X553489Y218793*
X553262Y219418*
X552807Y220043*
X552353Y220356*
X551444*
X555762Y218168D02*
Y211606D01*
Y217231D02*
X556216Y217856D01*
X556671Y218168*
X557353*
X557807Y217856*
X558262Y217231*
X558489Y216293*
Y215668*
X558262Y214731*
X557807Y214106*
X557353Y213793*
X556671*
X556216Y214106*
X555762Y214731*
X560534Y216293D02*
X563262D01*
Y216918*
X563034Y217543*
X562807Y217856*
X562353Y218168*
X561671*
X561216Y217856*
X560762Y217231*
X560534Y216293*
Y215668*
X560762Y214731*
X561216Y214106*
X561671Y213793*
X562353*
X562807Y214106*
X563262Y214731*
X565307Y218168D02*
Y213793D01*
Y216918D02*
X565989Y217856D01*
X566444Y218168*
X567125*
X567580Y217856*
X567807Y216918*
Y213793*
X575080Y220356D02*
Y213793D01*
Y220356D02*
X576671D01*
X577353Y220043*
X577807Y219418*
X578034Y218793*
X578262Y217856*
Y216293*
X578034Y215356*
X577807Y214731*
X577353Y214106*
X576671Y213793*
X575080*
X581671Y220356D02*
X581216Y220043D01*
X580762Y219418*
X580534Y218793*
X580307Y217856*
Y216293*
X580534Y215356*
X580762Y214731*
X581216Y214106*
X581671Y213793*
X582580*
X583034Y214106*
X583489Y214731*
X583716Y215356*
X583944Y216293*
Y217856*
X583716Y218793*
X583489Y219418*
X583034Y220043*
X582580Y220356*
X581671*
X585989D02*
Y213793D01*
Y220356D02*
X587807Y213793D01*
X589625Y220356D02*
X587807Y213793D01*
X589625Y220356D02*
Y213793D01*
X591671Y220356D02*
Y213793D01*
Y220356D02*
X594625D01*
X591671Y217231D02*
X593489D01*
X591671Y213793D02*
X594625D01*
X583489Y243793D02*
X583262Y244418D01*
X582807Y245043*
X582353Y245356*
X581444*
X580989Y245043*
X580534Y244418*
X580307Y243793*
X580080Y242856*
Y241293*
X580307Y240356*
X580534Y239731*
X580989Y239106*
X581444Y238793*
X582353*
X582807Y239106*
X583262Y239731*
X583489Y240356*
X560080Y245356D02*
Y238793D01*
Y245356D02*
X563034D01*
X560080Y242231D02*
X561898D01*
X560080Y238793D02*
X563034D01*
X654489Y241793D02*
X654262Y242418D01*
X653807Y243043*
X653353Y243356*
X652444*
X651989Y243043*
X651534Y242418*
X651307Y241793*
X651080Y240856*
Y239293*
X651307Y238356*
X651534Y237731*
X651989Y237106*
X652444Y236793*
X653353*
X653807Y237106*
X654262Y237731*
X654489Y238356*
Y239293*
X653353D02*
X654489D01*
X656534Y243356D02*
Y236793D01*
Y243356D02*
X659716Y236793D01*
Y243356D02*
Y236793D01*
X661762Y243356D02*
Y236793D01*
Y243356D02*
X663353D01*
X664034Y243043*
X664489Y242418*
X664716Y241793*
X664944Y240856*
Y239293*
X664716Y238356*
X664489Y237731*
X664034Y237106*
X663353Y236793*
X661762*
X654489Y181793D02*
X654262Y182418D01*
X653807Y183043*
X653353Y183356*
X652444*
X651989Y183043*
X651534Y182418*
X651307Y181793*
X651080Y180856*
Y179293*
X651307Y178356*
X651534Y177731*
X651989Y177106*
X652444Y176793*
X653353*
X653807Y177106*
X654262Y177731*
X654489Y178356*
Y179293*
X653353D02*
X654489D01*
X656534Y183356D02*
Y176793D01*
Y183356D02*
X659716Y176793D01*
Y183356D02*
Y176793D01*
X661762Y183356D02*
Y176793D01*
Y183356D02*
X663353D01*
X664034Y183043*
X664489Y182418*
X664716Y181793*
X664944Y180856*
Y179293*
X664716Y178356*
X664489Y177731*
X664034Y177106*
X663353Y176793*
X661762*
X672080Y82606D02*
X676171D01*
X696125Y85418D02*
Y79793D01*
X694080Y82606D02*
X698171D01*
X654080Y261356D02*
Y254793D01*
Y261356D02*
X656125D01*
X656807Y261043*
X657034Y260731*
X657262Y260106*
Y259481*
X657034Y258856*
X656807Y258543*
X656125Y258231*
X654080*
X655671D02*
X657262Y254793D01*
X659307Y261356D02*
X662489Y254793D01*
Y261356D02*
X659307Y254793D01*
X654671Y221356D02*
Y214793D01*
X653080Y221356D02*
X656262D01*
X658307D02*
X661489Y214793D01*
Y221356D02*
X658307Y214793D01*
X644125Y162418D02*
Y156793D01*
X642080Y159606D02*
X646171D01*
X648216Y163356D02*
Y158668D01*
X648444Y157731*
X648898Y157106*
X649580Y156793*
X650034*
X650716Y157106*
X651171Y157731*
X651398Y158668*
Y163356*
X654580Y161168D02*
X654125Y160856D01*
X653671Y160231*
X653444Y159293*
Y158668*
X653671Y157731*
X654125Y157106*
X654580Y156793*
X655262*
X655716Y157106*
X656171Y157731*
X656398Y158668*
Y159293*
X656171Y160231*
X655716Y160856*
X655262Y161168*
X654580*
X658444D02*
Y158043D01*
X658671Y157106*
X659125Y156793*
X659807*
X660262Y157106*
X660944Y158043*
Y161168D02*
Y156793D01*
X663671Y163356D02*
Y158043D01*
X663898Y157106*
X664353Y156793*
X664807*
X662989Y161168D02*
X664580D01*
X653830Y192975D02*
X659080D01*
X656330D02*
X655830Y192611D01*
X655580Y192248*
Y191702*
X655830Y191339*
X656330Y190975*
X657080Y190793*
X657580*
X658330Y190975*
X658830Y191339*
X659080Y191702*
Y192248*
X658830Y192611*
X658330Y192975*
X655580Y195521D02*
X655830Y195157D01*
X656330Y194793*
X657080Y194611*
X657580*
X658330Y194793*
X658830Y195157*
X659080Y195521*
Y196066*
X658830Y196430*
X658330Y196793*
X657580Y196975*
X657080*
X656330Y196793*
X655830Y196430*
X655580Y196066*
Y195521*
Y198611D02*
X659080D01*
X656580D02*
X655830Y199157D01*
X655580Y199521*
Y200066*
X655830Y200430*
X656580Y200611*
X659080*
X656580D02*
X655830Y201157D01*
X655580Y201521*
Y202066*
X655830Y202430*
X656580Y202611*
X659080*
X657080Y204248D02*
Y206430D01*
X656580*
X656080Y206248*
X655830Y206066*
X655580Y205702*
Y205157*
X655830Y204793*
X656330Y204430*
X657080Y204248*
X657580*
X658330Y204430*
X658830Y204793*
X659080Y205157*
Y205702*
X658830Y206066*
X658330Y206430*
X556671Y53356D02*
Y46793D01*
X555080Y53356D02*
X558262D01*
X560307D02*
X563489Y46793D01*
Y53356D02*
X560307Y46793D01*
X556080Y72356D02*
Y65793D01*
Y72356D02*
X558125D01*
X558807Y72043*
X559034Y71731*
X559262Y71106*
Y70481*
X559034Y69856*
X558807Y69543*
X558125Y69231*
X556080*
X557671D02*
X559262Y65793D01*
X561307Y72356D02*
X564489Y65793D01*
Y72356D02*
X561307Y65793D01*
X561705Y98793D02*
X566080D01*
X562955D02*
X562017Y99475D01*
X561705Y99930*
Y100611*
X562017Y101066*
X562955Y101293*
X566080*
X562955D02*
X562017Y101975D01*
X561705Y102430*
Y103111*
X562017Y103566*
X562955Y103793*
X566080*
X561705Y105839D02*
X566080D01*
X563580D02*
X562642Y106066D01*
X562017Y106521*
X561705Y106975*
Y107657*
Y112430D02*
X566080D01*
X562642D02*
X562017Y111975D01*
X561705Y111521*
Y110839*
X562017Y110384*
X562642Y109930*
X563580Y109702*
X564205*
X565142Y109930*
X565767Y110384*
X566080Y110839*
Y111521*
X565767Y111975*
X565142Y112430*
X559517Y114475D02*
X566080D01*
X561705Y116748D02*
X564830Y114475D01*
X563580Y115384D02*
X566080Y116975D01*
X559517Y121293D02*
X563892Y119021D01*
Y122430*
X559517Y121293D02*
X566080D01*
X563267Y129702D02*
Y133793D01*
X559517Y141066D02*
X564205D01*
X565142Y141293*
X565767Y141748*
X566080Y142430*
Y142884*
X565767Y143566*
X565142Y144021*
X564205Y144248*
X559517*
X560455Y149475D02*
X559830Y149021D01*
X559517Y148339*
Y147430*
X559830Y146748*
X560455Y146293*
X561080*
X561705Y146521*
X562017Y146748*
X562330Y147202*
X562955Y148566*
X563267Y149021*
X563580Y149248*
X564205Y149475*
X565142*
X565767Y149021*
X566080Y148339*
Y147430*
X565767Y146748*
X565142Y146293*
X559517Y151521D02*
X566080D01*
X559517D02*
Y153566D01*
X559830Y154248*
X560142Y154475*
X560767Y154702*
X561392*
X562017Y154475*
X562330Y154248*
X562642Y153566*
Y151521D02*
Y153566D01*
X562955Y154248*
X563267Y154475*
X563892Y154702*
X564830*
X565455Y154475*
X565767Y154248*
X566080Y153566*
Y151521*
X559517Y161975D02*
X559830Y162202D01*
X559517Y162430*
X559205Y162202*
X559517Y161975*
X561705Y162202D02*
X566080D01*
X561705Y164475D02*
X566080D01*
X562955D02*
X562017Y165157D01*
X561705Y165611*
Y166293*
X562017Y166748*
X562955Y166975*
X566080*
X559517Y169702D02*
X564830D01*
X565767Y169930*
X566080Y170384*
Y170839*
X561705Y169021D02*
Y170611D01*
X563580Y172884D02*
Y175611D01*
X562955*
X562330Y175384*
X562017Y175157*
X561705Y174702*
Y174021*
X562017Y173566*
X562642Y173111*
X563580Y172884*
X564205*
X565142Y173111*
X565767Y173566*
X566080Y174021*
Y174702*
X565767Y175157*
X565142Y175611*
X561705Y177657D02*
X566080D01*
X563580D02*
X562642Y177884D01*
X562017Y178339*
X561705Y178793*
Y179475*
X559517Y183339D02*
Y182884D01*
X559830Y182430*
X560767Y182202*
X566080*
X561705Y181521D02*
Y183111D01*
Y188111D02*
X566080D01*
X562642D02*
X562017Y187657D01*
X561705Y187202*
Y186521*
X562017Y186066*
X562642Y185611*
X563580Y185384*
X564205*
X565142Y185611*
X565767Y186066*
X566080Y186521*
Y187202*
X565767Y187657*
X565142Y188111*
X562642Y192884D02*
X562017Y192430D01*
X561705Y191975*
Y191293*
X562017Y190839*
X562642Y190384*
X563580Y190157*
X564205*
X565142Y190384*
X565767Y190839*
X566080Y191293*
Y191975*
X565767Y192430*
X565142Y192884*
X563580Y194930D02*
Y197657D01*
X562955*
X562330Y197430*
X562017Y197202*
X561705Y196748*
Y196066*
X562017Y195611*
X562642Y195157*
X563580Y194930*
X564205*
X565142Y195157*
X565767Y195611*
X566080Y196066*
Y196748*
X565767Y197202*
X565142Y197657*
X572080Y98021D02*
X571767D01*
X571142Y98248*
X570830Y98475*
X570517Y98930*
Y99839*
X570830Y100293*
X571142Y100521*
X571767Y100748*
X572392*
X573017Y100521*
X573955Y100066*
X577080Y97793*
Y100975*
X570517Y104384D02*
X570830Y103702D01*
X571767Y103248*
X573330Y103021*
X574267*
X575830Y103248*
X576767Y103702*
X577080Y104384*
Y104839*
X576767Y105521*
X575830Y105975*
X574267Y106202*
X573330*
X571767Y105975*
X570830Y105521*
X570517Y104839*
Y104384*
Y109611D02*
X570830Y108930D01*
X571767Y108475*
X573330Y108248*
X574267*
X575830Y108475*
X576767Y108930*
X577080Y109611*
Y110066*
X576767Y110748*
X575830Y111202*
X574267Y111430*
X573330*
X571767Y111202*
X570830Y110748*
X570517Y110066*
Y109611*
X572705Y116430D02*
X573642Y116202D01*
X574267Y115748*
X574580Y115066*
Y114839*
X574267Y114157*
X573642Y113702*
X572705Y113475*
X572392*
X571455Y113702*
X570830Y114157*
X570517Y114839*
Y115066*
X570830Y115748*
X571455Y116202*
X572705Y116430*
X574267*
X575830Y116202*
X576767Y115748*
X577080Y115066*
Y114611*
X576767Y113930*
X576142Y113702*
X550080Y232356D02*
Y225793D01*
Y232356D02*
X553262Y225793D01*
Y232356D02*
Y225793D01*
X555307Y232356D02*
Y225793D01*
Y232356D02*
X557353D01*
X558034Y232043*
X558262Y231731*
X558489Y231106*
Y230168*
X558262Y229543*
X558034Y229231*
X557353Y228918*
X555307*
X560534Y232356D02*
Y225793D01*
Y232356D02*
X563716Y225793D01*
Y232356D02*
Y225793D01*
X571671Y232356D02*
Y227043D01*
X571898Y226106*
X572353Y225793*
X572807*
X570989Y230168D02*
X572580D01*
X574853D02*
Y225793D01*
Y228293D02*
X575080Y229231D01*
X575534Y229856*
X575989Y230168*
X576671*
X581444D02*
Y225793D01*
Y229231D02*
X580989Y229856D01*
X580534Y230168*
X579853*
X579398Y229856*
X578944Y229231*
X578716Y228293*
Y227668*
X578944Y226731*
X579398Y226106*
X579853Y225793*
X580534*
X580989Y226106*
X581444Y226731*
X583489Y230168D02*
Y225793D01*
Y228918D02*
X584171Y229856D01*
X584625Y230168*
X585307*
X585762Y229856*
X585989Y228918*
Y225793*
X590534Y230168D02*
X588034Y225793D01*
Y230168D02*
X590534D01*
X588034Y225793D02*
X590534D01*
X592580Y232356D02*
X592807Y232043D01*
X593034Y232356*
X592807Y232668*
X592580Y232356*
X592807Y230168D02*
Y225793D01*
X597580Y229231D02*
X597353Y229856D01*
X596671Y230168*
X595989*
X595307Y229856*
X595080Y229231*
X595307Y228606*
X595762Y228293*
X596898Y227981*
X597353Y227668*
X597580Y227043*
Y226731*
X597353Y226106*
X596671Y225793*
X595989*
X595307Y226106*
X595080Y226731*
X600307Y232356D02*
Y227043D01*
X600534Y226106*
X600989Y225793*
X601444*
X599625Y230168D02*
X601216D01*
X604625D02*
X604171Y229856D01*
X603716Y229231*
X603489Y228293*
Y227668*
X603716Y226731*
X604171Y226106*
X604625Y225793*
X605307*
X605762Y226106*
X606216Y226731*
X606444Y227668*
Y228293*
X606216Y229231*
X605762Y229856*
X605307Y230168*
X604625*
X608489D02*
Y225793D01*
Y228293D02*
X608716Y229231D01*
X609171Y229856*
X609625Y230168*
X610307*
X668080Y100356D02*
Y93793D01*
Y100356D02*
X669671D01*
X670353Y100043*
X670807Y99418*
X671034Y98793*
X671262Y97856*
Y96293*
X671034Y95356*
X670807Y94731*
X670353Y94106*
X669671Y93793*
X668080*
X676716Y98793D02*
X676489Y99418D01*
X676034Y100043*
X675580Y100356*
X674671*
X674216Y100043*
X673762Y99418*
X673534Y98793*
X673307Y97856*
Y96293*
X673534Y95356*
X673762Y94731*
X674216Y94106*
X674671Y93793*
X675580*
X676034Y94106*
X676489Y94731*
X676716Y95356*
X686944Y100356D02*
X684671D01*
X684444Y97543*
X684671Y97856*
X685353Y98168*
X686034*
X686716Y97856*
X687171Y97231*
X687398Y96293*
X687171Y95668*
X686944Y94731*
X686489Y94106*
X685807Y93793*
X685125*
X684444Y94106*
X684216Y94418*
X683989Y95043*
X689671Y94418D02*
X689444Y94106D01*
X689671Y93793*
X689898Y94106*
X689671Y94418*
X692171D02*
X691944Y94106D01*
X692171Y93793*
X692398Y94106*
X692171Y94418*
X697398Y98168D02*
X697171Y97231D01*
X696716Y96606*
X696034Y96293*
X695807*
X695125Y96606*
X694671Y97231*
X694444Y98168*
Y98481*
X694671Y99418*
X695125Y100043*
X695807Y100356*
X696034*
X696716Y100043*
X697171Y99418*
X697398Y98168*
Y96606*
X697171Y95043*
X696716Y94106*
X696034Y93793*
X695580*
X694898Y94106*
X694671Y94731*
X699444Y100356D02*
X701262Y93793D01*
X703080Y100356D02*
X701262Y93793D01*
X609000Y123375D02*
X609909Y119000D01*
X610818Y123375D02*
X609909Y119000D01*
X610818Y123375D02*
X611727Y119000D01*
X612636Y123375D02*
X611727Y119000D01*
X614682Y123375D02*
X615591Y119000D01*
X616500Y123375D02*
X615591Y119000D01*
X616500Y123375D02*
X617409Y119000D01*
X618318Y123375D02*
X617409Y119000D01*
X620364Y123375D02*
X621273Y119000D01*
X622182Y123375D02*
X621273Y119000D01*
X622182Y123375D02*
X623091Y119000D01*
X624000Y123375D02*
X623091Y119000D01*
X626273Y119625D02*
X626045Y119313D01*
X626045D02*
X626273Y119000D01*
X626500Y119313*
X626500D02*
X626273Y119625D01*
X628545Y123375D02*
Y120250D01*
X628773Y119313*
X628773D02*
X629227Y119000D01*
X629909*
X630364Y119313*
X630364D02*
X631045Y120250D01*
Y123375D02*
Y119000D01*
X635591Y122438D02*
X635364Y123063D01*
X635364D02*
X634682Y123375D01*
X634000*
X633318Y123063*
X633318D02*
X633091Y122438D01*
X633091D02*
X633318Y121813D01*
X633318D02*
X633773Y121500D01*
X634909Y121188*
X634909D02*
X635364Y120875D01*
X635591Y120250*
Y119938*
X635591D02*
X635364Y119313D01*
X635364D02*
X634682Y119000D01*
X634000*
X633318Y119313*
X633318D02*
X633091Y119938D01*
X638318Y125563D02*
Y120250D01*
X638545Y119313*
X638545D02*
X639000Y119000D01*
X639455*
X637636Y123375D02*
X639227D01*
X641727Y119625D02*
X641500Y119313D01*
X641500D02*
X641727Y119000D01*
X641955Y119313*
X641955D02*
X641727Y119625D01*
X646727Y122438D02*
X646273Y123063D01*
X646273D02*
X645818Y123375D01*
X645136*
X644682Y123063*
X644682D02*
X644227Y122438D01*
X644227D02*
X644000Y121500D01*
Y120875*
X644227Y119938*
X644227D02*
X644682Y119313D01*
X644682D02*
X645136Y119000D01*
X645818*
X646273Y119313*
X646273D02*
X646727Y119938D01*
X651273Y123375D02*
X648773Y119000D01*
Y123375D02*
X651273D01*
X648773Y119000D02*
X651273D01*
G54D26*
X590765Y248077D02*
X551395D01*
Y283510*
X590765*
Y248077*
X665895Y74010D02*
X705265D01*
Y38577*
X665895*
Y74010*
X594944Y266731D02*
Y263731D01*
X594807Y263168*
X594671Y262981*
X594398Y262793*
X594125*
X593853Y262981*
X593716Y263168*
X593580Y263731*
Y264106*
X596307Y265793D02*
Y265981D01*
X596444Y266356*
X596580Y266543*
X596853Y266731*
X597398*
X597671Y266543*
X597807Y266356*
X597944Y265981*
Y265606*
X597807Y265231*
X597534Y264668*
X596171Y262793*
X598080*
X686444Y35731D02*
Y32731D01*
X686307Y32168*
X686171Y31981*
X685898Y31793*
X685625*
X685353Y31981*
X685216Y32168*
X685080Y32731*
Y33106*
X687671Y34981D02*
X687944Y35168D01*
X688353Y35731*
Y31793*
G54D36*
X667319Y149783D02*
Y209153D01*
X702752*
Y149783*
X667319*
X652080Y34793D02*
X604080D01*
Y64793D02*
Y31793D01*
X652080*
Y64793*
Y80793D02*
Y95793D01*
X604080*
Y80793*
X667363Y209108D02*
Y268478D01*
X702796*
Y209108*
X667363*
X584081Y53792D02*
G75*
G03X570079I-7001J-4124D01*
G01X570077Y45799D02*
G03X584076Y45787I7003J3994D01*
G01X584081Y71792D02*
G03X570079I-7001J-4124D01*
G01X570077Y63799D02*
G03X584076Y63787I7003J3994D01*
G01X705444Y182731D02*
Y179731D01*
X705307Y179168*
X705171Y178981*
X704898Y178793*
X704625*
X704353Y178981*
X704216Y179168*
X704080Y179731*
Y180106*
X706944Y182731D02*
X708444D01*
X707625Y181231*
X708034*
X708307Y181043*
X708444Y180856*
X708580Y180293*
Y179918*
X708444Y179356*
X708171Y178981*
X707762Y178793*
X707353*
X706944Y178981*
X706807Y179168*
X706671Y179543*
X648444Y100731D02*
Y97731D01*
X648307Y97168*
X648171Y96981*
X647898Y96793*
X647625*
X647353Y96981*
X647216Y97168*
X647080Y97731*
Y98106*
X651034Y100731D02*
X649671Y98106D01*
X651716*
X651034Y100731D02*
Y96793D01*
X706444Y239731D02*
Y236731D01*
X706307Y236168*
X706171Y235981*
X705898Y235793*
X705625*
X705353Y235981*
X705216Y236168*
X705080Y236731*
Y237106*
X709444Y239731D02*
X708080D01*
X707944Y238043*
X708080Y238231*
X708489Y238418*
X708898*
X709307Y238231*
X709580Y237856*
X709716Y237293*
X709580Y236918*
X709444Y236356*
X709171Y235981*
X708762Y235793*
X708353*
X707944Y235981*
X707807Y236168*
X707671Y236543*
X588080Y52731D02*
Y48793D01*
Y52731D02*
X589034D01*
X589444Y52543*
X589716Y52168*
X589853Y51793*
X589989Y51231*
Y50293*
X589853Y49731*
X589716Y49356*
X589444Y48981*
X589034Y48793*
X588080*
X593125Y52731D02*
X591762Y48793D01*
X591216Y52731D02*
X593125D01*
X588080Y70731D02*
Y66793D01*
Y70731D02*
X589034D01*
X589444Y70543*
X589716Y70168*
X589853Y69793*
X589989Y69231*
Y68293*
X589853Y67731*
X589716Y67356*
X589444Y66981*
X589034Y66793*
X588080*
X591898Y70731D02*
X591489Y70543D01*
X591353Y70168*
Y69793*
X591489Y69418*
X591762Y69231*
X592307Y69043*
X592716Y68856*
X592989Y68481*
X593125Y68106*
Y67543*
X592989Y67168*
X592853Y66981*
X592444Y66793*
X591898*
X591489Y66981*
X591353Y67168*
X591216Y67543*
Y68106*
X591353Y68481*
X591625Y68856*
X592034Y69043*
X592580Y69231*
X592853Y69418*
X592989Y69793*
Y70168*
X592853Y70543*
X592444Y70731*
X591898*
G54D58*
X596994Y148000D02*
X597007Y147813D01*
X597044Y147632*
X597104Y147458*
X597185Y147291*
X597286Y147133*
X597405Y146985*
X597541Y146849*
X597692Y146725*
X597857Y146614*
X598033Y146518*
X598220Y146437*
X598416Y146374*
X598619Y146328*
X598828Y146301*
X599042Y146295*
X599257Y146310*
X599474Y146347*
X599691Y146409*
X599902Y146488*
X600105Y146579*
X600301Y146682*
X600490Y146797*
X600672Y146924*
X600847Y147062*
X601014Y147211*
X601175Y147371*
X601330Y147542*
X601477Y147723*
X601618Y147915*
X601753Y148117*
X601882Y148329*
X601976Y148500*
X602065Y148677*
X602149Y148859*
X602227Y149047*
X602301Y149240*
X602370Y149438*
X602434Y149640*
X602494Y149847*
X602549Y150059*
X602599Y150274*
X602646Y150493*
X602688Y150715*
X602726Y150941*
X602760Y151170*
X602791Y151401*
X602818Y151636*
X602842Y151872*
X602862Y152111*
X602879Y152352*
X602892Y152594*
X602903Y152838*
X602911Y153083*
X602916Y153329*
X602917Y153545*
X602915Y153765*
X602909Y153986*
X602900Y154209*
X602887Y154434*
X602870Y154660*
X602849Y154887*
X602824Y155115*
X602796Y155344*
X602764Y155573*
X602728Y155802*
X602687Y156031*
X602643Y156259*
X602595Y156487*
X602543Y156714*
X602487Y156940*
X602426Y157164*
X602362Y157387*
X602293Y157608*
X602220Y157827*
X602143Y158043*
X602062Y158257*
X601976Y158467*
X601886Y158675*
X601791Y158879*
X601693Y159080*
X601589Y159277*
X601481Y159469*
X601369Y159657*
X601283Y159789*
X601164Y159957*
X601019Y160151*
X600851Y160363*
X600668Y160581*
X600473Y160797*
X600273Y161001*
X600074Y161183*
X599773Y161434*
X599496Y161661*
X599248Y161861*
X599033Y162032*
X598854Y162175*
X598720Y162284*
X598634Y162359*
X598608Y162390*
X598621*
X598854Y162312*
X599082Y162226*
X599303Y162133*
X599518Y162034*
X599726Y161929*
X599928Y161818*
X600123Y161700*
X600313Y161577*
X600497Y161448*
X600675Y161314*
X600848Y161174*
X601015Y161029*
X601177Y160878*
X601334Y160723*
X601485Y160564*
X601632Y160399*
X601774Y160230*
X601912Y160057*
X602045Y159880*
X602171Y159701*
X602292Y159520*
X602408Y159335*
X602518Y159147*
X602623Y158957*
X602722Y158764*
X602817Y158569*
X602908Y158371*
X602993Y158171*
X603074Y157968*
X603150Y157763*
X603222Y157556*
X603290Y157347*
X603354Y157136*
X603414Y156924*
X603470Y156709*
X603522Y156493*
X603571Y156275*
X603617Y156056*
X603659Y155836*
X603698Y155614*
X603734Y155391*
X603766Y155167*
X603797Y154942*
X603824Y154716*
X603849Y154490*
X603871Y154262*
X603891Y154034*
X603909Y153806*
X603925Y153577*
X603937Y153376*
X603946Y153173*
X603951Y152966*
X603954Y152757*
Y152545*
X603950Y152331*
X603943Y152116*
X603933Y151898*
X603920Y151679*
X603903Y151459*
X603883Y151238*
X603859Y151016*
X603832Y150793*
X603800Y150570*
X603765Y150347*
X603727Y150124*
X603684Y149902*
X603637Y149680*
X603586Y149460*
X603531Y149240*
X603472Y149022*
X603409Y148805*
X603341Y148590*
X603269Y148377*
X603192Y148167*
X603111Y147959*
X603025Y147754*
X602934Y147552*
X602839Y147353*
X602738Y147157*
X602633Y146966*
X602523Y146778*
X602408Y146595*
X602288Y146416*
X602162Y146241*
X602032Y146072*
X601896Y145908*
X601754Y145749*
X601607Y145596*
X601455Y145449*
X601327Y145335*
X601187Y145221*
X601036Y145107*
X600873Y144995*
X600699Y144886*
X600515Y144781*
X600321Y144681*
X600116Y144588*
X599903Y144503*
X599680Y144427*
X599449Y144361*
X599209Y144307*
X598962Y144266*
X598707Y144238*
X598445Y144226*
X598177Y144230*
X597902Y144252*
X597671Y144284*
X597433Y144331*
X597190Y144391*
X596946Y144465*
X596703Y144551*
X596463Y144649*
X596229Y144759*
X596002Y144880*
X595786Y145012*
X595583Y145154*
X595395Y145306*
X595252Y145434*
X595110Y145569*
X594970Y145711*
X594830Y145859*
X594693Y146013*
X594557Y146173*
X594423Y146339*
X594290Y146509*
X594160Y146684*
X594032Y146865*
X593906Y147049*
X593783Y147238*
X593663Y147430*
X593545Y147627*
X593429Y147826*
X593317Y148029*
X593208Y148234*
X593102Y148442*
X593000Y148653*
X592901Y148865*
X592805Y149079*
X592713Y149295*
X592625Y149512*
X592541Y149730*
X592462Y149949*
X592462D02*
X592386Y150168D01*
X592315Y150387*
X592248Y150607*
X592186Y150826*
X592128Y151044*
X592076Y151262*
X592028Y151479*
X591986Y151694*
X591948Y151907*
X591917Y152119*
X591890Y152329*
X591870Y152535*
X591855Y152740*
X591846Y152941*
X591842Y153140*
X591846Y153400*
X591858Y153658*
X591876Y153912*
X591902Y154163*
X591935Y154409*
X591975Y154651*
X592021Y154889*
X592074Y155122*
X592133Y155350*
X592199Y155573*
X592270Y155790*
X592347Y156001*
X592430Y156206*
X592518Y156404*
X592612Y156596*
X592710Y156780*
X592813Y156958*
X592922Y157127*
X593034Y157289*
X593150Y157462*
X593247Y157636*
X593324Y157810*
X593384Y157982*
X593425Y158154*
X593450Y158323*
X593457Y158488*
X593449Y158650*
X593425Y158807*
X593385Y158958*
X593332Y159103*
X593264Y159241*
X593182Y159371*
X593088Y159492*
X592981Y159604*
X592863Y159705*
X592732Y159795*
X592732D02*
X592592Y159873D01*
X592440Y159939*
X592279Y159991*
X592109Y160029*
X591930Y160052*
X591743Y160059*
X591549Y160049*
X591347Y160022*
X591139Y159977*
X590925Y159913*
X590714Y159834*
X590510Y159742*
X590314Y159639*
X590125Y159524*
X589943Y159397*
X589769Y159259*
X589601Y159110*
X589440Y158950*
X589286Y158779*
X589138Y158598*
X588997Y158406*
X588862Y158204*
X588734Y157992*
X588639Y157821*
X588550Y157644*
X588467Y157462*
X588388Y157274*
X588314Y157081*
X588245Y156883*
X588181Y156681*
X588122Y156474*
X588067Y156263*
X588016Y156048*
X587970Y155829*
X587928Y155606*
X587889Y155380*
X587855Y155152*
X587824Y154920*
X587797Y154686*
X587774Y154449*
X587754Y154210*
X587737Y153970*
X587723Y153727*
X587712Y153484*
X587704Y153239*
X587699Y152993*
X587698Y152776*
X587700Y152557*
X587706Y152336*
X587715Y152112*
X587729Y151888*
X587746Y151661*
X587766Y151434*
X587791Y151206*
X587819Y150978*
X587852Y150749*
X587888Y150520*
X587928Y150291*
X587972Y150062*
X588020Y149834*
X588073Y149607*
X588129Y149381*
X588189Y149157*
X588254Y148934*
X588322Y148713*
X588395Y148495*
X588472Y148278*
X588554Y148065*
X588640Y147854*
X588730Y147646*
X588824Y147442*
X588923Y147241*
X588923D02*
X589026Y147045D01*
X589134Y146852*
X589246Y146664*
X589332Y146532*
X589451Y146364*
X589597Y146170*
X589764Y145959*
X589948Y145740*
X590142Y145524*
X590342Y145321*
X590542Y145139*
X590842Y144887*
X591119Y144660*
X591368Y144460*
X591583Y144289*
X591762Y144147*
X591896Y144037*
X591982Y143962*
X592007Y143932*
X591995Y143931*
X591761Y144010*
X591533Y144096*
X591312Y144188*
X591098Y144287*
X590890Y144392*
X590688Y144504*
X590492Y144621*
X590302Y144744*
X590118Y144873*
X589940Y145008*
X589768Y145148*
X589600Y145293*
X589438Y145443*
X589282Y145598*
X589130Y145758*
X588983Y145922*
X588841Y146091*
X588704Y146264*
X588570Y146441*
X588444Y146620*
X588323Y146802*
X588208Y146986*
X588098Y147174*
X587993Y147364*
X587893Y147557*
X587798Y147753*
X587708Y147950*
X587622Y148151*
X587542Y148353*
X587465Y148558*
X587393Y148765*
X587325Y148974*
X587261Y149185*
X587201Y149398*
X587145Y149612*
X587093Y149828*
X587044Y150046*
X586999Y150265*
X586957Y150486*
X586918Y150707*
X586882Y150930*
X586849Y151154*
X586819Y151379*
X586791Y151605*
X586767Y151831*
X586767D02*
X586744Y152059D01*
X586724Y152287*
X586706Y152516*
X586690Y152744*
X586678Y152945*
X586670Y153148*
X586664Y153355*
X586661Y153564*
X586662Y153776*
X586665Y153990*
X586672Y154206*
X586682Y154423*
X586695Y154642*
X586712Y154863*
X586732Y155084*
X586756Y155306*
X586784Y155528*
X586815Y155751*
X586850Y155974*
X586889Y156197*
X586932Y156419*
X586978Y156641*
X587029Y156862*
X587084Y157081*
X587143Y157300*
X587207Y157517*
X587275Y157731*
X587347Y157944*
X587423Y158155*
X587423D02*
X587505Y158363D01*
X587591Y158568*
X587681Y158770*
X587777Y158969*
X587877Y159164*
X587982Y159356*
X588092Y159543*
X588207Y159727*
X588328Y159906*
X588453Y160080*
X588584Y160249*
X588720Y160413*
X588861Y160572*
X589008Y160725*
X589161Y160873*
X589288Y160986*
X589428Y161101*
X589580Y161215*
X589742Y161327*
X589916Y161436*
X590100Y161541*
X590295Y161640*
X590499Y161733*
X590713Y161818*
X590935Y161894*
X591167Y161960*
X591406Y162014*
X591653Y162056*
X591908Y162083*
X592170Y162095*
X592438Y162091*
X592713Y162070*
X592920Y162042*
X593124Y162004*
X593326Y161958*
X593525Y161902*
X593722Y161837*
X593917Y161764*
X594108Y161683*
X594298Y161595*
X594484Y161498*
X594667Y161395*
X594847Y161284*
X595024Y161167*
X595198Y161043*
X595369Y160913*
X595536Y160778*
X595699Y160637*
X595859Y160490*
X596015Y160339*
X596167Y160183*
X596315Y160022*
X596460Y159858*
X596600Y159690*
X596736Y159518*
X596867Y159343*
X596994Y159165*
X597117Y158984*
X597235Y158801*
X597348Y158616*
X597457Y158429*
X597560Y158241*
X597659Y158051*
X597752Y157861*
X597840Y157670*
X597923Y157478*
X598000Y157287*
X598072Y157096*
X598139Y156905*
X598199Y156715*
X598254Y156526*
X598310Y156315*
X598363Y156102*
X598412Y155887*
X598457Y155671*
X598499Y155454*
X598536Y155235*
X598570Y155015*
X598599Y154795*
X598624Y154574*
X598645Y154352*
X598661Y154130*
X598673Y153907*
X598680Y153685*
X598682Y153462*
X598679Y153240*
X598672Y153018*
X598659Y152796*
X598641Y152576*
X598617Y152355*
X598588Y152136*
X598554Y151918*
X598514Y151701*
X598468Y151486*
X598416Y151272*
X598359Y151059*
X598295Y150849*
X598225Y150640*
X598149Y150434*
X598066Y150229*
X597977Y150028*
X597881Y149828*
X597778Y149632*
X597669Y149438*
X597553Y149248*
X597395Y149011*
X597244Y148785*
X597116Y148551*
X597027Y148295*
X596994Y148000*
X591626Y165494D02*
Y166878D01*
X595337Y166105*
X596256Y165912*
X596334Y165902*
X596408Y165895*
X596480Y165893*
X596738Y165926*
X596965Y166027*
X597159Y166194*
X597309Y166425*
X597398Y166716*
X597427Y167066*
X597406Y167388*
X597341Y167671*
X597234Y167915*
X597084Y168122*
X596891Y168295*
X596657Y168434*
X596483Y168508*
X596268Y168582*
X596010Y168656*
X595710Y168731*
X595367Y168806*
X591626Y169590*
Y170975*
X595367Y170197*
X595694Y170124*
X595998Y170048*
X596279Y169970*
X596538Y169888*
X596773Y169804*
X596985Y169716*
X597175Y169626*
X597416Y169484*
X597638Y169315*
X597841Y169121*
X598025Y168900*
X598191Y168652*
X598295Y168458*
X598383Y168251*
X598455Y168029*
X598511Y167793*
X598511D02*
X598551Y167544D01*
X598575Y167280*
X598583Y167001*
X598574Y166711*
X598546Y166438*
X598501Y166184*
X598437Y165946*
X598355Y165727*
X598255Y165525*
X598136Y165340*
X598000Y165173*
X597825Y165005*
X597638Y164863*
X597437Y164747*
X597223Y164657*
X596995Y164592*
X596754Y164554*
X596498Y164541*
X596367Y164544*
X596229Y164555*
X596083Y164573*
X595922Y164599*
X595638Y164654*
X595231Y164737*
X591626Y165494*
X596265Y171198D02*
X596196Y172519D01*
X596567Y172555*
X596858Y172628*
X597057Y172740*
X597220Y172930*
X597335Y173186*
X597404Y173507*
X597427Y173892*
X597399Y174313*
X597316Y174649*
X597177Y174901*
X596997Y175075*
X596794Y175180*
X596568Y175216*
X596372Y175187*
X596197Y175101*
X596043Y174957*
X595953Y174828*
X595840Y174622*
X595702Y174339*
X595544Y173985*
X595375Y173606*
X595224Y173288*
X595087Y173024*
X594964Y172815*
X594795Y172589*
X594596Y172397*
X594367Y172240*
X594108Y172124*
X593821Y172054*
X593507Y172031*
X593227Y172048*
X592965Y172100*
X592719Y172187*
X592489Y172308*
X592275Y172464*
X592077Y172655*
X591944Y172819*
X591829Y173002*
X591732Y173201*
X591652Y173419*
X591590Y173654*
X591545Y173906*
X591519Y174176*
X591510Y174464*
X591519Y174756*
X591545Y175032*
X591589Y175290*
X591651Y175532*
X591730Y175756*
X591827Y175963*
X591941Y176153*
X592073Y176326*
X592241Y176502*
X592425Y176653*
X592624Y176781*
X592839Y176884*
X593068Y176964*
X593313Y177019*
X593561Y177049*
X593621Y175718*
X593327Y175657*
X593072Y175537*
X592870Y175360*
X592722Y175122*
X592634Y174820*
X592605Y174454*
X592628Y174099*
X592697Y173818*
X592813Y173611*
X592965Y173469*
X593141Y173384*
X593342Y173356*
X593531Y173382*
X593697Y173460*
X593838Y173590*
X593947Y173740*
X594073Y173960*
X594216Y174249*
X594379Y174608*
X594543Y174979*
X594697Y175302*
X594840Y175577*
X594972Y175803*
X595094Y175982*
X595204Y176113*
X595401Y176285*
X595619Y176419*
X595858Y176515*
X596118Y176572*
X596399Y176592*
X596652Y176577*
X596894Y176533*
X597125Y176460*
X597345Y176358*
X597555Y176227*
X597754Y176066*
X597942Y175876*
X598076Y175711*
X598195Y175531*
X598298Y175337*
X598385Y175130*
X598456Y174909*
X598512Y174673*
X598551Y174423*
X598575Y174160*
X598583Y173882*
X598575Y173594*
X598550Y173320*
X598509Y173059*
X598451Y172811*
X598377Y172576*
X598287Y172355*
X598124Y172055*
X597934Y171804*
X597714Y171600*
X597466Y171444*
X597193Y171330*
X596900Y171250*
X596587Y171206*
X596265Y171198*
X598466Y180343D02*
Y178953D01*
X592750Y180151*
Y178139*
X591626Y178372*
Y183756*
X592750Y183523*
Y181537*
X598466Y180343*
G74*
X0Y0D02*
M02*
