*
*
G04 PADS Layout (Build Number 2008.43.1) generated Gerber (RS-274-X) file*
G04 PC Version=2.1*
*
%IN "USBRS232_final.pcb"*%
*
%MOIN*%
*
%FSLAX35Y35*%
*
*
*
*
G04 PC Standard Apertures*
*
*
G04 Thermal Relief Aperture macro.*
%AMTER*
1,1,$1,0,0*
1,0,$1-$2,0,0*
21,0,$3,$4,0,0,45*
21,0,$3,$4,0,0,135*
%
*
*
G04 Annular Aperture macro.*
%AMANN*
1,1,$1,0,0*
1,0,$2,0,0*
%
*
*
G04 Odd Aperture macro.*
%AMODD*
1,1,$1,0,0*
1,0,$1-0.005,0,0*
%
*
*
G04 PC Custom Aperture Macros*
*
*
*
*
*
*
G04 PC Aperture Table*
*
%ADD023C,0.007*%
%ADD024C,0.001*%
%ADD025C,0.01*%
%ADD026C,0.00787*%
%ADD036C,0.008*%
*
*
*
*
G04 PC Circuitry*
G04 Layer Name USBRS232_final.pcb - circuitry*
%LPD*%
*
*
G04 PC Custom Flashes*
G04 Layer Name USBRS232_final.pcb - flashes*
%LPD*%
*
*
G04 PC Circuitry*
G04 Layer Name USBRS232_final.pcb - circuitry*
%LPD*%
*
G54D23*
G01X220909Y283594D02*
Y279000D01*
Y281406D02*
X220591Y281844D01*
X220273Y282063*
X220273D02*
X219795D01*
X219795D02*
X219477Y281844D01*
X219159Y281406*
X219000Y280750*
Y280313*
X219000D02*
X219159Y279656D01*
X219477Y279219*
X219795Y279000*
X220273*
X220591Y279219*
X220909Y279656*
X223136Y282063D02*
X222818Y281844D01*
X222500Y281406*
X222341Y280750*
Y280313*
X222341D02*
X222500Y279656D01*
X222818Y279219*
X223136Y279000*
X223614*
X223932Y279219*
X224250Y279656*
X224409Y280313*
X224409D02*
Y280750D01*
X224250Y281406*
X223932Y281844*
X223614Y282063*
X223614D02*
X223136D01*
X225841D02*
Y279000D01*
Y281188D02*
X226318Y281844D01*
X226636Y282063*
X226636D02*
X227114D01*
X227114D02*
X227432Y281844D01*
X227591Y281188*
X227591D02*
Y279000D01*
Y281188D02*
X228068Y281844D01*
X228386Y282063*
X228386D02*
X228864D01*
X228864D02*
X229182Y281844D01*
X229341Y281188*
X229341D02*
Y279000D01*
X230773Y280750D02*
X232682D01*
Y281188*
X232682D02*
X232523Y281625D01*
X232364Y281844*
X232045Y282063*
X232045D02*
X231568D01*
X231568D02*
X231250Y281844D01*
X230932Y281406*
X230773Y280750*
Y280313*
X230773D02*
X230932Y279656D01*
X231250Y279219*
X231568Y279000*
X232045*
X232364Y279219*
X232682Y279656*
G54D24*
G54D25*
X114364Y316563D02*
X113909Y316250D01*
X113455Y315625*
X113227Y315000*
X113000Y314063*
X113000D02*
Y312500D01*
X113227Y311563*
X113227D02*
X113455Y310938D01*
X113455D02*
X113909Y310313D01*
X113909D02*
X114364Y310000D01*
X115273*
X115727Y310313*
X115727D02*
X116182Y310938D01*
X116182D02*
X116409Y311563D01*
X116409D02*
X116636Y312500D01*
Y314063*
X116636D02*
X116409Y315000D01*
X116182Y315625*
X115727Y316250*
X115273Y316563*
X115273D02*
X114364D01*
X118682Y314375D02*
Y307812D01*
Y313438D02*
X119136Y314063D01*
X119136D02*
X119591Y314375D01*
X120273*
X120727Y314063*
X120727D02*
X121182Y313438D01*
X121182D02*
X121409Y312500D01*
Y311875*
X121182Y310938*
X121182D02*
X120727Y310313D01*
X120727D02*
X120273Y310000D01*
X119591*
X119136Y310313*
X119136D02*
X118682Y310938D01*
X123455Y312500D02*
X126182D01*
Y313125*
X125955Y313750*
X125727Y314063*
X125727D02*
X125273Y314375D01*
X124591*
X124136Y314063*
X124136D02*
X123682Y313438D01*
X123682D02*
X123455Y312500D01*
Y311875*
X123682Y310938*
X123682D02*
X124136Y310313D01*
X124136D02*
X124591Y310000D01*
X125273*
X125727Y310313*
X125727D02*
X126182Y310938D01*
X128227Y314375D02*
Y310000D01*
Y313125D02*
X128909Y314063D01*
X128909D02*
X129364Y314375D01*
X130045*
X130500Y314063*
X130500D02*
X130727Y313125D01*
Y310000*
X138000Y316563D02*
Y310000D01*
Y316563D02*
X139591D01*
X139591D02*
X140273Y316250D01*
X140727Y315625*
X140955Y315000*
X141182Y314063*
X141182D02*
Y312500D01*
X140955Y311563*
X140955D02*
X140727Y310938D01*
X140727D02*
X140273Y310313D01*
X140273D02*
X139591Y310000D01*
X138000*
X144591Y316563D02*
X144136Y316250D01*
X143682Y315625*
X143455Y315000*
X143227Y314063*
X143227D02*
Y312500D01*
X143455Y311563*
X143455D02*
X143682Y310938D01*
X143682D02*
X144136Y310313D01*
X144136D02*
X144591Y310000D01*
X145500*
X145955Y310313*
X145955D02*
X146409Y310938D01*
X146409D02*
X146636Y311563D01*
X146636D02*
X146864Y312500D01*
Y314063*
X146864D02*
X146636Y315000D01*
X146409Y315625*
X145955Y316250*
X145500Y316563*
X145500D02*
X144591D01*
X148909D02*
Y310000D01*
Y316563D02*
X150727Y310000D01*
X152545Y316563D02*
X150727Y310000D01*
X152545Y316563D02*
Y310000D01*
X154591Y316563D02*
Y310000D01*
Y316563D02*
X157545D01*
X154591Y313438D02*
X156409D01*
X154591Y310000D02*
X157545D01*
X143045Y329625D02*
Y324000D01*
X141000Y326813D02*
X145091D01*
X117727Y327375D02*
Y322375D01*
X117500Y321437*
X117500D02*
X117273Y321125D01*
X116818Y320812*
X116818D02*
X116136D01*
X116136D02*
X115682Y321125D01*
X117727Y326438D02*
X117273Y327063D01*
X117273D02*
X116818Y327375D01*
X116136*
X115682Y327063*
X115682D02*
X115227Y326438D01*
X115227D02*
X115000Y325500D01*
Y324875*
X115227Y323938*
X115227D02*
X115682Y323313D01*
X115682D02*
X116136Y323000D01*
X116818*
X117273Y323313*
X117273D02*
X117727Y323938D01*
X119773Y327375D02*
Y323000D01*
Y326125D02*
X120455Y327063D01*
X120455D02*
X120909Y327375D01*
X121591*
X122045Y327063*
X122045D02*
X122273Y326125D01*
Y323000*
X127045Y329563D02*
Y323000D01*
Y326438D02*
X126591Y327063D01*
X126591D02*
X126136Y327375D01*
X125455*
X125000Y327063*
X125000D02*
X124545Y326438D01*
X124545D02*
X124318Y325500D01*
Y324875*
X124545Y323938*
X124545D02*
X125000Y323313D01*
X125000D02*
X125455Y323000D01*
X126136*
X126591Y323313*
X126591D02*
X127045Y323938D01*
X220727Y322375D02*
Y317375D01*
X220500Y316437*
X220500D02*
X220273Y316125D01*
X219818Y315812*
X219818D02*
X219136D01*
X219136D02*
X218682Y316125D01*
X220727Y321438D02*
X220273Y322063D01*
X220273D02*
X219818Y322375D01*
X219136*
X218682Y322063*
X218682D02*
X218227Y321438D01*
X218227D02*
X218000Y320500D01*
Y319875*
X218227Y318938*
X218227D02*
X218682Y318313D01*
X218682D02*
X219136Y318000D01*
X219818*
X220273Y318313*
X220273D02*
X220727Y318938D01*
X222773Y322375D02*
Y318000D01*
Y321125D02*
X223455Y322063D01*
X223455D02*
X223909Y322375D01*
X224591*
X225045Y322063*
X225045D02*
X225273Y321125D01*
Y318000*
X230045Y324563D02*
Y318000D01*
Y321438D02*
X229591Y322063D01*
X229591D02*
X229136Y322375D01*
X228455*
X228000Y322063*
X228000D02*
X227545Y321438D01*
X227545D02*
X227318Y320500D01*
Y319875*
X227545Y318938*
X227545D02*
X228000Y318313D01*
X228000D02*
X228455Y318000D01*
X229136*
X229591Y318313*
X229591D02*
X230045Y318938D01*
X220727Y262375D02*
Y257375D01*
X220500Y256437*
X220500D02*
X220273Y256125D01*
X219818Y255812*
X219818D02*
X219136D01*
X219136D02*
X218682Y256125D01*
X220727Y261438D02*
X220273Y262063D01*
X220273D02*
X219818Y262375D01*
X219136*
X218682Y262063*
X218682D02*
X218227Y261438D01*
X218227D02*
X218000Y260500D01*
Y259875*
X218227Y258938*
X218227D02*
X218682Y258313D01*
X218682D02*
X219136Y258000D01*
X219818*
X220273Y258313*
X220273D02*
X220727Y258938D01*
X222773Y262375D02*
Y258000D01*
Y261125D02*
X223455Y262063D01*
X223455D02*
X223909Y262375D01*
X224591*
X225045Y262063*
X225045D02*
X225273Y261125D01*
Y258000*
X230045Y264563D02*
Y258000D01*
Y261438D02*
X229591Y262063D01*
X229591D02*
X229136Y262375D01*
X228455*
X228000Y262063*
X228000D02*
X227545Y261438D01*
X227545D02*
X227318Y260500D01*
Y259875*
X227545Y258938*
X227545D02*
X228000Y258313D01*
X228000D02*
X228455Y258000D01*
X229136*
X229591Y258313*
X229591D02*
X230045Y258938D01*
X236727Y166375D02*
Y161375D01*
X236500Y160437*
X236500D02*
X236273Y160125D01*
X235818Y159812*
X235818D02*
X235136D01*
X235136D02*
X234682Y160125D01*
X236727Y165438D02*
X236273Y166063D01*
X236273D02*
X235818Y166375D01*
X235136*
X234682Y166063*
X234682D02*
X234227Y165438D01*
X234227D02*
X234000Y164500D01*
Y163875*
X234227Y162938*
X234227D02*
X234682Y162313D01*
X234682D02*
X235136Y162000D01*
X235818*
X236273Y162313*
X236273D02*
X236727Y162938D01*
X238773Y166375D02*
Y162000D01*
Y165125D02*
X239455Y166063D01*
X239455D02*
X239909Y166375D01*
X240591*
X241045Y166063*
X241045D02*
X241273Y165125D01*
Y162000*
X246045Y168563D02*
Y162000D01*
Y165438D02*
X245591Y166063D01*
X245591D02*
X245136Y166375D01*
X244455*
X244000Y166063*
X244000D02*
X243545Y165438D01*
X243545D02*
X243318Y164500D01*
Y163875*
X243545Y162938*
X243545D02*
X244000Y162313D01*
X244000D02*
X244455Y162000D01*
X245136*
X245591Y162313*
X245591D02*
X246045Y162938D01*
X260045Y166625D02*
Y161000D01*
X258000Y163813D02*
X262091D01*
X264136Y167563D02*
Y162875D01*
X264364Y161938*
X264364D02*
X264818Y161313D01*
X264818D02*
X265500Y161000D01*
X265955*
X266636Y161313*
X266636D02*
X267091Y161938D01*
X267091D02*
X267318Y162875D01*
Y167563*
X269364D02*
X269591Y167250D01*
X269818Y167563*
X269818D02*
X269591Y167875D01*
X269364Y167563*
X269591Y165375D02*
Y161000D01*
X271864Y165375D02*
Y161000D01*
Y164125D02*
X272545Y165063D01*
X272545D02*
X273000Y165375D01*
X273682*
X274136Y165063*
X274136D02*
X274364Y164125D01*
Y161000*
X221000Y342563D02*
Y336000D01*
Y342563D02*
X223045D01*
X223045D02*
X223727Y342250D01*
X223955Y341938*
X223955D02*
X224182Y341313D01*
X224182D02*
Y340688D01*
X224182D02*
X223955Y340063D01*
X223955D02*
X223727Y339750D01*
X223045Y339438*
X223045D02*
X221000D01*
X222591D02*
X224182Y336000D01*
X226227Y342563D02*
X229409Y336000D01*
Y342563D02*
X226227Y336000D01*
X221591Y302563D02*
Y296000D01*
X220000Y302563D02*
X223182D01*
X225227D02*
X228409Y296000D01*
Y302563D02*
X225227Y296000D01*
X211045Y243625D02*
Y238000D01*
X209000Y240813D02*
X213091D01*
X215136Y244563D02*
Y239875D01*
X215364Y238938*
X215364D02*
X215818Y238313D01*
X215818D02*
X216500Y238000D01*
X216955*
X217636Y238313*
X217636D02*
X218091Y238938D01*
X218091D02*
X218318Y239875D01*
Y244563*
X221500Y242375D02*
X221045Y242063D01*
X221045D02*
X220591Y241438D01*
X220591D02*
X220364Y240500D01*
Y239875*
X220591Y238938*
X220591D02*
X221045Y238313D01*
X221045D02*
X221500Y238000D01*
X222182*
X222636Y238313*
X222636D02*
X223091Y238938D01*
X223091D02*
X223318Y239875D01*
Y240500*
X223091Y241438*
X223091D02*
X222636Y242063D01*
X222636D02*
X222182Y242375D01*
X221500*
X225364D02*
Y239250D01*
X225591Y238313*
X225591D02*
X226045Y238000D01*
X226727*
X227182Y238313*
X227182D02*
X227864Y239250D01*
Y242375D02*
Y238000D01*
X230591Y244563D02*
Y239250D01*
X230818Y238313*
X230818D02*
X231273Y238000D01*
X231727*
X229909Y242375D02*
X231500D01*
X127682Y143563D02*
Y138250D01*
X127909Y137313*
X127909D02*
X128364Y137000D01*
X128818*
X127000Y141375D02*
X128591D01*
X130864D02*
X133364Y137000D01*
Y141375D02*
X130864Y137000D01*
X145000Y140375D02*
Y136000D01*
Y138500D02*
X145227Y139438D01*
X145227D02*
X145682Y140063D01*
X145682D02*
X146136Y140375D01*
X146818*
X148864D02*
X151364Y136000D01*
Y140375D02*
X148864Y136000D01*
X128625Y180000D02*
X133000D01*
X129875D02*
X128937Y180682D01*
X128937D02*
X128625Y181136D01*
Y181818*
X128937Y182273*
X128937D02*
X129875Y182500D01*
X133000*
X129875D02*
X128937Y183182D01*
X128937D02*
X128625Y183636D01*
Y184318*
X128937Y184773*
X128937D02*
X129875Y185000D01*
X133000*
X128625Y187045D02*
X133000D01*
X130500D02*
X129562Y187273D01*
X129562D02*
X128937Y187727D01*
X128937D02*
X128625Y188182D01*
Y188864*
Y193636D02*
X133000D01*
X129562D02*
X128937Y193182D01*
X128937D02*
X128625Y192727D01*
Y192045*
X128937Y191591*
X128937D02*
X129562Y191136D01*
X129562D02*
X130500Y190909D01*
X131125*
X132062Y191136*
X132062D02*
X132687Y191591D01*
X132687D02*
X133000Y192045D01*
Y192727*
X132687Y193182*
X132687D02*
X132062Y193636D01*
X126437Y195682D02*
X133000D01*
X128625Y197955D02*
X131750Y195682D01*
X130500Y196591D02*
X133000Y198182D01*
X126437Y202500D02*
X130812Y200227D01*
X130812D02*
Y203636D01*
X126437Y202500D02*
X133000D01*
X130187Y210909D02*
Y215000D01*
X126437Y222273D02*
X131125D01*
X132062Y222500*
X132062D02*
X132687Y222955D01*
X132687D02*
X133000Y223636D01*
Y224091*
X132687Y224773*
X132687D02*
X132062Y225227D01*
X132062D02*
X131125Y225455D01*
X126437*
X127375Y230682D02*
X126750Y230227D01*
X126437Y229545*
X126437D02*
Y228636D01*
X126437D02*
X126750Y227955D01*
X127375Y227500*
X128000*
X128625Y227727*
X128937Y227955*
X128937D02*
X129250Y228409D01*
X129875Y229773*
X130187Y230227*
X130187D02*
X130500Y230455D01*
X131125Y230682*
X132062*
X132062D02*
X132687Y230227D01*
X132687D02*
X133000Y229545D01*
Y228636*
X132687Y227955*
X132687D02*
X132062Y227500D01*
X126437Y232727D02*
X133000D01*
X126437D02*
Y234773D01*
X126437D02*
X126750Y235455D01*
X127062Y235682*
X127062D02*
X127687Y235909D01*
X127687D02*
X128312D01*
X128312D02*
X128937Y235682D01*
X128937D02*
X129250Y235455D01*
X129562Y234773*
Y232727D02*
Y234773D01*
X129562D02*
X129875Y235455D01*
X130187Y235682*
X130187D02*
X130812Y235909D01*
X130812D02*
X131750D01*
X132375Y235682*
X132687Y235455*
X132687D02*
X133000Y234773D01*
Y232727*
X128625Y243182D02*
X135188D01*
X129562D02*
X128937Y243636D01*
X128937D02*
X128625Y244091D01*
Y244773*
X128937Y245227*
X128937D02*
X129562Y245682D01*
X129562D02*
X130500Y245909D01*
X131125*
X132062Y245682*
X132062D02*
X132687Y245227D01*
X132687D02*
X133000Y244773D01*
Y244091*
X132687Y243636*
X132687D02*
X132062Y243182D01*
X128625Y250682D02*
X133000D01*
X129562D02*
X128937Y250227D01*
X128937D02*
X128625Y249773D01*
Y249091*
X128937Y248636*
X128937D02*
X129562Y248182D01*
X129562D02*
X130500Y247955D01*
X131125*
X132062Y248182*
X132062D02*
X132687Y248636D01*
X132687D02*
X133000Y249091D01*
Y249773*
X132687Y250227*
X132687D02*
X132062Y250682D01*
X128625Y252727D02*
X133000D01*
X130500D02*
X129562Y252955D01*
X129562D02*
X128937Y253409D01*
X128937D02*
X128625Y253864D01*
Y254545*
X126437Y257273D02*
X131750D01*
X132687Y257500*
X132687D02*
X133000Y257955D01*
Y258409*
X128625Y256591D02*
Y258182D01*
X139000Y179227D02*
X138687D01*
X138687D02*
X138062Y179455D01*
X138062D02*
X137750Y179682D01*
X137437Y180136*
X137437D02*
Y181045D01*
X137437D02*
X137750Y181500D01*
X138062Y181727*
X138062D02*
X138687Y181955D01*
X138687D02*
X139312D01*
X139312D02*
X139937Y181727D01*
X139937D02*
X140875Y181273D01*
X144000Y179000*
Y182182*
X137437Y185591D02*
X137750Y184909D01*
X138687Y184455*
X138687D02*
X140250Y184227D01*
X141187*
X141187D02*
X142750Y184455D01*
X143687Y184909*
X143687D02*
X144000Y185591D01*
Y186045*
X143687Y186727*
X143687D02*
X142750Y187182D01*
X141187Y187409*
X141187D02*
X140250D01*
X138687Y187182*
X138687D02*
X137750Y186727D01*
X137437Y186045*
X137437D02*
Y185591D01*
Y190818D02*
X137750Y190136D01*
X138687Y189682*
X138687D02*
X140250Y189455D01*
X141187*
X141187D02*
X142750Y189682D01*
X143687Y190136*
X143687D02*
X144000Y190818D01*
Y191273*
X143687Y191955*
X143687D02*
X142750Y192409D01*
X141187Y192636*
X141187D02*
X140250D01*
X138687Y192409*
X138687D02*
X137750Y191955D01*
X137437Y191273*
X137437D02*
Y190818D01*
Y195818D02*
X137750Y195136D01*
X138375Y194909*
X139000*
X139625Y195136*
X139937Y195591*
X139937D02*
X140250Y196500D01*
X140562Y197182*
X140562D02*
X141187Y197636D01*
X141187D02*
X141812Y197864D01*
X141812D02*
X142750D01*
X143375Y197636*
X143687Y197409*
X143687D02*
X144000Y196727D01*
Y195818*
X143687Y195136*
X143687D02*
X143375Y194909D01*
X142750Y194682*
X141812*
X141812D02*
X141187Y194909D01*
X141187D02*
X140562Y195364D01*
X140562D02*
X140250Y196045D01*
X139937Y196955*
X139937D02*
X139625Y197409D01*
X139000Y197636*
X138375*
X137750Y197409*
X137437Y196727*
X137437D02*
Y195818D01*
X254300Y195500D02*
G75*
G03X254300I-14800J0D01*
G01X165300Y284500D02*
G03X165300I-14800J0D01*
G54D26*
G01X152185Y332283D02*
X112815D01*
Y367717*
X152185*
Y332283*
X232815Y155217D02*
X272185D01*
Y119783*
X232815*
Y155217*
X156364Y350938D02*
Y347938D01*
X156227Y347375*
X156091Y347188*
X155818Y347000*
X155545*
X155273Y347188*
X155136Y347375*
X155000Y347938*
Y348313*
X157727Y350000D02*
Y350188D01*
X157864Y350563*
X158000Y350750*
X158273Y350938*
X158818*
X159091Y350750*
X159227Y350563*
X159364Y350188*
Y349813*
X159227Y349438*
X158955Y348875*
X157591Y347000*
X159500*
X253364Y116938D02*
Y113938D01*
X253364D02*
X253227Y113375D01*
X253091Y113188*
X253091D02*
X252818Y113000D01*
X252545*
X252273Y113188*
X252273D02*
X252136Y113375D01*
X252000Y113938*
X252000D02*
Y114313D01*
X254591Y116188D02*
X254864Y116375D01*
X255273Y116938*
X255273D02*
Y113000D01*
G54D36*
X126001Y132001D02*
G03Y117999I4124J-7001D01*
G01X133995Y117997D02*
G03X134007Y131996I-3995J7003D01*
G01X143501Y132001D02*
G03Y117999I4124J-7001D01*
G01X151495Y117997D02*
G03X151507Y131996I-3995J7003D01*
G01X234239Y230990D02*
Y290360D01*
X269672*
Y230990*
X234239*
X219000Y116000D02*
X171000D01*
Y146000D02*
Y113000D01*
X219000*
Y146000*
Y162000D02*
Y177000D01*
X171000*
Y162000*
X234283Y290315D02*
Y349685D01*
X269717*
Y290315*
X234283*
X127000Y126938D02*
Y123000D01*
Y126938D02*
X127955D01*
X127955D02*
X128364Y126750D01*
X128636Y126375*
X128773Y126000*
X128909Y125438*
X128909D02*
Y124500D01*
X128773Y123938*
X128773D02*
X128636Y123563D01*
X128636D02*
X128364Y123188D01*
X128364D02*
X127955Y123000D01*
X127000*
X132045Y126938D02*
X130682Y123000D01*
X130136Y126938D02*
X132045D01*
X145000D02*
Y123000D01*
Y126938D02*
X145955D01*
X145955D02*
X146364Y126750D01*
X146636Y126375*
X146773Y126000*
X146909Y125438*
X146909D02*
Y124500D01*
X146773Y123938*
X146773D02*
X146636Y123563D01*
X146636D02*
X146364Y123188D01*
X146364D02*
X145955Y123000D01*
X145000*
X148818Y126938D02*
X148409Y126750D01*
X148273Y126375*
Y126000*
X148409Y125625*
X148682Y125438*
X148682D02*
X149227Y125250D01*
X149636Y125063*
X149636D02*
X149909Y124688D01*
X149909D02*
X150045Y124313D01*
X150045D02*
Y123750D01*
X149909Y123375*
X149773Y123188*
X149773D02*
X149364Y123000D01*
X148818*
X148409Y123188*
X148409D02*
X148273Y123375D01*
X148136Y123750*
Y124313*
X148136D02*
X148273Y124688D01*
X148273D02*
X148545Y125063D01*
X148545D02*
X148955Y125250D01*
X149500Y125438*
X149500D02*
X149773Y125625D01*
X149909Y126000*
Y126375*
X149773Y126750*
X149364Y126938*
X149364D02*
X148818D01*
X272364Y263938D02*
Y260938D01*
X272227Y260375*
X272091Y260188*
X271818Y260000*
X271545*
X271273Y260188*
X271136Y260375*
X271000Y260938*
Y261313*
X273864Y263938D02*
X275364D01*
X274545Y262438*
X274955*
X275227Y262250*
X275364Y262063*
X275500Y261500*
Y261125*
X275364Y260563*
X275091Y260188*
X274682Y260000*
X274273*
X273864Y260188*
X273727Y260375*
X273591Y260750*
X209364Y181938D02*
Y178938D01*
X209364D02*
X209227Y178375D01*
X209091Y178188*
X209091D02*
X208818Y178000D01*
X208545*
X208273Y178188*
X208273D02*
X208136Y178375D01*
X208000Y178938*
X208000D02*
Y179313D01*
X211955Y181938D02*
X210591Y179313D01*
X210591D02*
X212636D01*
X211955Y181938D02*
Y178000D01*
X273364Y320938D02*
Y317938D01*
X273227Y317375*
X273091Y317188*
X272818Y317000*
X272545*
X272273Y317188*
X272136Y317375*
X272000Y317938*
Y318313*
X276364Y320938D02*
X275000D01*
X274864Y319250*
X275000Y319438*
X275409Y319625*
X275818*
X276227Y319438*
X276500Y319063*
X276636Y318500*
X276500Y318125*
X276364Y317563*
X276091Y317188*
X275682Y317000*
X275273*
X274864Y317188*
X274727Y317375*
X274591Y317750*
G74*
X0Y0D02*
M02*
