*
*
G04 PADS Layout (Build Number 2007.42.1) generated Gerber (RS-274-X) file*
G04 PC Version=2.1*
*
%IN "USBRS232_final.pcb"*%
*
%MOIN*%
*
%FSLAX35Y35*%
*
*
*
*
G04 PC Standard Apertures*
*
*
G04 Thermal Relief Aperture macro.*
%AMTER*
1,1,$1,0,0*
1,0,$1-$2,0,0*
21,0,$3,$4,0,0,45*
21,0,$3,$4,0,0,135*
%
*
*
G04 Annular Aperture macro.*
%AMANN*
1,1,$1,0,0*
1,0,$2,0,0*
%
*
*
G04 Odd Aperture macro.*
%AMODD*
1,1,$1,0,0*
1,0,$1-0.005,0,0*
%
*
*
G04 PC Custom Aperture Macros*
*
*
*
*
*
*
G04 PC Aperture Table*
*
%ADD010R,0.039X0.039*%
%ADD011C,0.06*%
%ADD012R,0.07X0.07*%
%ADD013C,0.23622*%
%ADD014C,0.05*%
%ADD017C,0.02*%
%ADD018C,0.015*%
%ADD019C,0.03*%
%ADD020C,0.012*%
%ADD025C,0.01*%
%ADD031C,0.07*%
%ADD035C,0.065*%
%ADD040R,0.06X0.06*%
%ADD043R,0.04X0.04*%
%ADD044R,0.07874X0.07874*%
%ADD045R,0.09X0.09*%
%ADD046C,0.14*%
%ADD047C,0.018*%
%ADD048C,0.025*%
%ADD049R,0.046X0.046*%
*
*
*
*
G04 PC Copper Outlines (0)*
G04 Layer Name USBRS232_final.pcb - dark (0)*
%LPD*%
*
*
G04 PC Area=ANP000003*
G75*
G36*
G01*
X589580Y283693D02*
X589433Y284047D01*
X589080Y284193D01*
X575080D01*
X574726Y284047D01*
X574580Y283693D01*
Y257793D01*
X574726Y257440D01*
X575080Y257293D01*
X589080D01*
X589433Y257440D01*
X589580Y257793D01*
Y283693D01*
G37*
G74*
*
*
G04 PC Copper Outlines (1)*
G04 Layer Name USBRS232_final.pcb - dark (1)*
%LPD*%
*
*
G04 PC Area=ANP000006*
G75*
G36*
G01*
X690580Y206793D02*
X690433Y207147D01*
X690080Y207293D01*
X667080D01*
X666726Y207147D01*
X666580Y206793D01*
Y193793D01*
X666726Y193440D01*
X667080Y193293D01*
X690080D01*
X690433Y193440D01*
X690580Y193793D01*
Y206793D01*
G37*
G74*
*
*
G04 PC Copper Outlines (2)*
G04 Layer Name USBRS232_final.pcb - dark (2)*
%LPD*%
*
*
G04 PC Area=ANP000007*
G75*
G36*
G01*
X690580Y225793D02*
X690433Y226147D01*
X690080Y226293D01*
X667080D01*
X666726Y226147D01*
X666580Y225793D01*
Y212793D01*
X666726Y212440D01*
X667080Y212293D01*
X690080D01*
X690433Y212440D01*
X690580Y212793D01*
Y225793D01*
G37*
G74*
*
*
G04 PC Copper Outlines (3)*
G04 Layer Name USBRS232_final.pcb - dark (3)*
%LPD*%
*
*
G04 PC Area=ANP000008*
G75*
G36*
G01*
X690580Y267793D02*
X690433Y268147D01*
X690080Y268293D01*
X667080D01*
X666726Y268147D01*
X666580Y267793D01*
Y254793D01*
X666726Y254440D01*
X667080Y254293D01*
X690080D01*
X690433Y254440D01*
X690580Y254793D01*
Y267793D01*
G37*
G74*
*
*
G04 PC Copper Outlines (4)*
G04 Layer Name USBRS232_final.pcb - dark (4)*
%LPD*%
*
*
G04 PC Area=ANP000000*
G75*
G36*
G01*
X567580Y283693D02*
X567433Y284047D01*
X567080Y284193D01*
X552080D01*
X551726Y284047D01*
X551580Y283693D01*
Y257793D01*
X551726Y257440D01*
X552080Y257293D01*
X567080D01*
X567433Y257440D01*
X567580Y257793D01*
Y283693D01*
G37*
G74*
*
*
G04 PC Copper Outlines (5)*
G04 Layer Name USBRS232_final.pcb - dark (5)*
%LPD*%
*
*
G04 PC Area=ANP000009*
G75*
G36*
G01*
X700580Y125379D02*
X700433Y125733D01*
X690580Y135586D01*
Y163793D01*
X690433Y164147D01*
X690080Y164293D01*
X667080D01*
X666726Y164147D01*
X666580Y163793D01*
Y136793D01*
X666726Y136440D01*
X667080Y136293D01*
X676287D01*
X690580Y122000D01*
Y54334D01*
Y54318D01*
X690865Y52812D01*
X691593Y51464D01*
X692694Y50399D01*
X694066Y49717D01*
X695580Y49482D01*
X697094Y49717D01*
X698466Y50399D01*
X699567Y51464D01*
X700294Y52812D01*
X700580Y54318D01*
Y54334D01*
Y125379D01*
G37*
G74*
*
*
G04 PC Copper Outlines (6)*
G04 Layer Name USBRS232_final.pcb - dark (6)*
%LPD*%
*
*
G04 PC Area=ANP000015*
G75*
G36*
G01*
X708180Y283693D02*
X708033Y284047D01*
X707680Y284193D01*
X667080D01*
X666726Y284047D01*
X666580Y283693D01*
Y271967D01*
X666726Y271613D01*
X667080Y271467D01*
X676001D01*
X677006Y271293D01*
X691177D01*
X692279Y270837D01*
X693123Y269993D01*
X693580Y268890D01*
Y253697D01*
X693123Y252594D01*
X692279Y251750D01*
X691177Y251293D01*
X667080D01*
X666726Y251147D01*
X666580Y250793D01*
Y229793D01*
X666726Y229440D01*
X667080Y229293D01*
X691177D01*
X692279Y228837D01*
X693123Y227993D01*
X693580Y226890D01*
Y211689D01*
X693111Y210574D01*
X692679Y210150D01*
X692529Y209793D01*
X692679Y209436D01*
X693111Y209013D01*
X693580Y207898D01*
Y192697D01*
X693123Y191594D01*
X692279Y190750D01*
X691177Y190293D01*
X667080D01*
X666726Y190147D01*
X666580Y189793D01*
Y167793D01*
X666726Y167440D01*
X667080Y167293D01*
X691177D01*
X692279Y166837D01*
X693123Y165993D01*
X693580Y164890D01*
Y137036D01*
X693726Y136682D01*
X703123Y127286D01*
X703580Y126183D01*
Y54326D01*
X703578Y54231D01*
X703548Y53280D01*
X703043Y51444D01*
X702122Y49778D01*
X700835Y48375D01*
X699255Y47313D01*
X697470Y46651D01*
X695580Y46426D01*
X693690Y46651D01*
X691905Y47313D01*
X690325Y48375D01*
X689038Y49778D01*
X688117Y51444D01*
X687612Y53280D01*
X687581Y54231D01*
X687580Y54326D01*
Y104857D01*
X687408Y105234D01*
X687011Y105352D01*
X686661Y105130D01*
X685905Y103968D01*
X684032Y101923D01*
X681849Y100213D01*
X679415Y98884D01*
X676797Y97972D01*
X674064Y97502D01*
X671291Y97485D01*
X668553Y97924D01*
X667239Y98365D01*
X666788Y98297D01*
X666580Y97891D01*
Y33893D01*
X666726Y33540D01*
X667080Y33393D01*
X707680D01*
X708033Y33540D01*
X708180Y33893D01*
Y283693D01*
G37*
G74*
*
*
G04 PC Copper Outlines (7)*
G04 Layer Name USBRS232_final.pcb - dark (7)*
%LPD*%
*
*
G04 PC Area=ANP000013*
G75*
G36*
G01*
X683580Y100544D02*
X683449Y100882D01*
X683124Y101042D01*
X682776Y100941D01*
X681640Y100074D01*
X679108Y98747D01*
X676387Y97868D01*
X673557Y97461D01*
X670699Y97538D01*
X667896Y98096D01*
X665226Y99121D01*
X662769Y100581D01*
X660593Y102436D01*
X658762Y104632D01*
X657328Y107105D01*
X656333Y109785D01*
X655805Y112595D01*
X655759Y115454D01*
X656197Y118279D01*
X656651Y119634D01*
X656583Y120085D01*
X656177Y120293D01*
X638080D01*
X637726Y120147D01*
X637580Y119793D01*
Y119530D01*
X637730Y118593D01*
Y112993D01*
X637580Y112056D01*
Y104530D01*
X637730Y103593D01*
Y97993D01*
X637580Y97056D01*
Y95543D01*
X637680Y95243D01*
X638051Y94748D01*
X638566Y93622D01*
X638830Y92412D01*
Y91174D01*
X638566Y89964D01*
X638051Y88839D01*
X637680Y88343D01*
X637580Y88043D01*
Y86293D01*
X634830D01*
X634690Y86273D01*
X633901Y86043D01*
X632258D01*
X631470Y86273D01*
X631330Y86293D01*
X631080D01*
X630726Y86147D01*
X630580Y85793D01*
Y80293D01*
X627882D01*
X627498Y80113D01*
X626957Y79463D01*
X625546Y78530D01*
X623926Y78043D01*
X622234D01*
X620614Y78530D01*
X619203Y79463D01*
X618662Y80113D01*
X618278Y80293D01*
X599494D01*
X599141Y80147D01*
X596476Y77483D01*
X596330Y77129D01*
Y75746D01*
X595949Y74827D01*
X595246Y74124D01*
X594327Y73743D01*
X592944D01*
X592591Y73597D01*
X588093Y69099D01*
X587952Y68673D01*
X588017Y67793D01*
Y67239D01*
X587813Y66148D01*
X587614Y65630D01*
X587580Y65450D01*
Y52136D01*
X587614Y51956D01*
X587881Y51265D01*
X588063Y49793D01*
X587881Y48322D01*
X587614Y47630D01*
X587580Y47450D01*
Y33893D01*
X587726Y33540D01*
X588080Y33393D01*
X683080D01*
X683433Y33540D01*
X683580Y33893D01*
Y100544D01*
G37*
G74*
*
*
G04 PC Copper Outlines (8)*
G04 Layer Name USBRS232_final.pcb - dark (8)*
%LPD*%
*
*
G04 PC Area=ANP000012*
G75*
G36*
G01*
X690580Y247793D02*
X690433Y248147D01*
X690080Y248293D01*
X667080D01*
X666726Y248147D01*
X666580Y247793D01*
Y232793D01*
X666726Y232440D01*
X667080Y232293D01*
X690080D01*
X690433Y232440D01*
X690580Y232793D01*
Y247793D01*
G37*
G74*
*
*
G04 PC Copper Outlines (9)*
G04 Layer Name USBRS232_final.pcb - dark (9)*
%LPD*%
*
*
G04 PC Area=ANP000011*
G75*
G36*
G01*
X690580Y186793D02*
X690433Y187147D01*
X690080Y187293D01*
X667080D01*
X666726Y187147D01*
X666580Y186793D01*
Y171793D01*
X666726Y171440D01*
X667080Y171293D01*
X690080D01*
X690433Y171440D01*
X690580Y171793D01*
Y186793D01*
G37*
G74*
*
*
G04 PC Copper Outlines (10)*
G04 Layer Name USBRS232_final.pcb - dark (10)*
%LPD*%
*
*
G04 PC Area=Custom_Thermal*
*
G04 PC Custom Flashes*
G04 Layer Name USBRS232_final.pcb - flashes*
%LPD*%
*
*
G04 PC Circuitry*
G04 Layer Name USBRS232_final.pcb - circuitry*
%LPD*%
*
G54D10*
G01X604230Y223993D02*
X605930D01*
X604230Y231593D02*
X605930D01*
X587880Y146943D02*
Y148643D01*
X580280Y146943D02*
Y148643D01*
X654880Y206943D02*
Y208643D01*
X647280Y206943D02*
Y208643D01*
X640880Y99943D02*
Y101643D01*
X633280Y99943D02*
Y101643D01*
X615930Y225093D02*
X614230D01*
X615930Y217493D02*
X614230D01*
X629930Y207593D02*
X628230D01*
X629930Y199993D02*
X628230D01*
X615930Y240093D02*
X614230D01*
X615930Y232493D02*
X614230D01*
X615930Y255093D02*
X614230D01*
X615930Y247493D02*
X614230D01*
X598280Y95643D02*
Y93943D01*
X605880Y95643D02*
Y93943D01*
X606280Y210393D02*
Y209193D01*
X613880Y210393D02*
Y209193D01*
X574880Y225193D02*
Y226393D01*
X567280Y225193D02*
Y226393D01*
X639880Y184193D02*
Y185393D01*
X632280Y184193D02*
Y185393D01*
X591880Y78193D02*
Y79393D01*
X584280Y78193D02*
Y79393D01*
X598880Y86193D02*
Y87393D01*
X591280Y86193D02*
Y87393D01*
X564680Y87593D02*
X563480D01*
X564680Y79993D02*
X563480D01*
X576680Y87593D02*
X575480D01*
X576680Y79993D02*
X575480D01*
X585930Y234593D02*
X584230D01*
X585930Y226993D02*
X584230D01*
X640880Y114943D02*
Y116643D01*
X633280Y114943D02*
Y116643D01*
G54D11*
X671080Y140793D02*
Y154557D01*
G54D12*
X572143Y49793D03*
Y67793D03*
G54D13*
X628080Y158793D03*
G54D14*
X584080Y202793D03*
X560830Y39793D02*
X588017D01*
X604080Y55856*
Y72793*
X560830Y39793D02*
X552080Y48543D01*
Y121793*
X707080Y42793D02*
X682580D01*
X675580Y49793*
Y56293*
X707080Y42793D02*
Y238793D01*
X685080*
X707080Y42793D02*
Y263793D01*
X690080Y280793*
X642080*
X707080Y42793D02*
Y179468D01*
X685035*
X675580Y56293D02*
X660830D01*
X652080Y65043*
Y72793*
X695580Y56293D02*
X695080D01*
Y121793*
X676080Y140793*
X671080*
X552080Y121793D02*
Y167793D01*
X568080Y183793*
X605080*
X567080Y120793D02*
X552080D01*
Y121793*
X591080Y147793D02*
X617080D01*
X628080Y158793*
X671080Y154557D02*
X675991Y159468D01*
X685035*
X671080Y175030D02*
Y179468D01*
X685035*
X671080*
X685035Y199468D02*
X674080D01*
X671080Y202468*
Y204030*
Y215557D02*
X674316Y218793D01*
X685080*
X576680Y234593D02*
X581080D01*
X595180Y248693*
X585080Y234593D02*
X581080D01*
X671080Y236030D02*
Y238793D01*
X685080*
X671080*
Y244557*
X595180Y248693D02*
X601280Y254793D01*
X614780*
X615080Y255093D02*
X616380D01*
X642080Y280793*
X685080Y258793D02*
X679080Y264793D01*
X671080*
Y265030*
G54D17*
X572143Y49793D02*
X564080Y57856D01*
Y79993*
X572080Y67856D02*
Y75993D01*
X576080Y79993*
X582017Y67793D02*
X584080Y69856D01*
Y78593*
X584280Y78793*
Y93968*
X591880Y78793D02*
Y86793D01*
X563080Y87793D02*
X570080Y94793D01*
X576255*
X591280Y86793D02*
Y96793D01*
X604080Y80993D02*
X598880Y86193D01*
Y86793D02*
Y94793D01*
X623080Y83793D02*
X619080D01*
X613930Y88793*
Y95818*
X605655Y104093*
X623080Y91793D02*
Y99793D01*
X607080Y115793*
X580155Y116793D02*
X577605D01*
X573605Y120793*
X567080*
X590355Y116793D02*
X580155D01*
X603105Y115793D02*
X607080D01*
X570580Y126793D02*
X580580D01*
X582705Y128918*
X570580Y126793D02*
X568080Y129293D01*
Y156793*
X589080Y177793*
X610080*
X612080Y179793*
X572505Y143793D02*
Y152368D01*
X593930Y173793*
X614080*
X619080Y178793*
X633980*
X671080Y179468D02*
X659180D01*
X657080Y181568*
Y200593*
X654880Y202793*
Y207793*
X612080Y191793D02*
X606080Y197793D01*
Y209593*
X606280Y209793D02*
Y222793D01*
X654880Y207793D02*
Y217193D01*
X650780Y221293*
X671080Y204030D02*
X662680D01*
X660580Y206130*
Y221493*
X650780Y231293*
X626880Y216293D02*
X621105D01*
X619905Y217493*
X615080*
X671080Y216793D02*
X658080Y229793D01*
Y251793*
X653580Y256293*
X643080*
X567280Y225793D02*
Y232793D01*
X574880Y225793D02*
Y226993D01*
X585080*
X591080*
X596880Y232793*
Y238593*
X615080Y225093D02*
X619380D01*
X620580Y226293*
X626880*
X605080Y231993D02*
Y242793D01*
X626880Y236293D02*
X619730D01*
X615930Y240093*
X615080*
X626880Y231293D02*
X621105D01*
X619905Y232493*
X615080*
X626880Y246293D02*
X633080D01*
X643080Y256293*
X626880Y241293D02*
X624380D01*
X621813Y243860*
X619563*
X615930Y247493*
X615080*
X648280Y241293D02*
Y246293D01*
X629380Y251293D02*
X643116Y265030D01*
X671080*
G54D18*
X647280Y214793D02*
Y215293D01*
X648280Y216293*
G54D19*
X604080Y72793D02*
X640880D01*
Y100793*
X652080Y72793D02*
X640880D01*
Y100793*
X633080Y83793D02*
X640880D01*
Y100793*
X633080Y91793D02*
X633280Y91993D01*
Y100793*
Y115793*
Y121793*
X605080D02*
X633280D01*
Y124230*
X649844Y140793*
X580280Y147793D02*
X580080Y147993D01*
Y152793*
X596080Y168793*
X615775*
X620775Y173793*
X644080*
X649844Y140793D02*
Y168793D01*
X644844Y173793*
X644080D02*
X647080Y176793D01*
Y199793*
X614080Y209593D02*
Y199793D01*
X628880*
X647280Y200093D02*
Y207793D01*
Y214793*
G54D20*
X572143Y67793D02*
X572080Y67856D01*
X604080Y72793D02*
Y80993D01*
X564080Y87593D02*
X563080Y87793D01*
X576080Y87593D02*
Y90293D01*
X587805Y102018*
Y108793*
X591880Y86793D02*
X591280D01*
X598880Y86193D02*
Y86793D01*
X576255Y94793D02*
X585255Y103793D01*
Y108793*
X584280Y93968D02*
X592905Y102593D01*
Y108793*
X591280Y96793D02*
X595455Y100793D01*
Y108793*
X598280Y94793D02*
X598005Y95068D01*
Y108793*
X598880Y94793D02*
X598280D01*
X605880D02*
X605080Y95593D01*
Y99268*
X600555Y103793*
Y108793*
X577605D02*
Y116793D01*
X573605Y120793*
X567080*
X580155Y108793D02*
Y116793D01*
X577605*
X573605Y120793*
X567080*
X590355Y108793D02*
Y116793D01*
X592905Y108793D02*
Y113793D01*
X600905Y121793*
X605080*
X605655Y104093D02*
Y108793D01*
X603105D02*
Y115793D01*
X640880Y100793D02*
Y115793D01*
X580155Y116793D02*
X587805D01*
Y136793*
X582705Y128918D02*
Y136793D01*
X572505D02*
Y143793D01*
X587805Y136793D02*
X587880Y147793D01*
X580155Y136793D02*
X580280Y147793D01*
X587880D02*
X591080D01*
X612080Y179793D02*
Y186793D01*
X613080Y187793*
X625550*
X628550Y190793*
X635586Y197793*
Y241100*
X645780Y251293*
X648280*
X633980Y178793D02*
X636080Y180893D01*
Y191793*
X638080Y193793*
Y233793*
X645580Y241293*
X648280*
X644844Y173793D02*
X644080D01*
X644844*
X671080Y175030D02*
Y183557D01*
X605080Y183793D02*
X608080D01*
X616080D02*
X632280D01*
Y184793*
X639880D02*
X640580D01*
Y231093*
X645780Y236293*
X648280*
X628880Y199793D02*
X629080Y199993D01*
X647080Y199793D02*
X646980D01*
X647280Y200093*
X606080Y209593D02*
X606280Y209793D01*
X614080Y209593D02*
X613880Y209793D01*
X629080Y207593D02*
X633080Y211593D01*
Y219193*
X630980Y221293*
X626880*
X671080Y215557D02*
Y216793D01*
X606280Y222793D02*
X605080Y223993D01*
X650780Y221293D02*
X648280D01*
X567280Y232793D02*
X566080Y233993D01*
X576080D02*
X576680Y234593D01*
X596880Y238593D02*
X597080Y238793D01*
X605080Y231593D02*
X604880Y231793D01*
X605080Y231993*
X650780Y231293D02*
X648280D01*
X597080Y246793D02*
X595180Y248693D01*
X614780Y254793D02*
X615080Y255093D01*
X626880Y251293D02*
X629380D01*
G54D25*
X548517Y219793D02*
X553205D01*
X554142Y219566*
X554767Y219111*
X555080Y218430*
Y217975*
X554767Y217293*
X554142Y216839*
X553205Y216611*
X548517*
X549455Y211384D02*
X548830Y211839D01*
X548517Y212521*
Y213430*
X548830Y214111*
X549455Y214566*
X550080*
X550705Y214339*
X551017Y214111*
X551330Y213657*
X551955Y212293*
X552267Y211839*
X552580Y211611*
X553205Y211384*
X554142*
X554767Y211839*
X555080Y212521*
Y213430*
X554767Y214111*
X554142Y214566*
X548517Y209339D02*
X555080D01*
X548517D02*
Y207293D01*
X548830Y206611*
X549142Y206384*
X549767Y206157*
X550392*
X551017Y206384*
X551330Y206611*
X551642Y207293*
Y209339D02*
Y207293D01*
X551955Y206611*
X552267Y206384*
X552892Y206157*
X553830*
X554455Y206384*
X554767Y206611*
X555080Y207293*
Y209339*
X550705Y204111D02*
X555080D01*
X551955D02*
X551017Y203430D01*
X550705Y202975*
Y202293*
X551017Y201839*
X551955Y201611*
X555080*
X551955D02*
X551017Y200930D01*
X550705Y200475*
Y199793*
X551017Y199339*
X551955Y199111*
X555080*
X550705Y197066D02*
X555080D01*
X552580D02*
X551642Y196839D01*
X551017Y196384*
X550705Y195930*
Y195248*
Y190475D02*
X555080D01*
X551642D02*
X551017Y190930D01*
X550705Y191384*
Y192066*
X551017Y192521*
X551642Y192975*
X552580Y193202*
X553205*
X554142Y192975*
X554767Y192521*
X555080Y192066*
Y191384*
X554767Y190930*
X554142Y190475*
X548517Y188430D02*
X555080D01*
X550705Y186157D02*
X553830Y188430D01*
X552580Y187521D02*
X555080Y185930D01*
X548517Y181611D02*
X552892Y183884D01*
Y180475*
X548517Y181611D02*
X555080D01*
X560080Y219566D02*
X559767D01*
X559142Y219339*
X558830Y219111*
X558517Y218657*
Y217748*
X558830Y217293*
X559142Y217066*
X559767Y216839*
X560392*
X561017Y217066*
X561955Y217521*
X565080Y219793*
Y216611*
X558517Y213202D02*
X558830Y213884D01*
X559767Y214339*
X561330Y214566*
X562267*
X563830Y214339*
X564767Y213884*
X565080Y213202*
Y212748*
X564767Y212066*
X563830Y211611*
X562267Y211384*
X561330*
X559767Y211611*
X558830Y212066*
X558517Y212748*
Y213202*
Y207975D02*
X558830Y208657D01*
X559767Y209111*
X561330Y209339*
X562267*
X563830Y209111*
X564767Y208657*
X565080Y207975*
Y207521*
X564767Y206839*
X563830Y206384*
X562267Y206157*
X561330*
X559767Y206384*
X558830Y206839*
X558517Y207521*
Y207975*
X560705Y201157D02*
X561642Y201384D01*
X562267Y201839*
X562580Y202521*
Y202748*
X562267Y203430*
X561642Y203884*
X560705Y204111*
X560392*
X559455Y203884*
X558830Y203430*
X558517Y202748*
Y202521*
X558830Y201839*
X559455Y201384*
X560705Y201157*
X562267*
X563830Y201384*
X564767Y201839*
X565080Y202521*
Y202975*
X564767Y203657*
X564142Y203884*
X570921Y102293D02*
Y102512D01*
X570762Y102950*
X570603Y103168*
X570284Y103387*
X569648*
X569330Y103168*
X569171Y102950*
X569012Y102512*
Y102075*
X569171Y101637*
X569489Y100981*
X571080Y98793*
X568853*
X566625Y103387D02*
X567103Y103168D01*
X567262Y102731*
Y102293*
X567103Y101856*
X566784Y101637*
X566148Y101418*
X565671Y101200*
X565353Y100762*
X565194Y100325*
Y99668*
X565353Y99231*
X565512Y99012*
X565989Y98793*
X566625*
X567103Y99012*
X567262Y99231*
X567421Y99668*
Y100325*
X567262Y100762*
X566944Y101200*
X566466Y101418*
X565830Y101637*
X565512Y101856*
X565353Y102293*
Y102731*
X565512Y103168*
X565989Y103387*
X566625*
X626799Y212793D02*
X627017Y213111D01*
X627674Y213589*
X623080*
X589580Y257793D02*
Y283693D01*
G75*
G03X589080Y284193I-500J0D01*
G01X575080*
G03X574580Y283693I-0J-500*
G01Y257793*
G03X575080Y257293I500J0*
G01X589080*
G03X589580Y257793I-0J500*
G01X690580Y193793D02*
Y206793D01*
G03X690080Y207293I-500J0*
G01X667080*
G03X666580Y206793I-0J-500*
G01Y193793*
G03X667080Y193293I500J0*
G01X690080*
G03X690580Y193793I-0J500*
G01Y212793D02*
Y225793D01*
G03X690080Y226293I-500J0*
G01X667080*
G03X666580Y225793I-0J-500*
G01Y212793*
G03X667080Y212293I500J0*
G01X690080*
G03X690580Y212793I-0J500*
G01Y254793D02*
Y267793D01*
G03X690080Y268293I-500J0*
G01X667080*
G03X666580Y267793I-0J-500*
G01Y254793*
G03X667080Y254293I500J0*
G01X690080*
G03X690580Y254793I-0J500*
G01X567580Y257793D02*
Y283693D01*
G03X567080Y284193I-500J0*
G01X552080*
G03X551580Y283693I-0J-500*
G01Y257793*
G03X552080Y257293I500J0*
G01X567080*
G03X567580Y257793I-0J500*
G01X700580Y54334D02*
Y125379D01*
G03X700433Y125733I-500J0*
G01X690580Y135586*
Y163793*
G03X690080Y164293I-500J0*
G01X667080*
G03X666580Y163793I-0J-500*
G01Y136793*
G03X667080Y136293I500J0*
G01X676287*
X690580Y122000*
Y54334*
G03Y54318I500J0*
X700580I5000J167*
Y54334I-500J16*
G01X708180Y33893D02*
Y283693D01*
G03X707680Y284193I-500J0*
G01X667080*
G03X666580Y283693I-0J-500*
G01Y271967*
G03X667080Y271467I500J-0*
G01X676001*
X676838Y271322D02*
G03X676001Y271467I-837J-2355D01*
G01X676838Y271322D02*
G03X677006Y271293I168J471D01*
G01X690580*
X693580Y268293D02*
G03X690580Y271293I-3000J0D01*
G01X693580Y268293D02*
Y254293D01*
X690580Y251293D02*
G03X693580Y254293I-0J3000D01*
G01X690580Y251293D02*
X667080D01*
G03X666580Y250793I-0J-500*
G01Y229793*
G03X667080Y229293I500J0*
G01X690580*
X693580Y226293D02*
G03X690580Y229293I-3000J0D01*
G01X693580Y226293D02*
Y212293D01*
X692679Y210150D02*
G03X693580Y212293I-2099J2143D01*
G01X692679Y210150D02*
G03Y209436I350J-357D01*
G01X693580Y207293D02*
G03X692679Y209436I-3000J0D01*
G01X693580Y207293D02*
Y193293D01*
X690580Y190293D02*
G03X693580Y193293I-0J3000D01*
G01X690580Y190293D02*
X667080D01*
G03X666580Y189793I-0J-500*
G01Y167793*
G03X667080Y167293I500J0*
G01X690580*
X693580Y164293D02*
G03X690580Y167293I-3000J0D01*
G01X693580Y164293D02*
Y137036D01*
G03X693726Y136682I500J-0*
G01X702701Y127708*
X703580Y125586D02*
G03X702701Y127708I-3000J0D01*
G01X703580Y125586D02*
Y54326D01*
X703578Y54231D02*
G03X703580Y54326I-2998J95D01*
G01X687581Y54231D02*
G03X703578I7999J254D01*
G01X687580Y54326D02*
G03X687581Y54231I3000J0D01*
G01X687580Y54326D02*
Y104857D01*
G03X686661Y105130I-500J0*
G01X667239Y98365D02*
G03X686661Y105130I5341J15928D01*
G01X667239Y98365D02*
G03X666580Y97891I-159J-474D01*
G01Y33893*
G03X667080Y33393I500J0*
G01X707680*
G03X708180Y33893I-0J500*
G01X683580D02*
Y100544D01*
G03X682776Y100941I-500J0*
G01X656651Y119634D02*
G03X682776Y100941I15929J-5341D01*
G01X656651Y119634D02*
G03X656177Y120293I-474J159D01*
G01X638080*
G03X637580Y119793I-0J-500*
G01Y119530*
G03X637605Y119374I500J0*
G01X637730Y118593D02*
G03X637605Y119374I-2500J0D01*
G01X637730Y118593D02*
Y112993D01*
X637605Y112213D02*
G03X637730Y112993I-2375J780D01*
G01X637605Y112213D02*
G03X637580Y112056I475J-157D01*
G01Y104530*
G03X637605Y104374I500J0*
G01X637730Y103593D02*
G03X637605Y104374I-2500J0D01*
G01X637730Y103593D02*
Y97993D01*
X637605Y97213D02*
G03X637730Y97993I-2375J780D01*
G01X637605Y97213D02*
G03X637580Y97056I475J-157D01*
G01Y95543*
G03X637680Y95243I500J0*
G01Y88343D02*
G03Y95243I-4600J3450D01*
G01Y88343D02*
G03X637580Y88043I400J-300D01*
G01Y86293*
X634830*
G03X634690Y86273I-0J-500*
G01X631470D02*
G03X634690I1610J5520D01*
G01X631470D02*
G03X631330Y86293I-140J-480D01*
G01X631080*
G03X630580Y85793I-0J-500*
G01Y80293*
X627882*
G03X627498Y80113I0J-500*
G01X618662D02*
G03X627498I4418J3680D01*
G01X618662D02*
G03X618278Y80293I-384J-320D01*
G01X599494*
G03X599141Y80147I0J-500*
G01X596476Y77483*
G03X596330Y77129I354J-354*
G01Y76243*
X593830Y73743D02*
G03X596330Y76243I-0J2500D01*
G01X593830Y73743D02*
X592944D01*
G03X592591Y73597I0J-500*
G01X588093Y69099*
G03X587952Y68673I354J-353*
G01X587614Y65630D02*
G03X587952Y68673I-5597J2163D01*
G01X587614Y65630D02*
G03X587580Y65450I466J-180D01*
G01Y52136*
G03X587614Y51956I500J0*
G01Y47630D02*
G03Y51956I-5597J2163D01*
G01Y47630D02*
G03X587580Y47450I466J-180D01*
G01Y33893*
G03X588080Y33393I500J0*
G01X683080*
G03X683580Y33893I-0J500*
G01X690580Y232793D02*
Y247793D01*
G03X690080Y248293I-500J0*
G01X667080*
G03X666580Y247793I-0J-500*
G01Y232793*
G03X667080Y232293I500J0*
G01X690080*
G03X690580Y232793I-0J500*
G01Y171793D02*
Y186793D01*
G03X690080Y187293I-500J0*
G01X667080*
G03X666580Y186793I-0J-500*
G01Y171793*
G03X667080Y171293I500J0*
G01X690080*
G03X690580Y171793I-0J500*
G01X687380Y114293D02*
G03X687380I-14800J0D01*
G01X598380Y203293D02*
G03X598380I-14800J0D01*
G54D31*
G01X582017Y49793D03*
Y67793D03*
X614080Y199793D03*
X647080D03*
G54D35*
X633080Y91793D03*
X623080D03*
Y83793D03*
X633080D03*
G54D40*
X673080Y113793D03*
G54D43*
X597080Y238793D03*
Y246793D03*
X605080Y242793D03*
X616080Y183793D03*
X608080D03*
X612080Y191793D03*
G54D44*
X670316Y141778D02*
Y139809D01*
X649844Y141778D02*
Y139809D01*
X672064Y154557D02*
X670096D01*
X672064Y175030D02*
X670096D01*
Y204030D02*
X672064D01*
X670096Y183557D02*
X672064D01*
Y215557D02*
X670096D01*
X672064Y236030D02*
X670096D01*
Y265030D02*
X672064D01*
X670096Y244557D02*
X672064D01*
G54D45*
X581080Y265793D03*
X561080D03*
X685035Y159468D03*
Y179468D03*
Y199468D03*
X685080Y218793D03*
Y238793D03*
Y258793D03*
X675580Y56293D03*
X695580D03*
G54D46*
X604080Y72793D03*
X652080D03*
G54D47*
X572505Y139393D02*
Y134193D01*
X575055Y139393D02*
Y134193D01*
X577605Y139393D02*
Y134193D01*
X580155Y139393D02*
Y134193D01*
X582705Y139393D02*
Y134193D01*
X585255Y139393D02*
Y134193D01*
X587805Y139393D02*
Y134193D01*
X590355Y139393D02*
Y134193D01*
X592905Y139393D02*
Y134193D01*
X595455Y139393D02*
Y134193D01*
X598005Y139393D02*
Y134193D01*
X600555Y139393D02*
Y134193D01*
X603105Y139393D02*
Y134193D01*
X605655Y139393D02*
Y134193D01*
Y111393D02*
Y106193D01*
X603105Y111393D02*
Y106193D01*
X600555Y111393D02*
Y106193D01*
X598005Y111393D02*
Y106193D01*
X595455Y111393D02*
Y106193D01*
X592905Y111393D02*
Y106193D01*
X590355Y111393D02*
Y106193D01*
X587805Y111393D02*
Y106193D01*
X585255Y111393D02*
Y106193D01*
X582705Y111393D02*
Y106193D01*
X580155Y111393D02*
Y106193D01*
X577605Y111393D02*
Y106193D01*
X575055Y111393D02*
Y106193D01*
X572505Y111393D02*
Y106193D01*
G54D48*
X624380Y216293D02*
X629380D01*
X624380Y221293D02*
X629380D01*
X624380Y226293D02*
X629380D01*
X624380Y231293D02*
X629380D01*
X624380Y236293D02*
X629380D01*
X624380Y241293D02*
X629380D01*
X624380Y246293D02*
X629380D01*
X624380Y251293D02*
X629380D01*
X645780D02*
X650780D01*
X645780Y246293D02*
X650780D01*
X645780Y241293D02*
X650780D01*
X645780Y236293D02*
X650780D01*
X645780Y231293D02*
X650780D01*
X645780Y226293D02*
X650780D01*
X645780Y221293D02*
X650780D01*
X645780Y216293D02*
X650780D01*
X582017Y49793D02*
Y67793D01*
G54D49*
X576080Y233293D02*
Y234693D01*
X566080Y233293D02*
Y234693D01*
Y258893D02*
Y260293D01*
X576080Y258893D02*
Y260293D01*
G74*
X0Y0D02*
M02*
