%
T1C.025F197S55
X019Y0165
X02Y0165
X02Y0173
X019Y0173
T2C.035F197S55
X013906Y0131
X014894Y0131
X013906Y0149
X014894Y0149
T3C.037F197S55
X0181Y0281
X0214Y0281
T4C.04F139S55
X02425Y01375
X025196Y024068
X025196Y026068
X025196Y028068
X0252Y03
X0252Y032
X0252Y034
X0128Y0347
X0148Y0347
X02625Y01375
T5C.09F066S55
X0171Y0154
X0219Y0154
T6C.12598F035S794
X0195Y024
M30
