*
*
G04 PADS Layout (Build Number 2008.43.1) generated Gerber (RS-274-X) file*
G04 PC Version=2.1*
*
%IN "USBRS232_final.pcb"*%
*
%MOIN*%
*
%FSLAX35Y35*%
*
*
*
*
G04 PC Standard Apertures*
*
*
G04 Thermal Relief Aperture macro.*
%AMTER*
1,1,$1,0,0*
1,0,$1-$2,0,0*
21,0,$3,$4,0,0,45*
21,0,$3,$4,0,0,135*
%
*
*
G04 Annular Aperture macro.*
%AMANN*
1,1,$1,0,0*
1,0,$2,0,0*
%
*
*
G04 Odd Aperture macro.*
%AMODD*
1,1,$1,0,0*
1,0,$1-0.005,0,0*
%
*
*
G04 PC Custom Aperture Macros*
*
*
*
*
*
*
G04 PC Aperture Table*
*
%ADD023C,0.007*%
%ADD024C,0.001*%
%ADD025C,0.01*%
%ADD026C,0.00787*%
%ADD036C,0.008*%
*
*
*
*
G04 PC Circuitry*
G04 Layer Name USBRS232_final.pcb - circuitry*
%LPD*%
*
*
G04 PC Custom Flashes*
G04 Layer Name USBRS232_final.pcb - flashes*
%LPD*%
*
*
G04 PC Circuitry*
G04 Layer Name USBRS232_final.pcb - circuitry*
%LPD*%
*
G54D23*
G01X220909Y283594D02*
Y279000D01*
Y281406D02*
X220591Y281844D01*
X220273Y282063*
X220273D02*
X219795D01*
X219795D02*
X219477Y281844D01*
X219159Y281406*
X219000Y280750*
Y280313*
X219000D02*
X219159Y279656D01*
X219477Y279219*
X219795Y279000*
X220273*
X220591Y279219*
X220909Y279656*
X223136Y282063D02*
X222818Y281844D01*
X222500Y281406*
X222341Y280750*
Y280313*
X222341D02*
X222500Y279656D01*
X222818Y279219*
X223136Y279000*
X223614*
X223932Y279219*
X224250Y279656*
X224409Y280313*
X224409D02*
Y280750D01*
X224250Y281406*
X223932Y281844*
X223614Y282063*
X223614D02*
X223136D01*
X225841D02*
Y279000D01*
Y281188D02*
X226318Y281844D01*
X226636Y282063*
X226636D02*
X227114D01*
X227114D02*
X227432Y281844D01*
X227591Y281188*
X227591D02*
Y279000D01*
Y281188D02*
X228068Y281844D01*
X228386Y282063*
X228386D02*
X228864D01*
X228864D02*
X229182Y281844D01*
X229341Y281188*
X229341D02*
Y279000D01*
X230773Y280750D02*
X232682D01*
Y281188*
X232682D02*
X232523Y281625D01*
X232364Y281844*
X232045Y282063*
X232045D02*
X231568D01*
X231568D02*
X231250Y281844D01*
X230932Y281406*
X230773Y280750*
Y280313*
X230773D02*
X230932Y279656D01*
X231250Y279219*
X231568Y279000*
X232045*
X232364Y279219*
X232682Y279656*
G54D24*
G54D25*
X118364Y301563D02*
X117909Y301250D01*
X117455Y300625*
X117227Y300000*
X117000Y299063*
X117000D02*
Y297500D01*
X117227Y296563*
X117227D02*
X117455Y295938D01*
X117455D02*
X117909Y295313D01*
X117909D02*
X118364Y295000D01*
X119273*
X119727Y295313*
X119727D02*
X120182Y295938D01*
X120182D02*
X120409Y296563D01*
X120409D02*
X120636Y297500D01*
Y299063*
X120636D02*
X120409Y300000D01*
X120182Y300625*
X119727Y301250*
X119273Y301563*
X119273D02*
X118364D01*
X122682Y299375D02*
Y292812D01*
Y298438D02*
X123136Y299063D01*
X123136D02*
X123591Y299375D01*
X124273*
X124727Y299063*
X124727D02*
X125182Y298438D01*
X125182D02*
X125409Y297500D01*
Y296875*
X125182Y295938*
X125182D02*
X124727Y295313D01*
X124727D02*
X124273Y295000D01*
X123591*
X123136Y295313*
X123136D02*
X122682Y295938D01*
X127455Y297500D02*
X130182D01*
Y298125*
X129955Y298750*
X129727Y299063*
X129727D02*
X129273Y299375D01*
X128591*
X128136Y299063*
X128136D02*
X127682Y298438D01*
X127682D02*
X127455Y297500D01*
Y296875*
X127682Y295938*
X127682D02*
X128136Y295313D01*
X128136D02*
X128591Y295000D01*
X129273*
X129727Y295313*
X129727D02*
X130182Y295938D01*
X132227Y299375D02*
Y295000D01*
Y298125D02*
X132909Y299063D01*
X132909D02*
X133364Y299375D01*
X134045*
X134500Y299063*
X134500D02*
X134727Y298125D01*
Y295000*
X142000Y301563D02*
Y295000D01*
Y301563D02*
X143591D01*
X143591D02*
X144273Y301250D01*
X144727Y300625*
X144955Y300000*
X145182Y299063*
X145182D02*
Y297500D01*
X144955Y296563*
X144955D02*
X144727Y295938D01*
X144727D02*
X144273Y295313D01*
X144273D02*
X143591Y295000D01*
X142000*
X148591Y301563D02*
X148136Y301250D01*
X147682Y300625*
X147455Y300000*
X147227Y299063*
X147227D02*
Y297500D01*
X147455Y296563*
X147455D02*
X147682Y295938D01*
X147682D02*
X148136Y295313D01*
X148136D02*
X148591Y295000D01*
X149500*
X149955Y295313*
X149955D02*
X150409Y295938D01*
X150409D02*
X150636Y296563D01*
X150636D02*
X150864Y297500D01*
Y299063*
X150864D02*
X150636Y300000D01*
X150409Y300625*
X149955Y301250*
X149500Y301563*
X149500D02*
X148591D01*
X152909D02*
Y295000D01*
Y301563D02*
X154727Y295000D01*
X156545Y301563D02*
X154727Y295000D01*
X156545Y301563D02*
Y295000D01*
X158591Y301563D02*
Y295000D01*
Y301563D02*
X161545D01*
X158591Y298438D02*
X160409D01*
X158591Y295000D02*
X161545D01*
X150409Y325000D02*
X150182Y325625D01*
X149727Y326250*
X149273Y326563*
X149273D02*
X148364D01*
X148364D02*
X147909Y326250D01*
X147455Y325625*
X147227Y325000*
X147000Y324063*
X147000D02*
Y322500D01*
X147227Y321563*
X147227D02*
X147455Y320938D01*
X147455D02*
X147909Y320313D01*
X147909D02*
X148364Y320000D01*
X149273*
X149727Y320313*
X149727D02*
X150182Y320938D01*
X150182D02*
X150409Y321563D01*
X127000Y326563D02*
Y320000D01*
Y326563D02*
X129955D01*
X127000Y323438D02*
X128818D01*
X127000Y320000D02*
X129955D01*
X221409Y323000D02*
X221182Y323625D01*
X220727Y324250*
X220273Y324563*
X220273D02*
X219364D01*
X219364D02*
X218909Y324250D01*
X218455Y323625*
X218227Y323000*
X218000Y322063*
X218000D02*
Y320500D01*
X218227Y319563*
X218227D02*
X218455Y318938D01*
X218455D02*
X218909Y318313D01*
X218909D02*
X219364Y318000D01*
X220273*
X220727Y318313*
X220727D02*
X221182Y318938D01*
X221182D02*
X221409Y319563D01*
X221409D02*
Y320500D01*
X220273D02*
X221409D01*
X223455Y324563D02*
Y318000D01*
Y324563D02*
X226636Y318000D01*
Y324563D02*
Y318000D01*
X228682Y324563D02*
Y318000D01*
Y324563D02*
X230273D01*
X230273D02*
X230955Y324250D01*
X231409Y323625*
X231636Y323000*
X231864Y322063*
X231864D02*
Y320500D01*
X231636Y319563*
X231636D02*
X231409Y318938D01*
X231409D02*
X230955Y318313D01*
X230955D02*
X230273Y318000D01*
X228682*
X221409Y263000D02*
X221182Y263625D01*
X220727Y264250*
X220273Y264563*
X220273D02*
X219364D01*
X219364D02*
X218909Y264250D01*
X218455Y263625*
X218227Y263000*
X218000Y262063*
X218000D02*
Y260500D01*
X218227Y259563*
X218227D02*
X218455Y258938D01*
X218455D02*
X218909Y258313D01*
X218909D02*
X219364Y258000D01*
X220273*
X220727Y258313*
X220727D02*
X221182Y258938D01*
X221182D02*
X221409Y259563D01*
X221409D02*
Y260500D01*
X220273D02*
X221409D01*
X223455Y264563D02*
Y258000D01*
Y264563D02*
X226636Y258000D01*
Y264563D02*
Y258000D01*
X228682Y264563D02*
Y258000D01*
Y264563D02*
X230273D01*
X230273D02*
X230955Y264250D01*
X231409Y263625*
X231636Y263000*
X231864Y262063*
X231864D02*
Y260500D01*
X231636Y259563*
X231636D02*
X231409Y258938D01*
X231409D02*
X230955Y258313D01*
X230955D02*
X230273Y258000D01*
X228682*
X239000Y163813D02*
X243091D01*
X263045Y166625D02*
Y161000D01*
X261000Y163813D02*
X265091D01*
X221000Y342563D02*
Y336000D01*
Y342563D02*
X223045D01*
X223045D02*
X223727Y342250D01*
X223955Y341938*
X223955D02*
X224182Y341313D01*
X224182D02*
Y340688D01*
X224182D02*
X223955Y340063D01*
X223955D02*
X223727Y339750D01*
X223045Y339438*
X223045D02*
X221000D01*
X222591D02*
X224182Y336000D01*
X226227Y342563D02*
X229409Y336000D01*
Y342563D02*
X226227Y336000D01*
X221591Y302563D02*
Y296000D01*
X220000Y302563D02*
X223182D01*
X225227D02*
X228409Y296000D01*
Y302563D02*
X225227Y296000D01*
X211045Y243625D02*
Y238000D01*
X209000Y240813D02*
X213091D01*
X215136Y244563D02*
Y239875D01*
X215364Y238938*
X215364D02*
X215818Y238313D01*
X215818D02*
X216500Y238000D01*
X216955*
X217636Y238313*
X217636D02*
X218091Y238938D01*
X218091D02*
X218318Y239875D01*
Y244563*
X221500Y242375D02*
X221045Y242063D01*
X221045D02*
X220591Y241438D01*
X220591D02*
X220364Y240500D01*
Y239875*
X220591Y238938*
X220591D02*
X221045Y238313D01*
X221045D02*
X221500Y238000D01*
X222182*
X222636Y238313*
X222636D02*
X223091Y238938D01*
X223091D02*
X223318Y239875D01*
Y240500*
X223091Y241438*
X223091D02*
X222636Y242063D01*
X222636D02*
X222182Y242375D01*
X221500*
X225364D02*
Y239250D01*
X225591Y238313*
X225591D02*
X226045Y238000D01*
X226727*
X227182Y238313*
X227182D02*
X227864Y239250D01*
Y242375D02*
Y238000D01*
X230591Y244563D02*
Y239250D01*
X230818Y238313*
X230818D02*
X231273Y238000D01*
X231727*
X229909Y242375D02*
X231500D01*
X123591Y134563D02*
Y128000D01*
X122000Y134563D02*
X125182D01*
X127227D02*
X130409Y128000D01*
Y134563D02*
X127227Y128000D01*
X123000Y153563D02*
Y147000D01*
Y153563D02*
X125045D01*
X125045D02*
X125727Y153250D01*
X125955Y152938*
X125955D02*
X126182Y152313D01*
X126182D02*
Y151688D01*
X126182D02*
X125955Y151063D01*
X125955D02*
X125727Y150750D01*
X125045Y150438*
X125045D02*
X123000D01*
X124591D02*
X126182Y147000D01*
X128227Y153563D02*
X131409Y147000D01*
Y153563D02*
X128227Y147000D01*
X128625Y180000D02*
X133000D01*
X129875D02*
X128937Y180682D01*
X128937D02*
X128625Y181136D01*
Y181818*
X128937Y182273*
X128937D02*
X129875Y182500D01*
X133000*
X129875D02*
X128937Y183182D01*
X128937D02*
X128625Y183636D01*
Y184318*
X128937Y184773*
X128937D02*
X129875Y185000D01*
X133000*
X128625Y187045D02*
X133000D01*
X130500D02*
X129562Y187273D01*
X129562D02*
X128937Y187727D01*
X128937D02*
X128625Y188182D01*
Y188864*
Y193636D02*
X133000D01*
X129562D02*
X128937Y193182D01*
X128937D02*
X128625Y192727D01*
Y192045*
X128937Y191591*
X128937D02*
X129562Y191136D01*
X129562D02*
X130500Y190909D01*
X131125*
X132062Y191136*
X132062D02*
X132687Y191591D01*
X132687D02*
X133000Y192045D01*
Y192727*
X132687Y193182*
X132687D02*
X132062Y193636D01*
X126437Y195682D02*
X133000D01*
X128625Y197955D02*
X131750Y195682D01*
X130500Y196591D02*
X133000Y198182D01*
X126437Y202500D02*
X130812Y200227D01*
X130812D02*
Y203636D01*
X126437Y202500D02*
X133000D01*
X130187Y210909D02*
Y215000D01*
X126437Y222273D02*
X131125D01*
X132062Y222500*
X132062D02*
X132687Y222955D01*
X132687D02*
X133000Y223636D01*
Y224091*
X132687Y224773*
X132687D02*
X132062Y225227D01*
X132062D02*
X131125Y225455D01*
X126437*
X127375Y230682D02*
X126750Y230227D01*
X126437Y229545*
X126437D02*
Y228636D01*
X126437D02*
X126750Y227955D01*
X127375Y227500*
X128000*
X128625Y227727*
X128937Y227955*
X128937D02*
X129250Y228409D01*
X129875Y229773*
X130187Y230227*
X130187D02*
X130500Y230455D01*
X131125Y230682*
X132062*
X132062D02*
X132687Y230227D01*
X132687D02*
X133000Y229545D01*
Y228636*
X132687Y227955*
X132687D02*
X132062Y227500D01*
X126437Y232727D02*
X133000D01*
X126437D02*
Y234773D01*
X126437D02*
X126750Y235455D01*
X127062Y235682*
X127062D02*
X127687Y235909D01*
X127687D02*
X128312D01*
X128312D02*
X128937Y235682D01*
X128937D02*
X129250Y235455D01*
X129562Y234773*
Y232727D02*
Y234773D01*
X129562D02*
X129875Y235455D01*
X130187Y235682*
X130187D02*
X130812Y235909D01*
X130812D02*
X131750D01*
X132375Y235682*
X132687Y235455*
X132687D02*
X133000Y234773D01*
Y232727*
X128625Y243182D02*
X135188D01*
X129562D02*
X128937Y243636D01*
X128937D02*
X128625Y244091D01*
Y244773*
X128937Y245227*
X128937D02*
X129562Y245682D01*
X129562D02*
X130500Y245909D01*
X131125*
X132062Y245682*
X132062D02*
X132687Y245227D01*
X132687D02*
X133000Y244773D01*
Y244091*
X132687Y243636*
X132687D02*
X132062Y243182D01*
X128625Y250682D02*
X133000D01*
X129562D02*
X128937Y250227D01*
X128937D02*
X128625Y249773D01*
Y249091*
X128937Y248636*
X128937D02*
X129562Y248182D01*
X129562D02*
X130500Y247955D01*
X131125*
X132062Y248182*
X132062D02*
X132687Y248636D01*
X132687D02*
X133000Y249091D01*
Y249773*
X132687Y250227*
X132687D02*
X132062Y250682D01*
X128625Y252727D02*
X133000D01*
X130500D02*
X129562Y252955D01*
X129562D02*
X128937Y253409D01*
X128937D02*
X128625Y253864D01*
Y254545*
X126437Y257273D02*
X131750D01*
X132687Y257500*
X132687D02*
X133000Y257955D01*
Y258409*
X128625Y256591D02*
Y258182D01*
X139000Y179227D02*
X138687D01*
X138687D02*
X138062Y179455D01*
X138062D02*
X137750Y179682D01*
X137437Y180136*
X137437D02*
Y181045D01*
X137437D02*
X137750Y181500D01*
X138062Y181727*
X138062D02*
X138687Y181955D01*
X138687D02*
X139312D01*
X139312D02*
X139937Y181727D01*
X139937D02*
X140875Y181273D01*
X144000Y179000*
Y182182*
X137437Y185591D02*
X137750Y184909D01*
X138687Y184455*
X138687D02*
X140250Y184227D01*
X141187*
X141187D02*
X142750Y184455D01*
X143687Y184909*
X143687D02*
X144000Y185591D01*
Y186045*
X143687Y186727*
X143687D02*
X142750Y187182D01*
X141187Y187409*
X141187D02*
X140250D01*
X138687Y187182*
X138687D02*
X137750Y186727D01*
X137437Y186045*
X137437D02*
Y185591D01*
Y190818D02*
X137750Y190136D01*
X138687Y189682*
X138687D02*
X140250Y189455D01*
X141187*
X141187D02*
X142750Y189682D01*
X143687Y190136*
X143687D02*
X144000Y190818D01*
Y191273*
X143687Y191955*
X143687D02*
X142750Y192409D01*
X141187Y192636*
X141187D02*
X140250D01*
X138687Y192409*
X138687D02*
X137750Y191955D01*
X137437Y191273*
X137437D02*
Y190818D01*
Y195818D02*
X137750Y195136D01*
X138375Y194909*
X139000*
X139625Y195136*
X139937Y195591*
X139937D02*
X140250Y196500D01*
X140562Y197182*
X140562D02*
X141187Y197636D01*
X141187D02*
X141812Y197864D01*
X141812D02*
X142750D01*
X143375Y197636*
X143687Y197409*
X143687D02*
X144000Y196727D01*
Y195818*
X143687Y195136*
X143687D02*
X143375Y194909D01*
X142750Y194682*
X141812*
X141812D02*
X141187Y194909D01*
X141187D02*
X140562Y195364D01*
X140562D02*
X140250Y196045D01*
X139937Y196955*
X139937D02*
X139625Y197409D01*
X139000Y197636*
X138375*
X137750Y197409*
X137437Y196727*
X137437D02*
Y195818D01*
X117000Y313563D02*
Y307000D01*
Y313563D02*
X120182Y307000D01*
Y313563D02*
Y307000D01*
X122227Y313563D02*
Y307000D01*
Y313563D02*
X124273D01*
X124273D02*
X124955Y313250D01*
X125182Y312938*
X125182D02*
X125409Y312313D01*
X125409D02*
Y311375D01*
X125182Y310750*
X124955Y310438*
X124955D02*
X124273Y310125D01*
X122227*
X127455Y313563D02*
Y307000D01*
Y313563D02*
X130636Y307000D01*
Y313563D02*
Y307000D01*
X138591Y313563D02*
Y308250D01*
X138818Y307313*
X138818D02*
X139273Y307000D01*
X139727*
X137909Y311375D02*
X139500D01*
X141773D02*
Y307000D01*
Y309500D02*
X142000Y310438D01*
X142000D02*
X142455Y311063D01*
X142455D02*
X142909Y311375D01*
X143591*
X148364D02*
Y307000D01*
Y310438D02*
X147909Y311063D01*
X147909D02*
X147455Y311375D01*
X146773*
X146318Y311063*
X146318D02*
X145864Y310438D01*
X145864D02*
X145636Y309500D01*
Y308875*
X145864Y307938*
X145864D02*
X146318Y307313D01*
X146318D02*
X146773Y307000D01*
X147455*
X147909Y307313*
X147909D02*
X148364Y307938D01*
X150409Y311375D02*
Y307000D01*
Y310125D02*
X151091Y311063D01*
X151091D02*
X151545Y311375D01*
X152227*
X152682Y311063*
X152682D02*
X152909Y310125D01*
Y307000*
X157455Y311375D02*
X154955Y307000D01*
Y311375D02*
X157455D01*
X154955Y307000D02*
X157455D01*
X159500Y313563D02*
X159727Y313250D01*
X159955Y313563*
X159955D02*
X159727Y313875D01*
X159500Y313563*
X159727Y311375D02*
Y307000D01*
X164500Y310438D02*
X164273Y311063D01*
X164273D02*
X163591Y311375D01*
X162909*
X162227Y311063*
X162227D02*
X162000Y310438D01*
X162000D02*
X162227Y309813D01*
X162227D02*
X162682Y309500D01*
X163818Y309188*
X163818D02*
X164273Y308875D01*
X164500Y308250*
Y307938*
X164500D02*
X164273Y307313D01*
X164273D02*
X163591Y307000D01*
X162909*
X162227Y307313*
X162227D02*
X162000Y307938D01*
X167227Y313563D02*
Y308250D01*
X167455Y307313*
X167455D02*
X167909Y307000D01*
X168364*
X166545Y311375D02*
X168136D01*
X171545D02*
X171091Y311063D01*
X171091D02*
X170636Y310438D01*
X170636D02*
X170409Y309500D01*
Y308875*
X170636Y307938*
X170636D02*
X171091Y307313D01*
X171091D02*
X171545Y307000D01*
X172227*
X172682Y307313*
X172682D02*
X173136Y307938D01*
X173136D02*
X173364Y308875D01*
Y309500*
X173136Y310438*
X173136D02*
X172682Y311063D01*
X172682D02*
X172227Y311375D01*
X171545*
X175409D02*
Y307000D01*
Y309500D02*
X175636Y310438D01*
X175636D02*
X176091Y311063D01*
X176091D02*
X176545Y311375D01*
X177227*
X235000Y181563D02*
Y175000D01*
Y181563D02*
X236591D01*
X236591D02*
X237273Y181250D01*
X237727Y180625*
X237955Y180000*
X238182Y179063*
X238182D02*
Y177500D01*
X237955Y176563*
X237955D02*
X237727Y175938D01*
X237727D02*
X237273Y175313D01*
X237273D02*
X236591Y175000D01*
X235000*
X243636Y180000D02*
X243409Y180625D01*
X242955Y181250*
X242500Y181563*
X242500D02*
X241591D01*
X241591D02*
X241136Y181250D01*
X240682Y180625*
X240455Y180000*
X240227Y179063*
X240227D02*
Y177500D01*
X240455Y176563*
X240455D02*
X240682Y175938D01*
X240682D02*
X241136Y175313D01*
X241136D02*
X241591Y175000D01*
X242500*
X242955Y175313*
X242955D02*
X243409Y175938D01*
X243409D02*
X243636Y176563D01*
X253864Y181563D02*
X251591D01*
X251591D02*
X251364Y178750D01*
X251591Y179063*
X251591D02*
X252273Y179375D01*
X252955*
X253636Y179063*
X253636D02*
X254091Y178438D01*
X254091D02*
X254318Y177500D01*
X254091Y176875*
X253864Y175938*
X253864D02*
X253409Y175313D01*
X253409D02*
X252727Y175000D01*
X252045*
X251364Y175313*
X251364D02*
X251136Y175625D01*
X250909Y176250*
X256591Y175625D02*
X256364Y175313D01*
X256364D02*
X256591Y175000D01*
X256818Y175313*
X256818D02*
X256591Y175625D01*
X259091D02*
X258864Y175313D01*
X258864D02*
X259091Y175000D01*
X259318Y175313*
X259318D02*
X259091Y175625D01*
X264318Y179375D02*
X264091Y178438D01*
X264091D02*
X263636Y177813D01*
X263636D02*
X262955Y177500D01*
X262727*
X262045Y177813*
X262045D02*
X261591Y178438D01*
X261591D02*
X261364Y179375D01*
Y179688*
X261364D02*
X261591Y180625D01*
X262045Y181250*
X262727Y181563*
X262727D02*
X262955D01*
X262955D02*
X263636Y181250D01*
X264091Y180625*
X264318Y179375*
Y177813*
X264318D02*
X264091Y176250D01*
X263636Y175313*
X263636D02*
X262955Y175000D01*
X262500*
X261818Y175313*
X261818D02*
X261591Y175938D01*
X266364Y181563D02*
X268182Y175000D01*
X270000Y181563D02*
X268182Y175000D01*
G54D26*
X157685Y329283D02*
X118315D01*
Y364717*
X157685*
Y329283*
X232815Y155217D02*
X272185D01*
Y119783*
X232815*
Y155217*
X161864Y347938D02*
Y344938D01*
X161727Y344375*
X161591Y344188*
X161318Y344000*
X161045*
X160773Y344188*
X160636Y344375*
X160500Y344938*
Y345313*
X163227Y347000D02*
Y347188D01*
X163364Y347563*
X163500Y347750*
X163773Y347938*
X164318*
X164591Y347750*
X164727Y347563*
X164864Y347188*
Y346813*
X164727Y346438*
X164455Y345875*
X163091Y344000*
X165000*
X253364Y116938D02*
Y113938D01*
X253364D02*
X253227Y113375D01*
X253091Y113188*
X253091D02*
X252818Y113000D01*
X252545*
X252273Y113188*
X252273D02*
X252136Y113375D01*
X252000Y113938*
X252000D02*
Y114313D01*
X254591Y116188D02*
X254864Y116375D01*
X255273Y116938*
X255273D02*
Y113000D01*
G54D36*
X234239Y230990D02*
Y290360D01*
X269672*
Y230990*
X234239*
X219000Y116000D02*
X171000D01*
Y146000D02*
Y113000D01*
X219000*
Y146000*
Y162000D02*
Y177000D01*
X171000*
Y162000*
X234283Y290315D02*
Y349685D01*
X269717*
Y290315*
X234283*
X151001Y134999D02*
G75*
G03X136999I-7001J-4124D01*
G01X136997Y127005D02*
G03X150996Y126993I7003J3995D01*
G01X151001Y152999D02*
G03X136999I-7001J-4124D01*
G01X136997Y145005D02*
G03X150996Y144993I7003J3995D01*
G01X272364Y263938D02*
Y260938D01*
X272227Y260375*
X272091Y260188*
X271818Y260000*
X271545*
X271273Y260188*
X271136Y260375*
X271000Y260938*
Y261313*
X273864Y263938D02*
X275364D01*
X274545Y262438*
X274955*
X275227Y262250*
X275364Y262063*
X275500Y261500*
Y261125*
X275364Y260563*
X275091Y260188*
X274682Y260000*
X274273*
X273864Y260188*
X273727Y260375*
X273591Y260750*
X215364Y181938D02*
Y178938D01*
X215364D02*
X215227Y178375D01*
X215091Y178188*
X215091D02*
X214818Y178000D01*
X214545*
X214273Y178188*
X214273D02*
X214136Y178375D01*
X214000Y178938*
X214000D02*
Y179313D01*
X217955Y181938D02*
X216591Y179313D01*
X216591D02*
X218636D01*
X217955Y181938D02*
Y178000D01*
X273364Y320938D02*
Y317938D01*
X273227Y317375*
X273091Y317188*
X272818Y317000*
X272545*
X272273Y317188*
X272136Y317375*
X272000Y317938*
Y318313*
X276364Y320938D02*
X275000D01*
X274864Y319250*
X275000Y319438*
X275409Y319625*
X275818*
X276227Y319438*
X276500Y319063*
X276636Y318500*
X276500Y318125*
X276364Y317563*
X276091Y317188*
X275682Y317000*
X275273*
X274864Y317188*
X274727Y317375*
X274591Y317750*
X155000Y133938D02*
Y130000D01*
Y133938D02*
X155955D01*
X155955D02*
X156364Y133750D01*
X156636Y133375*
X156773Y133000*
X156909Y132438*
X156909D02*
Y131500D01*
X156773Y130938*
X156773D02*
X156636Y130563D01*
X156636D02*
X156364Y130188D01*
X156364D02*
X155955Y130000D01*
X155000*
X160045Y133938D02*
X158682Y130000D01*
X158136Y133938D02*
X160045D01*
X155000Y151938D02*
Y148000D01*
Y151938D02*
X155955D01*
X155955D02*
X156364Y151750D01*
X156636Y151375*
X156773Y151000*
X156909Y150438*
X156909D02*
Y149500D01*
X156773Y148938*
X156773D02*
X156636Y148563D01*
X156636D02*
X156364Y148188D01*
X156364D02*
X155955Y148000D01*
X155000*
X158818Y151938D02*
X158409Y151750D01*
X158273Y151375*
Y151000*
X158409Y150625*
X158682Y150438*
X158682D02*
X159227Y150250D01*
X159636Y150063*
X159636D02*
X159909Y149688D01*
X159909D02*
X160045Y149313D01*
X160045D02*
Y148750D01*
X159909Y148375*
X159773Y148188*
X159773D02*
X159364Y148000D01*
X158818*
X158409Y148188*
X158409D02*
X158273Y148375D01*
X158136Y148750*
Y149313*
X158136D02*
X158273Y149688D01*
X158273D02*
X158545Y150063D01*
X158545D02*
X158955Y150250D01*
X159500Y150438*
X159500D02*
X159773Y150625D01*
X159909Y151000*
Y151375*
X159773Y151750*
X159364Y151938*
X159364D02*
X158818D01*
G74*
X0Y0D02*
M02*
