*
*
G04 PADS Layout (Build Number 2008.43.1) generated Gerber (RS-274-X) file*
G04 PC Version=2.1*
*
%IN "USBRS232_final.pcb"*%
*
%MOIN*%
*
%FSLAX35Y35*%
*
*
*
*
G04 PC Standard Apertures*
*
*
G04 Thermal Relief Aperture macro.*
%AMTER*
1,1,$1,0,0*
1,0,$1-$2,0,0*
21,0,$3,$4,0,0,45*
21,0,$3,$4,0,0,135*
%
*
*
G04 Annular Aperture macro.*
%AMANN*
1,1,$1,0,0*
1,0,$2,0,0*
%
*
*
G04 Odd Aperture macro.*
%AMODD*
1,1,$1,0,0*
1,0,$1-0.005,0,0*
%
*
*
G04 PC Custom Aperture Macros*
*
*
*
*
*
*
G04 PC Aperture Table*
*
%ADD010R,0.039X0.039*%
%ADD011C,0.06*%
%ADD012R,0.07X0.07*%
%ADD013C,0.23622*%
%ADD014C,0.05*%
%ADD018C,0.015*%
%ADD019C,0.03*%
%ADD020C,0.012*%
%ADD024C,0.001*%
%ADD025C,0.01*%
%ADD031C,0.07*%
%ADD035C,0.065*%
%ADD043R,0.055X0.055*%
%ADD044R,0.04X0.04*%
%ADD045R,0.07874X0.07874*%
%ADD046R,0.09X0.09*%
%ADD047C,0.14*%
%ADD048C,0.018*%
%ADD049C,0.025*%
%ADD050R,0.046X0.046*%
%ADD051C,0.075*%
*
*
*
*
G04 PC Circuitry*
G04 Layer Name USBRS232_final.pcb - circuitry*
%LPD*%
*
*
G04 PC Custom Flashes*
G04 Layer Name USBRS232_final.pcb - flashes*
%LPD*%
*
*
G04 PC Circuitry*
G04 Layer Name USBRS232_final.pcb - circuitry*
%LPD*%
*
G54D10*
G01X171150Y305200D02*
X172850D01*
X171150Y312800D02*
X172850D01*
X154800Y228150D02*
Y229850D01*
X147200Y228150D02*
Y229850D01*
X221800Y288150D02*
Y289850D01*
X214200Y288150D02*
Y289850D01*
X207800Y181150D02*
Y182850D01*
X200200Y181150D02*
Y182850D01*
X182850Y306300D02*
X181150D01*
X182850Y298700D02*
X181150D01*
X196850Y288800D02*
X195150D01*
X196850Y281200D02*
X195150D01*
X182850Y321300D02*
X181150D01*
X182850Y313700D02*
X181150D01*
X182850Y336300D02*
X181150D01*
X182850Y328700D02*
X181150D01*
X165200Y176850D02*
Y175150D01*
X172800Y176850D02*
Y175150D01*
X173200Y291600D02*
Y290400D01*
X180800Y291600D02*
Y290400D01*
X136800Y307400D02*
Y308600D01*
X129200Y307400D02*
Y308600D01*
X206800Y265400D02*
Y266600D01*
X199200Y265400D02*
Y266600D01*
X158800Y159400D02*
Y160600D01*
X151200Y159400D02*
Y160600D01*
X165800Y167400D02*
Y168600D01*
X158200Y167400D02*
Y168600D01*
X130600Y146300D02*
X129400D01*
X130600Y138700D02*
X129400D01*
X148100Y146300D02*
X146900D01*
X148100Y138700D02*
X146900D01*
X148850Y316800D02*
X147150D01*
X148850Y309200D02*
X147150D01*
G54D11*
X238000Y222000D02*
Y235764D01*
G54D12*
X130000Y120063D03*
X147500D03*
G54D13*
X195000Y240000D03*
G54D14*
X125000Y120000D02*
X130000D01*
Y120063*
X125000Y120000D02*
X119000Y126000D01*
Y202000*
X130000Y120063D02*
X147500D01*
X154000*
X171000Y137063*
Y154000*
X249500Y124000D02*
X242500Y131000D01*
Y137500*
X249500Y124000D02*
X274000D01*
Y260675*
X242500Y137500D02*
X227750D01*
X219000Y146250*
Y154000*
X262500Y137500D02*
X262000D01*
Y203000*
X243000Y222000*
X238000*
X119000Y202000D02*
Y249000D01*
X135000Y265000*
X172000*
X134000Y202000D02*
X119000D01*
X158000Y229000D02*
X184000D01*
X195000Y240000*
X238000Y235764D02*
X242911Y240675D01*
X251955*
Y260675D02*
X238000D01*
Y256236*
X274000Y320000D02*
Y260675D01*
X251955*
Y280675D02*
X241000D01*
X238000Y283675*
Y285236*
Y296764D02*
X241236Y300000D01*
X252000*
X148000Y316800D02*
X155800D01*
X156000Y317000*
X148000Y316800D02*
X138400D01*
X138000Y317200*
X156000Y317000D02*
X175000Y336000D01*
X181700*
X238000Y325764D02*
Y320000D01*
X252000*
X238000Y317236D02*
Y320000D01*
X252000D02*
X274000D01*
Y345000*
X257000Y362000*
X182000Y336300D02*
X183300D01*
X209000Y362000*
X257000*
X252000Y340000D02*
X246000Y346000D01*
X238000*
Y346236*
G54D18*
X214200Y296000D02*
Y296500D01*
X215200Y297500*
G54D19*
X171000Y154000D02*
X207800D01*
X219000*
X207800D02*
Y165000D01*
Y182000*
Y165000D02*
X200000D01*
Y173000D02*
X200200Y173200D01*
Y182000*
X194500Y187700*
Y193000*
X207800Y182000D02*
X207500Y182300D01*
Y193000*
X194500D02*
Y200000D01*
X194764*
X194882Y200118D02*
X194764Y200000D01*
X175104*
X194764D02*
X194882Y200118D01*
X216764Y222000*
Y250000*
X211764Y255000*
X147200Y229000D02*
X147000Y229200D01*
Y234000*
X163000Y250000*
X182695*
X187695Y255000*
X211000*
X214000Y258000*
Y281000*
X195800D02*
X181000D01*
Y290800*
X214200Y281300D02*
Y289000D01*
Y296000*
G54D20*
X130000Y129937D02*
Y138700D01*
X147500Y129937D02*
Y138700D01*
X130000Y146300D02*
Y162825D01*
X152175Y185000*
Y190000*
X147500Y146300D02*
Y176000D01*
X154725Y183000*
Y190000*
X171000Y154000D02*
Y162200D01*
X165800Y167400*
Y168000*
X151200Y160000D02*
Y175175D01*
X159825Y183800*
Y190000*
X158800Y160000D02*
Y168000D01*
X158200*
Y178000*
X162375Y182000*
Y190000*
X165800Y168000D02*
Y176000D01*
X165200*
X190000Y165000D02*
X186000D01*
X185000Y166000*
X180850Y170000*
Y177025*
X172575Y185300*
Y190000*
X190000Y173000D02*
Y180000D01*
X174000Y196000*
X165200Y176000D02*
X164925Y176275D01*
Y190000*
X172800Y176000D02*
X172000Y176800D01*
Y180475*
X167475Y185000*
Y190000*
X144525D02*
Y198000D01*
X147075Y190000D02*
Y198000D01*
X157275Y190000D02*
Y198000D01*
X154725*
X159825Y190000D02*
X160000D01*
Y198000*
X162000Y200000*
X175104*
X170025Y190000D02*
Y196000D01*
X174000*
X147075Y198000D02*
X144525D01*
X140525Y202000*
X134000*
X147075Y198000D02*
X154725D01*
Y218000*
X137500Y208000D02*
X147500D01*
X149625Y210125*
Y218000*
X137500Y208000D02*
X135000Y210500D01*
Y237000*
X156000Y258000*
X176900*
X179000Y260100*
Y268000*
X180000Y269000*
X192471*
X195471Y272000*
X202506Y279000*
Y322306*
X212700Y332500*
X215200*
X139425Y218000D02*
Y233575D01*
X160850Y255000*
X181000*
X186000Y260000*
X200900*
X203000Y262100*
Y273000*
X205000Y275000*
Y315000*
X212500Y322500*
X215200*
X147075Y218000D02*
X147200Y229000D01*
X154725Y218000D02*
X154800Y229000D01*
X158000*
X211764Y255000D02*
X211000D01*
X238000Y260675D02*
X226100D01*
X224000Y262775*
Y281800*
X221800Y284000*
Y289000*
X238000Y256236D02*
Y264764D01*
X172000Y265000D02*
X175000D01*
X179000Y273000D02*
X173000Y279000D01*
Y290800*
X173200Y291000*
X183000Y265000D02*
X199200D01*
Y266000*
X206800D02*
X207500D01*
Y312300*
X212700Y317500*
X215200*
X195800Y281000D02*
X196000Y281200D01*
X214000Y281000D02*
X213900D01*
X214200Y281300*
X173200Y291000D02*
Y304000D01*
X172000Y305200*
X181000Y290800D02*
X180800Y291000D01*
X196000Y288800D02*
X200000Y292800D01*
Y300400*
X197900Y302500*
X193800*
X221800Y289000D02*
Y298400D01*
X217700Y302500*
X215200*
X238000Y285236D02*
X229600D01*
X227500Y287336*
Y294752*
Y302700*
X217700Y312500*
X215200*
X193800Y297500D02*
X188025D01*
X186825Y298700*
X182000D02*
X186825D01*
X238000Y296764D02*
Y298000D01*
X225000Y311000*
Y333000*
X220500Y337500*
X210000*
X129200Y308000D02*
Y316000D01*
X128000Y317200*
X136800Y308000D02*
X146800D01*
X148000Y309200*
X156000Y309000D02*
X155800Y309200D01*
X148000*
X172000Y312800D02*
X171800Y313000D01*
X164000*
X193800Y312500D02*
X188025D01*
X186825Y313700*
X182000Y306300D02*
X186300D01*
X187500Y307500*
X193800*
X182000Y313700D02*
X186825D01*
X193800Y317500D02*
X186650D01*
X182850Y321300*
X182000D02*
X182850D01*
X193800Y322500D02*
X191300D01*
X188733Y325067*
X215200Y322500D02*
Y327500D01*
X188733Y325067D02*
X186483D01*
X182850Y328700*
X182000D02*
X182850D01*
X193800Y332500D02*
X196300D01*
X210036Y346236*
X238000*
X193800Y327500D02*
X200000D01*
X210000Y337500*
X181700Y336000D02*
X182000Y336300D01*
G54D24*
G54D25*
X115437Y301000D02*
X120125D01*
X121062Y300773*
X121062D02*
X121687Y300318D01*
X121687D02*
X122000Y299636D01*
Y299182*
X121687Y298500*
X121687D02*
X121062Y298045D01*
X121062D02*
X120125Y297818D01*
X115437*
X116375Y292591D02*
X115750Y293045D01*
X115437Y293727*
X115437D02*
Y294636D01*
X115437D02*
X115750Y295318D01*
X116375Y295773*
X117000*
X117625Y295545*
X117937Y295318*
X117937D02*
X118250Y294864D01*
X118875Y293500*
X119187Y293045*
X119187D02*
X119500Y292818D01*
X120125Y292591*
X121062*
X121062D02*
X121687Y293045D01*
X121687D02*
X122000Y293727D01*
Y294636*
X121687Y295318*
X121687D02*
X121062Y295773D01*
X115437Y290545D02*
X122000D01*
X115437D02*
Y288500D01*
X115437D02*
X115750Y287818D01*
X116062Y287591*
X116062D02*
X116687Y287364D01*
X116687D02*
X117312D01*
X117312D02*
X117937Y287591D01*
X117937D02*
X118250Y287818D01*
X118562Y288500*
Y290545D02*
Y288500D01*
X118562D02*
X118875Y287818D01*
X119187Y287591*
X119187D02*
X119812Y287364D01*
X119812D02*
X120750D01*
X121375Y287591*
X121687Y287818*
X121687D02*
X122000Y288500D01*
Y290545*
X117625Y285318D02*
X122000D01*
X118875D02*
X117937Y284636D01*
X117937D02*
X117625Y284182D01*
Y283500*
X117937Y283045*
X117937D02*
X118875Y282818D01*
X122000*
X118875D02*
X117937Y282136D01*
X117937D02*
X117625Y281682D01*
Y281000*
X117937Y280545*
X117937D02*
X118875Y280318D01*
X122000*
X117625Y278273D02*
X122000D01*
X119500D02*
X118562Y278045D01*
X118562D02*
X117937Y277591D01*
X117937D02*
X117625Y277136D01*
Y276455*
Y271682D02*
X122000D01*
X118562D02*
X117937Y272136D01*
X117937D02*
X117625Y272591D01*
Y273273*
X117937Y273727*
X117937D02*
X118562Y274182D01*
X118562D02*
X119500Y274409D01*
X120125*
X121062Y274182*
X121062D02*
X121687Y273727D01*
X121687D02*
X122000Y273273D01*
Y272591*
X121687Y272136*
X121687D02*
X121062Y271682D01*
X115437Y269636D02*
X122000D01*
X117625Y267364D02*
X120750Y269636D01*
X119500Y268727D02*
X122000Y267136D01*
X115437Y262818D02*
X119812Y265091D01*
X119812D02*
Y261682D01*
X115437Y262818D02*
X122000D01*
X127000Y300773D02*
X126687D01*
X126687D02*
X126062Y300545D01*
X126062D02*
X125750Y300318D01*
X125437Y299864*
X125437D02*
Y298955D01*
X125437D02*
X125750Y298500D01*
X126062Y298273*
X126062D02*
X126687Y298045D01*
X126687D02*
X127312D01*
X127312D02*
X127937Y298273D01*
X127937D02*
X128875Y298727D01*
X132000Y301000*
Y297818*
X125437Y294409D02*
X125750Y295091D01*
X126687Y295545*
X126687D02*
X128250Y295773D01*
X129187*
X129187D02*
X130750Y295545D01*
X131687Y295091*
X131687D02*
X132000Y294409D01*
Y293955*
X131687Y293273*
X131687D02*
X130750Y292818D01*
X129187Y292591*
X129187D02*
X128250D01*
X126687Y292818*
X126687D02*
X125750Y293273D01*
X125437Y293955*
X125437D02*
Y294409D01*
Y289182D02*
X125750Y289864D01*
X126687Y290318*
X126687D02*
X128250Y290545D01*
X129187*
X129187D02*
X130750Y290318D01*
X131687Y289864*
X131687D02*
X132000Y289182D01*
Y288727*
X131687Y288045*
X131687D02*
X130750Y287591D01*
X129187Y287364*
X129187D02*
X128250D01*
X126687Y287591*
X126687D02*
X125750Y288045D01*
X125437Y288727*
X125437D02*
Y289182D01*
Y284182D02*
X125750Y284864D01*
X126375Y285091*
X127000*
X127625Y284864*
X127937Y284409*
X127937D02*
X128250Y283500D01*
X128562Y282818*
X128562D02*
X129187Y282364D01*
X129187D02*
X129812Y282136D01*
X129812D02*
X130750D01*
X131375Y282364*
X131687Y282591*
X131687D02*
X132000Y283273D01*
Y284182*
X131687Y284864*
X131687D02*
X131375Y285091D01*
X130750Y285318*
X129812*
X129812D02*
X129187Y285091D01*
X129187D02*
X128562Y284636D01*
X128562D02*
X128250Y283955D01*
X127937Y283045*
X127937D02*
X127625Y282591D01*
X127000Y282364*
X126375*
X125750Y282591*
X125437Y283273*
X125437D02*
Y284182D01*
X137841Y183500D02*
Y183719D01*
X137682Y184156*
X137523Y184375*
X137205Y184594*
X136568*
X136250Y184375*
X136091Y184156*
X135932Y183719*
Y183281*
X136091Y182844*
X136409Y182188*
X136409D02*
X138000Y180000D01*
X135773*
X133545Y184594D02*
X134023Y184375D01*
X134182Y183938*
X134182D02*
Y183500D01*
X134023Y183063*
X134023D02*
X133705Y182844D01*
X133068Y182625*
X132591Y182406*
X132273Y181969*
X132114Y181531*
Y180875*
X132273Y180438*
X132273D02*
X132432Y180219D01*
X132909Y180000*
X133545*
X134023Y180219*
X134182Y180438*
X134182D02*
X134341Y180875D01*
Y181531*
X134182Y181969*
X133864Y182406*
X133386Y182625*
X132750Y182844*
X132432Y183063*
X132432D02*
X132273Y183500D01*
Y183938*
X132273D02*
X132432Y184375D01*
X132909Y184594*
X133545*
X193719Y294000D02*
X193938Y294318D01*
X193938D02*
X194594Y294795D01*
X190000*
X151500Y341000D02*
Y364900D01*
G75*
G03X151000Y365400I-500J-0D01*
G01X137000*
G03X136500Y364900I0J-500*
G01Y341000*
G03X137000Y340500I500J0*
G01X151000*
G03X151500Y341000I0J500*
G01X257500Y275000D02*
Y288000D01*
G03X257000Y288500I-500J0*
G01X234000*
G03X233500Y288000I0J-500*
G01Y275000*
G03X234000Y274500I500J0*
G01X257000*
G03X257500Y275000I0J500*
G01Y294000D02*
Y307000D01*
G03X257000Y307500I-500J0*
G01X234000*
G03X233500Y307000I0J-500*
G01Y294000*
G03X234000Y293500I500J0*
G01X257000*
G03X257500Y294000I0J500*
G01Y336000D02*
Y349000D01*
G03X257000Y349500I-500J0*
G01X234000*
G03X233500Y349000I0J-500*
G01Y336000*
G03X234000Y335500I500J0*
G01X257000*
G03X257500Y336000I0J500*
G01X129500Y341000D02*
Y364900D01*
G03X129000Y365400I-500J-0*
G01X115400*
G03X114900Y364900I0J-500*
G01Y341000*
G03X115400Y340500I500J0*
G01X129000*
G03X129500Y341000I0J500*
G01X267500Y135541D02*
Y206586D01*
G03X267354Y206939I-500J-0*
G01X257500Y216793*
Y245000*
G03X257000Y245500I-500J0*
G01X234000*
G03X233500Y245000I0J-500*
G01Y218000*
G03X234000Y217500I500J0*
G01X243207*
X257500Y203207*
Y135541*
G03Y135524I500J0*
X267500I5000J168*
Y135541I-500J17*
G01X275100Y115100D02*
Y364900D01*
G03X274600Y365400I-500J-0*
G01X234000*
G03X233500Y364900I0J-500*
G01Y353173*
G03X234000Y352673I500J0*
G01X242921*
X243758Y352529D02*
G03X242921Y352673I-837J-2356D01*
G01X243758Y352529D02*
G03X243926Y352500I168J471D01*
G01X257500*
X260500Y349500D02*
G03X257500Y352500I-3000J0D01*
G01X260500Y349500D02*
Y335500D01*
X257500Y332500D02*
G03X260500Y335500I0J3000D01*
G01X257500Y332500D02*
X234000D01*
G03X233500Y332000I0J-500*
G01Y311000*
G03X234000Y310500I500J0*
G01X257500*
X260500Y307500D02*
G03X257500Y310500I-3000J0D01*
G01X260500Y307500D02*
Y293500D01*
X259600Y291357D02*
G03X260500Y293500I-2100J2143D01*
G01X259600Y291357D02*
G03Y290643I350J-357D01*
G01X260500Y288500D02*
G03X259600Y290643I-3000J0D01*
G01X260500Y288500D02*
Y274500D01*
X257500Y271500D02*
G03X260500Y274500I0J3000D01*
G01X257500Y271500D02*
X234000D01*
G03X233500Y271000I0J-500*
G01Y249000*
G03X234000Y248500I500J0*
G01X257500*
X260500Y245500D02*
G03X257500Y248500I-3000J0D01*
G01X260500Y245500D02*
Y218243D01*
G03X260646Y217889I500J-0*
G01X269621Y208914*
X270500Y206793D02*
G03X269621Y208914I-3000J-0D01*
G01X270500Y206793D02*
Y135533D01*
X270499Y135438D02*
G03X270500Y135533I-2999J95D01*
G01X254501Y135438D02*
G03X270499I7999J254D01*
G01X254500Y135533D02*
G03X254501Y135438I3000J-0D01*
G01X254500Y135533D02*
Y186064D01*
G03X253581Y186337I-500J-0*
G01X234159Y179572D02*
G03X253581Y186337I5341J15928D01*
G01X234159Y179572D02*
G03X233500Y179098I-159J-474D01*
G01Y115100*
G03X234000Y114600I500J0*
G01X274600*
G03X275100Y115100I-0J500*
G01X250500D02*
Y181751D01*
G03X249697Y182148I-500J-0*
G01X223572Y200841D02*
G03X249697Y182148I15928J-5341D01*
G01X223572Y200841D02*
G03X223098Y201500I-474J159D01*
G01X205000*
G03X204500Y201000I0J-500*
G01Y185737*
G03X204525Y185581I500J-0*
G01X204650Y184800D02*
G03X204525Y185581I-2500J0D01*
G01X204650Y184800D02*
Y179200D01*
X204525Y178419D02*
G03X204650Y179200I-2375J781D01*
G01X204525Y178419D02*
G03X204500Y178263I475J-156D01*
G01Y176750*
G03X204600Y176450I500J0*
G01Y169550D02*
G03Y176450I-4600J3450D01*
G01Y169550D02*
G03X204500Y169250I400J-300D01*
G01Y167500*
X201750*
G03X201610Y167480I0J-500*
G01X198390D02*
G03X201610I1610J5520D01*
G01X198390D02*
G03X198250Y167500I-140J-480D01*
G01X198000*
G03X197500Y167000I0J-500*
G01Y161500*
X194802*
G03X194418Y161320I0J-500*
G01X185582D02*
G03X194418I4418J3680D01*
G01X185582D02*
G03X185198Y161500I-384J-320D01*
G01X166414*
G03X166061Y161354I0J-500*
G01X163396Y158689*
G03X163250Y158336I354J-353*
G01Y157450*
X160750Y154950D02*
G03X163250Y157450I0J2500D01*
G01X160750Y154950D02*
X159864D01*
G03X159511Y154804I0J-500*
G01X154646Y149939*
G03X154500Y149586I354J-353*
G01Y115100*
G03X155000Y114600I500J0*
G01X250000*
G03X250500Y115100I0J500*
G01X257500Y314000D02*
Y329000D01*
G03X257000Y329500I-500J0*
G01X234000*
G03X233500Y329000I0J-500*
G01Y314000*
G03X234000Y313500I500J0*
G01X257000*
G03X257500Y314000I0J500*
G01Y253000D02*
Y268000D01*
G03X257000Y268500I-500J0*
G01X234000*
G03X233500Y268000I0J-500*
G01Y253000*
G03X234000Y252500I500J0*
G01X257000*
G03X257500Y253000I0J500*
G01X136500Y364799D02*
X151500D01*
X136500Y363899D02*
X151500D01*
X136500Y362999D02*
X151500D01*
X136500Y362099D02*
X151500D01*
X136500Y361199D02*
X151500D01*
X136500Y360299D02*
X151500D01*
X136500Y359399D02*
X151500D01*
X136500Y358499D02*
X151500D01*
X136500Y357599D02*
X151500D01*
X136500Y356699D02*
X151500D01*
X136500Y355799D02*
X151500D01*
X136500Y354899D02*
X151500D01*
X136500Y353999D02*
X151500D01*
X136500Y353099D02*
X151500D01*
X136500Y352199D02*
X151500D01*
X136500Y351299D02*
X151500D01*
X136500Y350399D02*
X151500D01*
X136500Y349499D02*
X151500D01*
X136500Y348599D02*
X151500D01*
X136500Y347699D02*
X151500D01*
X136500Y346799D02*
X151500D01*
X136500Y345899D02*
X151500D01*
X136500Y344999D02*
X151500D01*
X136500Y344099D02*
X151500D01*
X136500Y343199D02*
X151500D01*
X136500Y342299D02*
X151500D01*
X136500Y341399D02*
X151500D01*
X233500Y287999D02*
X257500D01*
X233500Y287099D02*
X257500D01*
X233500Y286199D02*
X257500D01*
X233500Y285299D02*
X257500D01*
X233500Y284399D02*
X257500D01*
X233500Y283499D02*
X257500D01*
X233500Y282599D02*
X257500D01*
X233500Y281699D02*
X257500D01*
X233500Y280799D02*
X257500D01*
X233500Y279899D02*
X257500D01*
X233500Y278999D02*
X257500D01*
X233500Y278099D02*
X257500D01*
X233500Y277199D02*
X257500D01*
X233500Y276299D02*
X257500D01*
X233500Y275399D02*
X257500D01*
X233500Y306999D02*
X257500D01*
X233500Y306099D02*
X257500D01*
X233500Y305199D02*
X257500D01*
X233500Y304299D02*
X257500D01*
X233500Y303399D02*
X257500D01*
X233500Y302499D02*
X257500D01*
X233500Y301599D02*
X257500D01*
X233500Y300699D02*
X257500D01*
X233500Y299799D02*
X257500D01*
X233500Y298899D02*
X257500D01*
X233500Y297999D02*
X257500D01*
X233500Y297099D02*
X257500D01*
X233500Y296199D02*
X257500D01*
X233500Y295299D02*
X257500D01*
X233500Y294399D02*
X257500D01*
X233500Y348999D02*
X257500D01*
X233500Y348099D02*
X257500D01*
X233500Y347199D02*
X257500D01*
X233500Y346299D02*
X257500D01*
X233500Y345399D02*
X257500D01*
X233500Y344499D02*
X257500D01*
X233500Y343599D02*
X257500D01*
X233500Y342699D02*
X257500D01*
X233500Y341799D02*
X257500D01*
X233500Y340899D02*
X257500D01*
X233500Y339999D02*
X257500D01*
X233500Y339099D02*
X257500D01*
X233500Y338199D02*
X257500D01*
X233500Y337299D02*
X257500D01*
X233500Y336399D02*
X257500D01*
X114900Y364799D02*
X129500D01*
X114900Y363899D02*
X129500D01*
X114900Y362999D02*
X129500D01*
X114900Y362099D02*
X129500D01*
X114900Y361199D02*
X129500D01*
X114900Y360299D02*
X129500D01*
X114900Y359399D02*
X129500D01*
X114900Y358499D02*
X129500D01*
X114900Y357599D02*
X129500D01*
X114900Y356699D02*
X129500D01*
X114900Y355799D02*
X129500D01*
X114900Y354899D02*
X129500D01*
X114900Y353999D02*
X129500D01*
X114900Y353099D02*
X129500D01*
X114900Y352199D02*
X129500D01*
X114900Y351299D02*
X129500D01*
X114900Y350399D02*
X129500D01*
X114900Y349499D02*
X129500D01*
X114900Y348599D02*
X129500D01*
X114900Y347699D02*
X129500D01*
X114900Y346799D02*
X129500D01*
X114900Y345899D02*
X129500D01*
X114900Y344999D02*
X129500D01*
X114900Y344099D02*
X129500D01*
X114900Y343199D02*
X129500D01*
X114900Y342299D02*
X129500D01*
X114900Y341399D02*
X129500D01*
X254419Y206288D02*
X267500D01*
X255319Y205388D02*
X267500D01*
X256219Y204488D02*
X267500D01*
X257119Y203588D02*
X267500D01*
X257500Y202688D02*
X267500D01*
X257500Y201788D02*
X267500D01*
X257500Y200888D02*
X267500D01*
X257500Y199988D02*
X267500D01*
X257500Y199088D02*
X267500D01*
X257500Y198188D02*
X267500D01*
X257500Y197288D02*
X267500D01*
X257500Y196388D02*
X267500D01*
X257500Y195488D02*
X267500D01*
X257500Y194588D02*
X267500D01*
X257500Y193688D02*
X267500D01*
X257500Y192788D02*
X267500D01*
X257500Y191888D02*
X267500D01*
X257500Y190988D02*
X267500D01*
X257500Y190088D02*
X267500D01*
X257500Y189188D02*
X267500D01*
X257500Y188288D02*
X267500D01*
X257500Y187388D02*
X267500D01*
X257500Y186488D02*
X267500D01*
X257500Y185588D02*
X267500D01*
X257500Y184688D02*
X267500D01*
X257500Y183788D02*
X267500D01*
X257500Y182888D02*
X267500D01*
X257500Y181988D02*
X267500D01*
X257500Y181088D02*
X267500D01*
X257500Y180188D02*
X267500D01*
X257500Y179288D02*
X267500D01*
X257500Y178388D02*
X267500D01*
X257500Y177488D02*
X267500D01*
X257500Y176588D02*
X267500D01*
X257500Y175688D02*
X267500D01*
X257500Y174788D02*
X267500D01*
X257500Y173888D02*
X267500D01*
X257500Y172988D02*
X267500D01*
X257500Y172088D02*
X267500D01*
X257500Y171188D02*
X267500D01*
X257500Y170288D02*
X267500D01*
X257500Y169388D02*
X267500D01*
X257500Y168488D02*
X267500D01*
X257500Y167588D02*
X267500D01*
X257500Y166688D02*
X267500D01*
X257500Y165788D02*
X267500D01*
X257500Y164888D02*
X267500D01*
X257500Y163988D02*
X267500D01*
X257500Y163088D02*
X267500D01*
X257500Y162188D02*
X267500D01*
X257500Y161288D02*
X267500D01*
X257500Y160388D02*
X267500D01*
X257500Y159488D02*
X267500D01*
X257500Y158588D02*
X267500D01*
X257500Y157688D02*
X267500D01*
X257500Y156788D02*
X267500D01*
X257500Y155888D02*
X267500D01*
X257500Y154988D02*
X267500D01*
X257500Y154088D02*
X267500D01*
X257500Y153188D02*
X267500D01*
X257500Y152288D02*
X267500D01*
X257500Y151388D02*
X267500D01*
X257500Y150488D02*
X267500D01*
X257500Y149588D02*
X267500D01*
X257500Y148688D02*
X267500D01*
X257500Y147788D02*
X267500D01*
X257500Y146888D02*
X267500D01*
X257500Y145988D02*
X267500D01*
X257500Y145088D02*
X267500D01*
X257500Y144188D02*
X267500D01*
X257500Y143288D02*
X267500D01*
X257500Y142388D02*
X267500D01*
X257500Y141488D02*
X267500D01*
X257500Y140588D02*
X267500D01*
X257500Y139688D02*
X267500D01*
X257500Y138788D02*
X267500D01*
X257500Y137888D02*
X267500D01*
X257500Y136988D02*
X267500D01*
X257500Y136088D02*
X267500D01*
X257523Y135188D02*
X267477D01*
X257698Y134288D02*
X267302D01*
X253519Y207188D02*
X267105D01*
X258060Y133388D02*
X266940D01*
X258658Y132488D02*
X266342D01*
X252619Y208088D02*
X266205D01*
X259639Y131588D02*
X265361D01*
X251719Y208988D02*
X265305D01*
X250819Y209888D02*
X264405D01*
X249919Y210788D02*
X263505D01*
X249019Y211688D02*
X262605D01*
X248119Y212588D02*
X261705D01*
X247219Y213488D02*
X260805D01*
X246319Y214388D02*
X259905D01*
X245419Y215288D02*
X259005D01*
X244519Y216188D02*
X258105D01*
X233500Y244988D02*
X257500D01*
X233500Y244088D02*
X257500D01*
X233500Y243188D02*
X257500D01*
X233500Y242288D02*
X257500D01*
X233500Y241388D02*
X257500D01*
X233500Y240488D02*
X257500D01*
X233500Y239588D02*
X257500D01*
X233500Y238688D02*
X257500D01*
X233500Y237788D02*
X257500D01*
X233500Y236888D02*
X257500D01*
X233500Y235988D02*
X257500D01*
X233500Y235088D02*
X257500D01*
X233500Y234188D02*
X257500D01*
X233500Y233288D02*
X257500D01*
X233500Y232388D02*
X257500D01*
X233500Y231488D02*
X257500D01*
X233500Y230588D02*
X257500D01*
X233500Y229688D02*
X257500D01*
X233500Y228788D02*
X257500D01*
X233500Y227888D02*
X257500D01*
X233500Y226988D02*
X257500D01*
X233500Y226088D02*
X257500D01*
X233500Y225188D02*
X257500D01*
X233500Y224288D02*
X257500D01*
X233500Y223388D02*
X257500D01*
X233500Y222488D02*
X257500D01*
X233500Y221588D02*
X257500D01*
X233500Y220688D02*
X257500D01*
X233500Y219788D02*
X257500D01*
X233500Y218888D02*
X257500D01*
X233500Y217988D02*
X257500D01*
X243619Y217088D02*
X257500D01*
X233500Y364499D02*
X275100D01*
X233500Y363599D02*
X275100D01*
X233500Y362699D02*
X275100D01*
X233500Y361799D02*
X275100D01*
X233500Y360899D02*
X275100D01*
X233500Y359999D02*
X275100D01*
X233500Y359099D02*
X275100D01*
X233500Y358199D02*
X275100D01*
X233500Y357299D02*
X275100D01*
X233500Y356399D02*
X275100D01*
X233500Y355499D02*
X275100D01*
X233500Y354599D02*
X275100D01*
X233500Y353699D02*
X275100D01*
X233669Y352799D02*
X275100D01*
X259302Y351899D02*
X275100D01*
X260099Y350999D02*
X275100D01*
X260440Y350099D02*
X275100D01*
X260500Y349199D02*
X275100D01*
X260500Y348299D02*
X275100D01*
X260500Y347399D02*
X275100D01*
X260500Y346499D02*
X275100D01*
X260500Y345599D02*
X275100D01*
X260500Y344699D02*
X275100D01*
X260500Y343799D02*
X275100D01*
X260500Y342899D02*
X275100D01*
X260500Y341999D02*
X275100D01*
X260500Y341099D02*
X275100D01*
X260500Y340199D02*
X275100D01*
X260500Y339299D02*
X275100D01*
X260500Y338399D02*
X275100D01*
X260500Y337499D02*
X275100D01*
X260500Y336599D02*
X275100D01*
X260500Y335699D02*
X275100D01*
X260417Y334799D02*
X275100D01*
X260037Y333899D02*
X275100D01*
X259156Y332999D02*
X275100D01*
X233510Y332099D02*
X275100D01*
X233500Y331199D02*
X275100D01*
X233500Y330299D02*
X275100D01*
X233500Y329399D02*
X275100D01*
X233500Y328499D02*
X275100D01*
X233500Y327599D02*
X275100D01*
X233500Y326699D02*
X275100D01*
X233500Y325799D02*
X275100D01*
X233500Y324899D02*
X275100D01*
X233500Y323999D02*
X275100D01*
X233500Y323099D02*
X275100D01*
X233500Y322199D02*
X275100D01*
X233500Y321299D02*
X275100D01*
X233500Y320399D02*
X275100D01*
X233500Y319499D02*
X275100D01*
X233500Y318599D02*
X275100D01*
X233500Y317699D02*
X275100D01*
X233500Y316799D02*
X275100D01*
X233500Y315899D02*
X275100D01*
X233500Y314999D02*
X275100D01*
X233500Y314099D02*
X275100D01*
X233500Y313199D02*
X275100D01*
X233500Y312299D02*
X275100D01*
X233500Y311399D02*
X275100D01*
X257589Y310499D02*
X275100D01*
X259644Y309599D02*
X275100D01*
X260250Y308699D02*
X275100D01*
X260485Y307799D02*
X275100D01*
X260500Y306899D02*
X275100D01*
X260500Y305999D02*
X275100D01*
X260500Y305099D02*
X275100D01*
X260500Y304199D02*
X275100D01*
X260500Y303299D02*
X275100D01*
X260500Y302399D02*
X275100D01*
X260500Y301499D02*
X275100D01*
X260500Y300599D02*
X275100D01*
X260500Y299699D02*
X275100D01*
X260500Y298799D02*
X275100D01*
X260500Y297899D02*
X275100D01*
X260500Y296999D02*
X275100D01*
X260500Y296099D02*
X275100D01*
X260500Y295199D02*
X275100D01*
X260500Y294299D02*
X275100D01*
X260498Y293399D02*
X275100D01*
X260328Y292499D02*
X275100D01*
X259821Y291599D02*
X275100D01*
X259551Y290699D02*
X275100D01*
X260204Y289799D02*
X275100D01*
X260473Y288899D02*
X275100D01*
X260500Y287999D02*
X275100D01*
X260500Y287099D02*
X275100D01*
X260500Y286199D02*
X275100D01*
X260500Y285299D02*
X275100D01*
X260500Y284399D02*
X275100D01*
X260500Y283499D02*
X275100D01*
X260500Y282599D02*
X275100D01*
X260500Y281699D02*
X275100D01*
X260500Y280799D02*
X275100D01*
X260500Y279899D02*
X275100D01*
X260500Y278999D02*
X275100D01*
X260500Y278099D02*
X275100D01*
X260500Y277199D02*
X275100D01*
X260500Y276299D02*
X275100D01*
X260500Y275399D02*
X275100D01*
X260500Y274499D02*
X275100D01*
X260361Y273599D02*
X275100D01*
X259899Y272699D02*
X275100D01*
X258805Y271799D02*
X275100D01*
X233500Y270899D02*
X275100D01*
X233500Y269999D02*
X275100D01*
X233500Y269099D02*
X275100D01*
X233500Y268199D02*
X275100D01*
X233500Y267299D02*
X275100D01*
X233500Y266399D02*
X275100D01*
X233500Y265499D02*
X275100D01*
X233500Y264599D02*
X275100D01*
X233500Y263699D02*
X275100D01*
X233500Y262799D02*
X275100D01*
X233500Y261899D02*
X275100D01*
X233500Y260999D02*
X275100D01*
X233500Y260099D02*
X275100D01*
X233500Y259199D02*
X275100D01*
X233500Y258299D02*
X275100D01*
X233500Y257399D02*
X275100D01*
X233500Y256499D02*
X275100D01*
X233500Y255599D02*
X275100D01*
X233500Y254699D02*
X275100D01*
X233500Y253799D02*
X275100D01*
X233500Y252899D02*
X275100D01*
X233500Y251999D02*
X275100D01*
X233500Y251099D02*
X275100D01*
X233500Y250199D02*
X275100D01*
X233500Y249299D02*
X275100D01*
X258273Y248399D02*
X275100D01*
X259737Y247499D02*
X275100D01*
X260292Y246599D02*
X275100D01*
X260493Y245699D02*
X275100D01*
X260500Y244799D02*
X275100D01*
X260500Y243899D02*
X275100D01*
X260500Y242999D02*
X275100D01*
X260500Y242099D02*
X275100D01*
X260500Y241199D02*
X275100D01*
X260500Y240299D02*
X275100D01*
X260500Y239399D02*
X275100D01*
X260500Y238499D02*
X275100D01*
X260500Y237599D02*
X275100D01*
X260500Y236699D02*
X275100D01*
X260500Y235799D02*
X275100D01*
X260500Y234899D02*
X275100D01*
X260500Y233999D02*
X275100D01*
X260500Y233099D02*
X275100D01*
X260500Y232199D02*
X275100D01*
X260500Y231299D02*
X275100D01*
X260500Y230399D02*
X275100D01*
X260500Y229499D02*
X275100D01*
X260500Y228599D02*
X275100D01*
X260500Y227699D02*
X275100D01*
X260500Y226799D02*
X275100D01*
X260500Y225899D02*
X275100D01*
X260500Y224999D02*
X275100D01*
X260500Y224099D02*
X275100D01*
X260500Y223199D02*
X275100D01*
X260500Y222299D02*
X275100D01*
X260500Y221399D02*
X275100D01*
X260500Y220499D02*
X275100D01*
X260500Y219599D02*
X275100D01*
X260500Y218699D02*
X275100D01*
X260737Y217799D02*
X275100D01*
X261637Y216899D02*
X275100D01*
X262537Y215999D02*
X275100D01*
X263437Y215099D02*
X275100D01*
X264337Y214199D02*
X275100D01*
X265237Y213299D02*
X275100D01*
X266137Y212399D02*
X275100D01*
X267037Y211499D02*
X275100D01*
X267937Y210599D02*
X275100D01*
X268837Y209699D02*
X275100D01*
X269731Y208799D02*
X275100D01*
X270289Y207899D02*
X275100D01*
X270493Y206999D02*
X275100D01*
X270500Y206099D02*
X275100D01*
X270500Y205199D02*
X275100D01*
X270500Y204299D02*
X275100D01*
X270500Y203399D02*
X275100D01*
X270500Y202499D02*
X275100D01*
X270500Y201599D02*
X275100D01*
X270500Y200699D02*
X275100D01*
X270500Y199799D02*
X275100D01*
X270500Y198899D02*
X275100D01*
X270500Y197999D02*
X275100D01*
X270500Y197099D02*
X275100D01*
X270500Y196199D02*
X275100D01*
X270500Y195299D02*
X275100D01*
X270500Y194399D02*
X275100D01*
X270500Y193499D02*
X275100D01*
X270500Y192599D02*
X275100D01*
X270500Y191699D02*
X275100D01*
X270500Y190799D02*
X275100D01*
X270500Y189899D02*
X275100D01*
X270500Y188999D02*
X275100D01*
X270500Y188099D02*
X275100D01*
X270500Y187199D02*
X275100D01*
X270500Y186299D02*
X275100D01*
X270500Y185399D02*
X275100D01*
X270500Y184499D02*
X275100D01*
X270500Y183599D02*
X275100D01*
X270500Y182699D02*
X275100D01*
X270500Y181799D02*
X275100D01*
X270500Y180899D02*
X275100D01*
X270500Y179999D02*
X275100D01*
X270500Y179099D02*
X275100D01*
X270500Y178199D02*
X275100D01*
X270500Y177299D02*
X275100D01*
X270500Y176399D02*
X275100D01*
X270500Y175499D02*
X275100D01*
X270500Y174599D02*
X275100D01*
X270500Y173699D02*
X275100D01*
X270500Y172799D02*
X275100D01*
X270500Y171899D02*
X275100D01*
X270500Y170999D02*
X275100D01*
X270500Y170099D02*
X275100D01*
X270500Y169199D02*
X275100D01*
X270500Y168299D02*
X275100D01*
X270500Y167399D02*
X275100D01*
X270500Y166499D02*
X275100D01*
X270500Y165599D02*
X275100D01*
X270500Y164699D02*
X275100D01*
X270500Y163799D02*
X275100D01*
X270500Y162899D02*
X275100D01*
X270500Y161999D02*
X275100D01*
X270500Y161099D02*
X275100D01*
X270500Y160199D02*
X275100D01*
X270500Y159299D02*
X275100D01*
X270500Y158399D02*
X275100D01*
X270500Y157499D02*
X275100D01*
X270500Y156599D02*
X275100D01*
X270500Y155699D02*
X275100D01*
X270500Y154799D02*
X275100D01*
X270500Y153899D02*
X275100D01*
X270500Y152999D02*
X275100D01*
X270500Y152099D02*
X275100D01*
X270500Y151199D02*
X275100D01*
X270500Y150299D02*
X275100D01*
X270500Y149399D02*
X275100D01*
X270500Y148499D02*
X275100D01*
X270500Y147599D02*
X275100D01*
X270500Y146699D02*
X275100D01*
X270500Y145799D02*
X275100D01*
X270500Y144899D02*
X275100D01*
X270500Y143999D02*
X275100D01*
X270500Y143099D02*
X275100D01*
X270500Y142199D02*
X275100D01*
X270500Y141299D02*
X275100D01*
X270500Y140399D02*
X275100D01*
X270500Y139499D02*
X275100D01*
X270500Y138599D02*
X275100D01*
X270500Y137699D02*
X275100D01*
X270500Y136799D02*
X275100D01*
X270500Y135899D02*
X275100D01*
X270472Y134999D02*
X275100D01*
X270342Y134099D02*
X275100D01*
X270104Y133199D02*
X275100D01*
X269748Y132299D02*
X275100D01*
X269254Y131399D02*
X275100D01*
X268589Y130499D02*
X275100D01*
X267688Y129599D02*
X275100D01*
X266391Y128699D02*
X275100D01*
X263819Y127799D02*
X275100D01*
X233500Y126899D02*
X275100D01*
X233500Y125999D02*
X275100D01*
X233500Y125099D02*
X275100D01*
X233500Y124199D02*
X275100D01*
X233500Y123299D02*
X275100D01*
X233500Y122399D02*
X275100D01*
X233500Y121499D02*
X275100D01*
X233500Y120599D02*
X275100D01*
X233500Y119699D02*
X275100D01*
X233500Y118799D02*
X275100D01*
X233500Y117899D02*
X275100D01*
X233500Y116999D02*
X275100D01*
X233500Y116099D02*
X275100D01*
X233500Y115199D02*
X275100D01*
X233964Y365399D02*
X274636D01*
X233500Y127799D02*
X261181D01*
X233500Y128699D02*
X258609D01*
X233500Y129599D02*
X257312D01*
X233500Y130499D02*
X256411D01*
X233500Y131399D02*
X255746D01*
X233500Y132299D02*
X255252D01*
X233500Y133199D02*
X254896D01*
X233500Y134099D02*
X254658D01*
X233500Y134999D02*
X254528D01*
X252924Y185399D02*
X254500D01*
X252197Y184499D02*
X254500D01*
X251357Y183599D02*
X254500D01*
X250380Y182699D02*
X254500D01*
X249222Y181799D02*
X254500D01*
X247809Y180899D02*
X254500D01*
X245977Y179999D02*
X254500D01*
X243138Y179099D02*
X254500D01*
X233500Y178199D02*
X254500D01*
X233500Y177299D02*
X254500D01*
X233500Y176399D02*
X254500D01*
X233500Y175499D02*
X254500D01*
X233500Y174599D02*
X254500D01*
X233500Y173699D02*
X254500D01*
X233500Y172799D02*
X254500D01*
X233500Y171899D02*
X254500D01*
X233500Y170999D02*
X254500D01*
X233500Y170099D02*
X254500D01*
X233500Y169199D02*
X254500D01*
X233500Y168299D02*
X254500D01*
X233500Y167399D02*
X254500D01*
X233500Y166499D02*
X254500D01*
X233500Y165599D02*
X254500D01*
X233500Y164699D02*
X254500D01*
X233500Y163799D02*
X254500D01*
X233500Y162899D02*
X254500D01*
X233500Y161999D02*
X254500D01*
X233500Y161099D02*
X254500D01*
X233500Y160199D02*
X254500D01*
X233500Y159299D02*
X254500D01*
X233500Y158399D02*
X254500D01*
X233500Y157499D02*
X254500D01*
X233500Y156599D02*
X254500D01*
X233500Y155699D02*
X254500D01*
X233500Y154799D02*
X254500D01*
X233500Y153899D02*
X254500D01*
X233500Y152999D02*
X254500D01*
X233500Y152099D02*
X254500D01*
X233500Y151199D02*
X254500D01*
X233500Y150299D02*
X254500D01*
X233500Y149399D02*
X254500D01*
X233500Y148499D02*
X254500D01*
X233500Y147599D02*
X254500D01*
X233500Y146699D02*
X254500D01*
X233500Y145799D02*
X254500D01*
X233500Y144899D02*
X254500D01*
X233500Y143999D02*
X254500D01*
X233500Y143099D02*
X254500D01*
X233500Y142199D02*
X254500D01*
X233500Y141299D02*
X254500D01*
X233500Y140399D02*
X254500D01*
X233500Y139499D02*
X254500D01*
X233500Y138599D02*
X254500D01*
X233500Y137699D02*
X254500D01*
X233500Y136799D02*
X254500D01*
X233500Y135899D02*
X254500D01*
X253556Y186299D02*
X254441D01*
X233500Y179099D02*
X235862D01*
X248934Y181599D02*
X250500D01*
X247447Y180699D02*
X250500D01*
X245476Y179799D02*
X250500D01*
X242076Y178899D02*
X250500D01*
X204500Y177999D02*
X250500D01*
X204500Y177099D02*
X250500D01*
X204778Y176199D02*
X250500D01*
X205271Y175299D02*
X250500D01*
X205577Y174399D02*
X250500D01*
X205728Y173499D02*
X250500D01*
X205736Y172599D02*
X250500D01*
X205601Y171699D02*
X250500D01*
X205312Y170799D02*
X250500D01*
X204842Y169899D02*
X250500D01*
X204500Y168999D02*
X250500D01*
X204500Y168099D02*
X250500D01*
X197541Y167199D02*
X250500D01*
X197500Y166299D02*
X250500D01*
X197500Y165399D02*
X250500D01*
X197500Y164499D02*
X250500D01*
X197500Y163599D02*
X250500D01*
X197500Y162699D02*
X250500D01*
X197500Y161799D02*
X250500D01*
X194030Y160899D02*
X250500D01*
X192837Y159999D02*
X250500D01*
X163806Y159099D02*
X250500D01*
X163250Y158199D02*
X250500D01*
X163245Y157299D02*
X250500D01*
X163018Y156399D02*
X250500D01*
X162313Y155499D02*
X250500D01*
X159306Y154599D02*
X250500D01*
X158406Y153699D02*
X250500D01*
X157506Y152799D02*
X250500D01*
X156606Y151899D02*
X250500D01*
X155706Y150999D02*
X250500D01*
X154806Y150099D02*
X250500D01*
X154500Y149199D02*
X250500D01*
X154500Y148299D02*
X250500D01*
X154500Y147399D02*
X250500D01*
X154500Y146499D02*
X250500D01*
X154500Y145599D02*
X250500D01*
X154500Y144699D02*
X250500D01*
X154500Y143799D02*
X250500D01*
X154500Y142899D02*
X250500D01*
X154500Y141999D02*
X250500D01*
X154500Y141099D02*
X250500D01*
X154500Y140199D02*
X250500D01*
X154500Y139299D02*
X250500D01*
X154500Y138399D02*
X250500D01*
X154500Y137499D02*
X250500D01*
X154500Y136599D02*
X250500D01*
X154500Y135699D02*
X250500D01*
X154500Y134799D02*
X250500D01*
X154500Y133899D02*
X250500D01*
X154500Y132999D02*
X250500D01*
X154500Y132099D02*
X250500D01*
X154500Y131199D02*
X250500D01*
X154500Y130299D02*
X250500D01*
X154500Y129399D02*
X250500D01*
X154500Y128499D02*
X250500D01*
X154500Y127599D02*
X250500D01*
X154500Y126699D02*
X250500D01*
X154500Y125799D02*
X250500D01*
X154500Y124899D02*
X250500D01*
X154500Y123999D02*
X250500D01*
X154500Y123099D02*
X250500D01*
X154500Y122199D02*
X250500D01*
X154500Y121299D02*
X250500D01*
X154500Y120399D02*
X250500D01*
X154500Y119499D02*
X250500D01*
X154500Y118599D02*
X250500D01*
X154500Y117699D02*
X250500D01*
X154500Y116799D02*
X250500D01*
X154500Y115899D02*
X250500D01*
X154510Y114999D02*
X250490D01*
X204632Y178899D02*
X236924D01*
X204650Y179799D02*
X233524D01*
X204650Y180699D02*
X231553D01*
X204650Y181599D02*
X230066D01*
X204650Y182499D02*
X228860D01*
X204650Y183399D02*
X227847D01*
X204650Y184299D02*
X226979D01*
X204618Y185199D02*
X226229D01*
X204500Y186099D02*
X225577D01*
X204500Y186999D02*
X225010D01*
X204500Y187899D02*
X224518D01*
X204500Y188799D02*
X224094D01*
X204500Y189699D02*
X223733D01*
X204500Y200499D02*
X223461D01*
X204500Y190599D02*
X223431D01*
X204698Y201399D02*
X223399D01*
X204500Y199599D02*
X223208D01*
X204500Y191499D02*
X223183D01*
X204500Y198699D02*
X223007D01*
X204500Y192399D02*
X222989D01*
X204500Y197799D02*
X222858D01*
X204500Y193299D02*
X222845D01*
X204500Y196899D02*
X222758D01*
X204500Y194199D02*
X222750D01*
X204500Y195999D02*
X222707D01*
X204500Y195099D02*
X222705D01*
X164706Y159999D02*
X187163D01*
X165606Y160899D02*
X185970D01*
X233500Y328799D02*
X257500D01*
X233500Y327899D02*
X257500D01*
X233500Y326999D02*
X257500D01*
X233500Y326099D02*
X257500D01*
X233500Y325199D02*
X257500D01*
X233500Y324299D02*
X257500D01*
X233500Y323399D02*
X257500D01*
X233500Y322499D02*
X257500D01*
X233500Y321599D02*
X257500D01*
X233500Y320699D02*
X257500D01*
X233500Y319799D02*
X257500D01*
X233500Y318899D02*
X257500D01*
X233500Y317999D02*
X257500D01*
X233500Y317099D02*
X257500D01*
X233500Y316199D02*
X257500D01*
X233500Y315299D02*
X257500D01*
X233500Y314399D02*
X257500D01*
X233500Y267799D02*
X257500D01*
X233500Y266899D02*
X257500D01*
X233500Y265999D02*
X257500D01*
X233500Y265099D02*
X257500D01*
X233500Y264199D02*
X257500D01*
X233500Y263299D02*
X257500D01*
X233500Y262399D02*
X257500D01*
X233500Y261499D02*
X257500D01*
X233500Y260599D02*
X257500D01*
X233500Y259699D02*
X257500D01*
X233500Y258799D02*
X257500D01*
X233500Y257899D02*
X257500D01*
X233500Y256999D02*
X257500D01*
X233500Y256099D02*
X257500D01*
X233500Y255199D02*
X257500D01*
X233500Y254299D02*
X257500D01*
X233500Y253399D02*
X257500D01*
X254300Y195500D02*
G03X254300I-14800J0D01*
G01X165300Y284500D02*
G03X165300I-14800J0D01*
G54D31*
G01X130000Y129937D03*
X147500D03*
G54D35*
X200000Y173000D03*
X190000D03*
Y165000D03*
X200000D03*
G54D43*
X194500Y195250D02*
Y190750D01*
X207500Y195250D02*
Y190750D01*
G54D44*
X156000Y309000D03*
Y317000D03*
X164000Y313000D03*
X183000Y265000D03*
X175000D03*
X179000Y273000D03*
G54D45*
X237236Y222984D02*
Y221016D01*
X216764Y222984D02*
Y221016D01*
X238984Y235764D02*
X237016D01*
X238984Y256236D02*
X237016D01*
Y285236D02*
X238984D01*
X237016Y264764D02*
X238984D01*
Y296764D02*
X237016D01*
X238984Y317236D02*
X237016D01*
Y346236D02*
X238984D01*
X237016Y325764D02*
X238984D01*
G54D46*
X142500Y350000D03*
X122500D03*
X251955Y240675D03*
Y260675D03*
Y280675D03*
X252000Y300000D03*
Y320000D03*
Y340000D03*
X242500Y137500D03*
X262500D03*
G54D47*
X171000Y154000D03*
X219000D03*
G54D48*
X139425Y220600D02*
Y215400D01*
X141975Y220600D02*
Y215400D01*
X144525Y220600D02*
Y215400D01*
X147075Y220600D02*
Y215400D01*
X149625Y220600D02*
Y215400D01*
X152175Y220600D02*
Y215400D01*
X154725Y220600D02*
Y215400D01*
X157275Y220600D02*
Y215400D01*
X159825Y220600D02*
Y215400D01*
X162375Y220600D02*
Y215400D01*
X164925Y220600D02*
Y215400D01*
X167475Y220600D02*
Y215400D01*
X170025Y220600D02*
Y215400D01*
X172575Y220600D02*
Y215400D01*
Y192600D02*
Y187400D01*
X170025Y192600D02*
Y187400D01*
X167475Y192600D02*
Y187400D01*
X164925Y192600D02*
Y187400D01*
X162375Y192600D02*
Y187400D01*
X159825Y192600D02*
Y187400D01*
X157275Y192600D02*
Y187400D01*
X154725Y192600D02*
Y187400D01*
X152175Y192600D02*
Y187400D01*
X149625Y192600D02*
Y187400D01*
X147075Y192600D02*
Y187400D01*
X144525Y192600D02*
Y187400D01*
X141975Y192600D02*
Y187400D01*
X139425Y192600D02*
Y187400D01*
G54D49*
X191300Y297500D02*
X196300D01*
X191300Y302500D02*
X196300D01*
X191300Y307500D02*
X196300D01*
X191300Y312500D02*
X196300D01*
X191300Y317500D02*
X196300D01*
X191300Y322500D02*
X196300D01*
X191300Y327500D02*
X196300D01*
X191300Y332500D02*
X196300D01*
X212700D02*
X217700D01*
X212700Y327500D02*
X217700D01*
X212700Y322500D02*
X217700D01*
X212700Y317500D02*
X217700D01*
X212700Y312500D02*
X217700D01*
X212700Y307500D02*
X217700D01*
X212700Y302500D02*
X217700D01*
X212700Y297500D02*
X217700D01*
G54D50*
X138000Y316500D02*
Y317900D01*
X128000Y316500D02*
Y317900D01*
Y342100D02*
Y343500D01*
X138000Y342100D02*
Y343500D01*
G54D51*
X181000Y281000D03*
X214000D03*
G74*
X0Y0D02*
M02*
