%
T1C.035F197S55
X01525Y012
X01525Y013
X01525Y014
X01525Y016
X01525Y017
X0179Y0207
X024293Y016707
X025707Y016707
X025707Y015293
X024293Y015293
X0299Y0207
T2C.037F197S55
X02275Y0129
X02275Y0162
T3C.04F139S55
X028Y01375
X0333Y0184
X0313Y0184
X03Y01375
X032Y01375
X0353Y0184
T4C.12598F035S794
X01122Y016
X03878Y016
M30
