*
*
G04 PADS Layout (Build Number 2008.43.1) generated Gerber (RS-274-X) file*
G04 PC Version=2.1*
*
%IN "IRMRAK_final_nullvia.pc"*%
*
%MOIN*%
*
%FSLAX35Y35*%
*
*
*
*
G04 PC Standard Apertures*
*
*
G04 Thermal Relief Aperture macro.*
%AMTER*
1,1,$1,0,0*
1,0,$1-$2,0,0*
21,0,$3,$4,0,0,45*
21,0,$3,$4,0,0,135*
%
*
*
G04 Annular Aperture macro.*
%AMANN*
1,1,$1,0,0*
1,0,$2,0,0*
%
*
*
G04 Odd Aperture macro.*
%AMODD*
1,1,$1,0,0*
1,0,$1-0.005,0,0*
%
*
*
G04 PC Custom Aperture Macros*
*
*
*
*
*
*
G04 PC Aperture Table*
*
%ADD024C,0.001*%
%ADD025C,0.01*%
%ADD026C,0.00787*%
%ADD036C,0.008*%
*
*
*
*
G04 PC Circuitry*
G04 Layer Name IRMRAK_final_nullvia.pc - circuitry*
%LPD*%
*
*
G04 PC Custom Flashes*
G04 Layer Name IRMRAK_final_nullvia.pc - flashes*
%LPD*%
*
*
G04 PC Circuitry*
G04 Layer Name IRMRAK_final_nullvia.pc - circuitry*
%LPD*%
*
G54D24*
G54D25*
G01X320591Y116563D02*
Y110000D01*
X319000Y116563D02*
X322182D01*
X324227D02*
X327409Y110000D01*
Y116563D02*
X324227Y110000D01*
X275000Y116563D02*
Y110000D01*
Y116563D02*
X277045D01*
X277045D02*
X277727Y116250D01*
X277955Y115938*
X277955D02*
X278182Y115313D01*
X278182D02*
Y114688D01*
X278182D02*
X277955Y114063D01*
X277955D02*
X277727Y113750D01*
X277045Y113438*
X277045D02*
X275000D01*
X276591D02*
X278182Y110000D01*
X280227Y116563D02*
X283409Y110000D01*
Y116563D02*
X280227Y110000D01*
X297409Y115000D02*
X297182Y115625D01*
X296727Y116250*
X296273Y116563*
X296273D02*
X295364D01*
X295364D02*
X294909Y116250D01*
X294455Y115625*
X294227Y115000*
X294000Y114063*
X294000D02*
Y112500D01*
X294227Y111563*
X294227D02*
X294455Y110938D01*
X294455D02*
X294909Y110313D01*
X294909D02*
X295364Y110000D01*
X296273*
X296727Y110313*
X296727D02*
X297182Y110938D01*
X297182D02*
X297409Y111563D01*
X297409D02*
Y112500D01*
X296273D02*
X297409D01*
X299455Y116563D02*
Y110000D01*
Y116563D02*
X302636Y110000D01*
Y116563D02*
Y110000D01*
X304682Y116563D02*
Y110000D01*
Y116563D02*
X306273D01*
X306273D02*
X306955Y116250D01*
X307409Y115625*
X307636Y115000*
X307864Y114063*
X307864D02*
Y112500D01*
X307636Y111563*
X307636D02*
X307409Y110938D01*
X307409D02*
X306955Y110313D01*
X306955D02*
X306273Y110000D01*
X304682*
X330409Y210000D02*
X330182Y210625D01*
X329727Y211250*
X329273Y211563*
X329273D02*
X328364D01*
X328364D02*
X327909Y211250D01*
X327455Y210625*
X327227Y210000*
X327000Y209063*
X327000D02*
Y207500D01*
X327227Y206563*
X327227D02*
X327455Y205938D01*
X327455D02*
X327909Y205313D01*
X327909D02*
X328364Y205000D01*
X329273*
X329727Y205313*
X329727D02*
X330182Y205938D01*
X330182D02*
X330409Y206563D01*
X330409D02*
Y207500D01*
X329273D02*
X330409D01*
X332455Y211563D02*
Y205000D01*
Y211563D02*
X335636Y205000D01*
Y211563D02*
Y205000D01*
X337682Y211563D02*
Y205000D01*
Y211563D02*
X339273D01*
X339273D02*
X339955Y211250D01*
X340409Y210625*
X340636Y210000*
X340864Y209063*
X340864D02*
Y207500D01*
X340636Y206563*
X340636D02*
X340409Y205938D01*
X340409D02*
X339955Y205313D01*
X339955D02*
X339273Y205000D01*
X337682*
X308045Y209625D02*
Y204000D01*
X306000Y206813D02*
X310091D01*
X312136Y210563D02*
Y205875D01*
X312364Y204938*
X312364D02*
X312818Y204313D01*
X312818D02*
X313500Y204000D01*
X313955*
X314636Y204313*
X314636D02*
X315091Y204938D01*
X315091D02*
X315318Y205875D01*
Y210563*
X347000Y211563D02*
Y205000D01*
Y211563D02*
X348591D01*
X348591D02*
X349273Y211250D01*
X349727Y210625*
X349955Y210000*
X350182Y209063*
X350182D02*
Y207500D01*
X349955Y206563*
X349955D02*
X349727Y205938D01*
X349727D02*
X349273Y205313D01*
X349273D02*
X348591Y205000D01*
X347000*
X353591Y211563D02*
X353136Y211250D01*
X352682Y210625*
X352455Y210000*
X352227Y209063*
X352227D02*
Y207500D01*
X352455Y206563*
X352455D02*
X352682Y205938D01*
X352682D02*
X353136Y205313D01*
X353136D02*
X353591Y205000D01*
X354500*
X354955Y205313*
X354955D02*
X355409Y205938D01*
X355409D02*
X355636Y206563D01*
X355636D02*
X355864Y207500D01*
Y209063*
X355864D02*
X355636Y210000D01*
X355409Y210625*
X354955Y211250*
X354500Y211563*
X354500D02*
X353591D01*
X357909D02*
Y205000D01*
Y211563D02*
X359727Y205000D01*
X361545Y211563D02*
X359727Y205000D01*
X361545Y211563D02*
Y205000D01*
X363591Y211563D02*
Y205000D01*
Y211563D02*
X366545D01*
X363591Y208438D02*
X365409D01*
X363591Y205000D02*
X366545D01*
X177000Y187563D02*
Y181000D01*
X179045Y187563D02*
Y181000D01*
Y187563D02*
X181091D01*
X181091D02*
X181773Y187250D01*
X182000Y186938*
X182000D02*
X182227Y186313D01*
X182227D02*
Y185688D01*
X182227D02*
X182000Y185063D01*
X182000D02*
X181773Y184750D01*
X181091Y184438*
X181091D02*
X179045D01*
X180636D02*
X182227Y181000D01*
X184273Y187563D02*
Y181000D01*
Y187563D02*
X186091Y181000D01*
X187909Y187563D02*
X186091Y181000D01*
X187909Y187563D02*
Y181000D01*
X189955Y187563D02*
Y181000D01*
Y187563D02*
X192000D01*
X192000D02*
X192682Y187250D01*
X192909Y186938*
X192909D02*
X193136Y186313D01*
X193136D02*
Y185688D01*
X193136D02*
X192909Y185063D01*
X192909D02*
X192682Y184750D01*
X192000Y184438*
X192000D02*
X189955D01*
X191545D02*
X193136Y181000D01*
X197000Y187563D02*
X195182Y181000D01*
X197000Y187563D02*
X198818Y181000D01*
X195864Y183188D02*
X198136D01*
X200864Y187563D02*
Y181000D01*
X204045Y187563D02*
X200864Y183188D01*
X202000Y184750D02*
X204045Y181000D01*
X208364Y187563D02*
X206091Y183188D01*
X206091D02*
X209500D01*
X208364Y187563D02*
Y181000D01*
X176227Y175000D02*
Y175313D01*
X176227D02*
X176455Y175938D01*
X176455D02*
X176682Y176250D01*
X177136Y176563*
X177136D02*
X178045D01*
X178045D02*
X178500Y176250D01*
X178727Y175938*
X178727D02*
X178955Y175313D01*
X178955D02*
Y174688D01*
X178955D02*
X178727Y174063D01*
X178727D02*
X178273Y173125D01*
X176000Y170000*
X179182*
X182591Y176563D02*
X181909Y176250D01*
X181455Y175313*
X181455D02*
X181227Y173750D01*
Y172813*
X181227D02*
X181455Y171250D01*
X181909Y170313*
X181909D02*
X182591Y170000D01*
X183045*
X183727Y170313*
X183727D02*
X184182Y171250D01*
X184409Y172813*
X184409D02*
Y173750D01*
X184182Y175313*
X184182D02*
X183727Y176250D01*
X183045Y176563*
X183045D02*
X182591D01*
X187818D02*
X187136Y176250D01*
X186682Y175313*
X186682D02*
X186455Y173750D01*
Y172813*
X186455D02*
X186682Y171250D01*
X187136Y170313*
X187136D02*
X187818Y170000D01*
X188273*
X188955Y170313*
X188955D02*
X189409Y171250D01*
X189636Y172813*
X189636D02*
Y173750D01*
X189409Y175313*
X189409D02*
X188955Y176250D01*
X188273Y176563*
X188273D02*
X187818D01*
X192818D02*
X192136Y176250D01*
X191909Y175625*
Y175000*
X192136Y174375*
X192591Y174063*
X192591D02*
X193500Y173750D01*
X194182Y173438*
X194182D02*
X194636Y172813D01*
X194636D02*
X194864Y172188D01*
X194864D02*
Y171250D01*
X194636Y170625*
X194409Y170313*
X194409D02*
X193727Y170000D01*
X192818*
X192136Y170313*
X192136D02*
X191909Y170625D01*
X191682Y171250*
Y172188*
X191682D02*
X191909Y172813D01*
X191909D02*
X192364Y173438D01*
X192364D02*
X193045Y173750D01*
X193955Y174063*
X193955D02*
X194409Y174375D01*
X194636Y175000*
Y175625*
X194409Y176250*
X193727Y176563*
X193727D02*
X192818D01*
X138437Y139000D02*
X145000D01*
X139375Y144227D02*
X138750Y143773D01*
X138437Y143091*
X138437D02*
Y142182D01*
X138437D02*
X138750Y141500D01*
X139375Y141045*
X140000*
X140625Y141273*
X140937Y141500*
X140937D02*
X141250Y141955D01*
X141875Y143318*
X142187Y143773*
X142187D02*
X142500Y144000D01*
X143125Y144227*
X144062*
X144062D02*
X144687Y143773D01*
X144687D02*
X145000Y143091D01*
Y142182*
X144687Y141500*
X144687D02*
X144062Y141045D01*
X138437Y146273D02*
X145000D01*
X138437D02*
Y148318D01*
X138437D02*
X138750Y149000D01*
X139062Y149227*
X139062D02*
X139687Y149455D01*
X139687D02*
X140625D01*
X141250Y149227*
X141562Y149000*
X141562D02*
X141875Y148318D01*
Y146273*
G54D26*
X112200Y163938D02*
Y160000D01*
Y163938D02*
X113291Y160000D01*
X114382Y163938D02*
X113291Y160000D01*
X114382Y163938D02*
Y160000D01*
X115609Y163188D02*
X115882Y163375D01*
X116291Y163938*
X116291D02*
Y160000D01*
X387800Y163938D02*
Y160000D01*
Y163938D02*
X388891Y160000D01*
X389982Y163938D02*
X388891Y160000D01*
X389982Y163938D02*
Y160000D01*
X391345Y163000D02*
Y163188D01*
X391345D02*
X391482Y163563D01*
X391482D02*
X391618Y163750D01*
X391891Y163938*
X391891D02*
X392436D01*
X392436D02*
X392709Y163750D01*
X392845Y163563*
X392845D02*
X392982Y163188D01*
X392982D02*
Y162813D01*
X392982D02*
X392845Y162438D01*
X392845D02*
X392573Y161875D01*
X391209Y160000*
X393118*
G54D36*
X147500Y115000D02*
Y175000D01*
X157500*
Y115000*
X147500*
X329685Y119783D02*
X270315D01*
Y155217*
X329685*
Y119783*
X362685Y166283D02*
X303315D01*
Y201717*
X362685*
Y166283*
X142364Y119938D02*
Y116938D01*
X142364D02*
X142227Y116375D01*
X142091Y116188*
X142091D02*
X141818Y116000D01*
X141545*
X141273Y116188*
X141273D02*
X141136Y116375D01*
X141000Y116938*
X141000D02*
Y117313D01*
X143727Y119000D02*
Y119188D01*
X143727D02*
X143864Y119563D01*
X143864D02*
X144000Y119750D01*
X144273Y119938*
X144273D02*
X144818D01*
X144818D02*
X145091Y119750D01*
X145227Y119563*
X145227D02*
X145364Y119188D01*
X145364D02*
Y118813D01*
X145364D02*
X145227Y118438D01*
X145227D02*
X144955Y117875D01*
X143591Y116000*
X145500*
X265364Y123938D02*
Y120938D01*
X265364D02*
X265227Y120375D01*
X265091Y120188*
X265091D02*
X264818Y120000D01*
X264545*
X264273Y120188*
X264273D02*
X264136Y120375D01*
X264000Y120938*
X264000D02*
Y121313D01*
X266864Y123938D02*
X268364D01*
X268364D02*
X267545Y122438D01*
X267545D02*
X267955D01*
X267955D02*
X268227Y122250D01*
X268364Y122063*
X268364D02*
X268500Y121500D01*
Y121125*
X268364Y120563*
X268364D02*
X268091Y120188D01*
X268091D02*
X267682Y120000D01*
X267273*
X266864Y120188*
X266864D02*
X266727Y120375D01*
X266591Y120750*
X297364Y170938D02*
Y167938D01*
X297364D02*
X297227Y167375D01*
X297091Y167188*
X297091D02*
X296818Y167000D01*
X296545*
X296273Y167188*
X296273D02*
X296136Y167375D01*
X296000Y167938*
X296000D02*
Y168313D01*
X299955Y170938D02*
X298591Y168313D01*
X298591D02*
X300636D01*
X299955Y170938D02*
Y167000D01*
X0Y0D02*
M02*
