%
T1C.01969F095S3
X067177Y018639
X067177Y021939
T2C.02F197S55
X070134Y021032
X06872Y021032
X06872Y022447
X070134Y022447
T3C.035F197S55
X059677Y017739
X059677Y018739
X059677Y019739
X059677Y021739
X059677Y022739
T4C.04F139S55
X062327Y026439
X074327Y026439
X074427Y019489
X072427Y019489
X076427Y019489
X077727Y024139
X075727Y024139
X079727Y024139
T5C.12598F035S794
X055647Y021739
X083207Y021739
M30
