*
*
G04 PADS Layout (Build Number 2008.43.1) generated Gerber (RS-274-X) file*
G04 PC Version=2.1*
*
%IN "IRMRAK_final_nullvia.pc"*%
*
%MOIN*%
*
%FSLAX35Y35*%
*
*
*
*
G04 PC Standard Apertures*
*
*
G04 Thermal Relief Aperture macro.*
%AMTER*
1,1,$1,0,0*
1,0,$1-$2,0,0*
21,0,$3,$4,0,0,45*
21,0,$3,$4,0,0,135*
%
*
*
G04 Annular Aperture macro.*
%AMANN*
1,1,$1,0,0*
1,0,$2,0,0*
%
*
*
G04 Odd Aperture macro.*
%AMODD*
1,1,$1,0,0*
1,0,$1-0.005,0,0*
%
*
*
G04 PC Custom Aperture Macros*
*
*
*
*
*
*
G04 PC Aperture Table*
*
%ADD024C,0.001*%
%ADD025C,0.01*%
%ADD030R,0.049X0.049*%
%ADD032R,0.08X0.08*%
%ADD033C,0.24622*%
%ADD038R,0.035X0.035*%
%ADD043R,0.085X0.085*%
%ADD044R,0.1X0.1*%
%ADD045R,0.09X0.09*%
%ADD046C,0.035*%
%ADD047R,0.065X0.065*%
%ADD048R,0.08874X0.08874*%
%ADD049C,0.076*%
*
*
*
*
G04 PC Circuitry*
G04 Layer Name IRMRAK_final_nullvia.pc - circuitry*
%LPD*%
*
*
G04 PC Custom Flashes*
G04 Layer Name IRMRAK_final_nullvia.pc - flashes*
%LPD*%
*
*
G04 PC Circuitry*
G04 Layer Name IRMRAK_final_nullvia.pc - circuitry*
%LPD*%
*
G54D24*
G54D25*
G01X127273Y185000D02*
Y185313D01*
X127273D02*
X127045Y185938D01*
X127045D02*
X126818Y186250D01*
X126364Y186563*
X126364D02*
X125455D01*
X125455D02*
X125000Y186250D01*
X124773Y185938*
X124773D02*
X124545Y185313D01*
X124545D02*
Y184688D01*
X124545D02*
X124773Y184063D01*
X124773D02*
X125227Y183125D01*
X127500Y180000*
X124318*
X120909Y186563D02*
X121591Y186250D01*
X122045Y185313*
X122045D02*
X122273Y183750D01*
Y182813*
X122273D02*
X122045Y181250D01*
X121591Y180313*
X121591D02*
X120909Y180000D01*
X120455*
X119773Y180313*
X119773D02*
X119318Y181250D01*
X119091Y182813*
X119091D02*
Y183750D01*
X119318Y185313*
X119318D02*
X119773Y186250D01*
X120455Y186563*
X120455D02*
X120909D01*
X115682D02*
X116364Y186250D01*
X116818Y185313*
X116818D02*
X117045Y183750D01*
Y182813*
X117045D02*
X116818Y181250D01*
X116364Y180313*
X116364D02*
X115682Y180000D01*
X115227*
X114545Y180313*
X114545D02*
X114091Y181250D01*
X113864Y182813*
X113864D02*
Y183750D01*
X114091Y185313*
X114091D02*
X114545Y186250D01*
X115227Y186563*
X115227D02*
X115682D01*
X110682D02*
X111364Y186250D01*
X111591Y185625*
Y185000*
X111364Y184375*
X110909Y184063*
X110909D02*
X110000Y183750D01*
X109318Y183438*
X109318D02*
X108864Y182813D01*
X108864D02*
X108636Y182188D01*
X108636D02*
Y181250D01*
X108864Y180625*
X109091Y180313*
X109091D02*
X109773Y180000D01*
X110682*
X111364Y180313*
X111364D02*
X111591Y180625D01*
X111818Y181250*
Y182188*
X111818D02*
X111591Y182813D01*
X111591D02*
X111136Y183438D01*
X111136D02*
X110455Y183750D01*
X109545Y184063*
X109545D02*
X109091Y184375D01*
X108864Y185000*
Y185625*
X109091Y186250*
X109773Y186563*
X109773D02*
X110682D01*
X193600Y208600D02*
X187000D01*
Y206300*
X193600*
Y208600*
Y203700D02*
X187000D01*
Y201400*
X193600*
Y203700*
Y198600D02*
X187000D01*
Y196300*
X193600*
Y198600*
Y193700D02*
X187000D01*
Y191400*
X193600*
Y193700*
X215000Y208600D02*
X208400D01*
Y206300*
X215000*
Y208600*
Y198700D02*
X208400D01*
Y196400*
X215000*
Y198700*
Y203700D02*
X208400D01*
Y201400*
X215000*
Y203700*
X187000Y208099D02*
X193600D01*
X187000Y207199D02*
X193600D01*
X187000Y203199D02*
X193600D01*
X187000Y202299D02*
X193600D01*
X187000Y198099D02*
X193600D01*
X187000Y197199D02*
X193600D01*
X187000Y193199D02*
X193600D01*
X187000Y192299D02*
X193600D01*
X208400Y208099D02*
X215000D01*
X208400Y207199D02*
X215000D01*
X208400Y198199D02*
X215000D01*
X208400Y197299D02*
X215000D01*
X208400Y203199D02*
X215000D01*
X208400Y202299D02*
X215000D01*
G54D30*
X142150Y161200D02*
X143850D01*
X142150Y168800D02*
X143850D01*
X255800Y175150D02*
Y176850D01*
X248200Y175150D02*
Y176850D01*
X364150Y141200D02*
X365850D01*
X364150Y148800D02*
X365850D01*
X348800Y156150D02*
Y157850D01*
X341200Y156150D02*
Y157850D01*
X364150Y127200D02*
X365850D01*
X364150Y134800D02*
X365850D01*
X364150Y113200D02*
X365850D01*
X364150Y120800D02*
X365850D01*
X164850Y147800D02*
X163150D01*
X164850Y140200D02*
X163150D01*
X158700Y120600D02*
Y119400D01*
X166300Y120600D02*
Y119400D01*
X158700Y130600D02*
Y129400D01*
X166300Y130600D02*
Y129400D01*
Y169400D02*
Y170600D01*
X158700Y169400D02*
Y170600D01*
X225600Y147800D02*
X224400D01*
X225600Y140200D02*
X224400D01*
X258100Y144300D02*
X256900D01*
X258100Y136700D02*
X256900D01*
X257850Y206800D02*
X256150D01*
X257850Y199200D02*
X256150D01*
X334850Y161800D02*
X333150D01*
X334850Y154200D02*
X333150D01*
G54D32*
X211700Y199650D02*
Y205350D01*
X190300Y194700D02*
Y205300D01*
G54D33*
X112200Y160000D03*
X387800D03*
G54D38*
X213950Y192500D02*
X209450D01*
G54D43*
X152500Y120000D03*
Y130000D03*
Y140000D03*
Y160000D03*
Y170000D03*
X257071Y152929D03*
X242929D03*
Y167071D03*
X257071D03*
G54D44*
X320000Y137500D03*
X300000D03*
X280000D03*
X353000Y184000D03*
X333000D03*
X313000D03*
G54D45*
X179000Y207000D03*
X299000D03*
G54D46*
X358200Y148500D02*
X353200D01*
X358200Y143500D02*
X353200D01*
X358200Y138500D02*
X353200D01*
X358200Y133500D02*
X353200D01*
X358200Y128500D02*
X353200D01*
X358200Y123500D02*
X353200D01*
X358200Y118500D02*
X353200D01*
X358200Y113500D02*
X353200D01*
X336800D02*
X331800D01*
X336800Y118500D02*
X331800D01*
X336800Y123500D02*
X331800D01*
X336800Y128500D02*
X331800D01*
X336800Y133500D02*
X331800D01*
X336800Y138500D02*
X331800D01*
X336800Y143500D02*
X331800D01*
X336800Y148500D02*
X331800D01*
X175000Y167000D02*
Y162000D01*
X180000Y167000D02*
Y162000D01*
X185000Y167000D02*
Y162000D01*
X190000Y167000D02*
Y162000D01*
X195000Y167000D02*
Y162000D01*
X200000Y167000D02*
Y162000D01*
X205000Y167000D02*
Y162000D01*
X210000Y167000D02*
Y162000D01*
X215000Y167000D02*
Y162000D01*
Y128000D02*
Y123000D01*
X210000Y128000D02*
Y123000D01*
X205000Y128000D02*
Y123000D01*
X200000Y128000D02*
Y123000D01*
X195000Y128000D02*
Y123000D01*
X190000Y128000D02*
Y123000D01*
X185000Y128000D02*
Y123000D01*
X180000Y128000D02*
Y123000D01*
X175000Y128000D02*
Y123000D01*
X248500Y183050D02*
Y187550D01*
X243500Y183050D02*
Y187550D01*
X238500Y183050D02*
Y187550D01*
X233500Y183050D02*
Y187550D01*
Y204450D02*
Y208950D01*
X238500Y204450D02*
Y208950D01*
X243500Y204450D02*
Y208950D01*
X248500Y204450D02*
Y208950D01*
G54D47*
X220250Y177000D02*
X224750D01*
X220250Y190000D02*
X224750D01*
X285250Y193500D02*
X280750D01*
X285250Y180500D02*
X280750D01*
G54D48*
X318484Y147264D02*
X316516D01*
X318484Y167736D02*
X316516D01*
X352736Y205984D02*
Y204016D01*
X332264Y205984D02*
Y204016D01*
X299016Y190236D02*
X300984D01*
X299016Y169764D02*
X300984D01*
X283484Y147264D02*
X281516D01*
X283484Y167736D02*
X281516D01*
X265764Y205016D02*
Y206984D01*
X286236Y205016D02*
Y206984D01*
G54D49*
X227500Y129000D03*
Y162000D03*
X0Y0D02*
M02*
