*
*
G04 PADS Layout (Build Number 2007.42.1) generated Gerber (RS-274-X) file*
G04 PC Version=2.1*
*
%IN "IRMRAK_final_nullvia.pc"*%
*
%MOIN*%
*
%FSLAX35Y35*%
*
*
*
*
G04 PC Standard Apertures*
*
*
G04 Thermal Relief Aperture macro.*
%AMTER*
1,1,$1,0,0*
1,0,$1-$2,0,0*
21,0,$3,$4,0,0,45*
21,0,$3,$4,0,0,135*
%
*
*
G04 Annular Aperture macro.*
%AMANN*
1,1,$1,0,0*
1,0,$2,0,0*
%
*
*
G04 Odd Aperture macro.*
%AMODD*
1,1,$1,0,0*
1,0,$1-0.005,0,0*
%
*
*
G04 PC Custom Aperture Macros*
*
*
*
*
*
*
G04 PC Aperture Table*
*
%ADD010R,0.039X0.039*%
%ADD012R,0.07X0.07*%
%ADD013C,0.23622*%
%ADD014C,0.05*%
%ADD020C,0.012*%
%ADD023C,0.007*%
%ADD025C,0.01*%
%ADD031C,0.07*%
%ADD032R,0.08X0.08*%
%ADD040R,0.06X0.06*%
%ADD043R,0.055X0.055*%
%ADD047C,0.025*%
%ADD048R,0.075X0.075*%
%ADD050C,0.035*%
%ADD055C,0.024*%
%ADD066R,0.09X0.09*%
%ADD067R,0.025X0.025*%
%ADD068R,0.07874X0.07874*%
*
*
*
*
G04 PC Copper Outlines (0)*
G04 Layer Name IRMRAK_final_nullvia.pc - dark (0)*
%LPD*%
*
*
G04 PC Area=ANP000004*
G75*
G36*
G01*
X638267Y269695D02*
X638121Y270048D01*
X637767Y270195D01*
X549367D01*
X549014Y270048D01*
X548867Y269695D01*
Y249395D01*
X549014Y249041D01*
X549367Y248895D01*
X637767D01*
X638121Y249041D01*
X638267Y249395D01*
Y269695D01*
G37*
G74*
*
*
G04 PC Copper Outlines (1)*
G04 Layer Name IRMRAK_final_nullvia.pc - dark (1)*
%LPD*%
*
*
G04 PC Area=ANP000007*
G75*
G36*
G01*
X821767Y269695D02*
X821621Y270048D01*
X821267Y270195D01*
X793267D01*
X792914Y270048D01*
X792767Y269695D01*
Y237395D01*
X792914Y237041D01*
X793267Y236895D01*
X821267D01*
X821621Y237041D01*
X821767Y237395D01*
Y269695D01*
G37*
G74*
*
*
G04 PC Copper Outlines (2)*
G04 Layer Name IRMRAK_final_nullvia.pc - dark (2)*
%LPD*%
*
*
G04 PC Area=ANP000010*
G75*
G36*
G01*
X733767Y211395D02*
X733621Y211748D01*
X733267Y211895D01*
X718267D01*
X717914Y211748D01*
X717767Y211395D01*
Y191395D01*
X717914Y191041D01*
X718267Y190895D01*
X733267D01*
X733621Y191041D01*
X733767Y191395D01*
Y211395D01*
G37*
G74*
*
*
G04 PC Copper Outlines (3)*
G04 Layer Name IRMRAK_final_nullvia.pc - dark (3)*
%LPD*%
*
*
G04 PC Area=ANP000013*
G75*
G36*
G01*
X769767Y199003D02*
X769652Y199322D01*
X769272Y199780D01*
X768867Y200900D01*
Y211395D01*
X768721Y211748D01*
X768367Y211895D01*
X755267D01*
X754914Y211748D01*
X754767Y211395D01*
Y191395D01*
X754914Y191041D01*
X755267Y190895D01*
X767637D01*
X767990Y191041D01*
X769621Y192672D01*
X769767Y193025D01*
Y199003D01*
G37*
G74*
*
*
G04 PC Copper Outlines (4)*
G04 Layer Name IRMRAK_final_nullvia.pc - dark (4)*
%LPD*%
*
*
G04 PC Area=ANP000000*
G75*
G36*
G01*
X761767Y269695D02*
X761621Y270048D01*
X761267Y270195D01*
X736267D01*
X735914Y270048D01*
X735767Y269695D01*
Y247809D01*
X735914Y247455D01*
X746328Y237041D01*
X746681Y236895D01*
X761267D01*
X761621Y237041D01*
X761767Y237395D01*
Y269695D01*
G37*
G74*
*
*
G04 PC Copper Outlines (5)*
G04 Layer Name IRMRAK_final_nullvia.pc - dark (5)*
%LPD*%
*
*
G04 PC Area=ANP000030*
G75*
G36*
G01*
X805867Y233695D02*
X805721Y234048D01*
X805367Y234195D01*
X792230D01*
X791238Y234606D01*
X790478Y235365D01*
X790067Y236358D01*
Y269695D01*
X789921Y270048D01*
X789567Y270195D01*
X764967D01*
X764614Y270048D01*
X764467Y269695D01*
Y236358D01*
X764056Y235365D01*
X763297Y234606D01*
X762304Y234195D01*
X745937D01*
X744945Y234606D01*
X733858Y245693D01*
X733641Y245937D01*
X733380Y246111D01*
X733066Y246095D01*
X732267Y245945D01*
X721830D01*
X721021Y246280D01*
X720402Y246898D01*
X720067Y247707D01*
Y249301D01*
X719921Y249655D01*
X713449Y256127D01*
X713095Y256273D01*
X705656D01*
X704848Y256608D01*
X704229Y257227D01*
X703894Y258036D01*
Y259545D01*
X703748Y259898D01*
X703394Y260045D01*
X698073D01*
X697335Y260318D01*
X697036Y260574D01*
X696710Y260695D01*
X696356D01*
X696086Y260616D01*
X695902Y260404D01*
X695655Y259867D01*
X694834Y259020D01*
X693777Y258494D01*
X692606Y258348D01*
X691453Y258601D01*
X690450Y259222D01*
X689710Y260141D01*
X689317Y261255D01*
Y266932D01*
X689706Y268042D01*
X690441Y268959D01*
X690939Y269271D01*
X691112Y269452D01*
X691174Y269695D01*
X691028Y270048D01*
X690674Y270195D01*
X641467D01*
X641114Y270048D01*
X640967Y269695D01*
Y248358D01*
X640556Y247365D01*
X639797Y246606D01*
X638804Y246195D01*
X582267D01*
Y228582D01*
X582602Y229391D01*
X583221Y230010D01*
X584030Y230345D01*
X590067D01*
X590271Y230335D01*
X590654Y230464D01*
X590817Y230833D01*
Y231582D01*
X591152Y232391D01*
X591771Y233010D01*
X592580Y233345D01*
X600880D01*
X601568Y233111D01*
X602145Y232669D01*
X602347Y232367D01*
X602762Y232145D01*
X605337D01*
X606119Y231835D01*
X606425Y231547D01*
X606767Y231411D01*
X607110Y231547D01*
X607416Y231835D01*
X608197Y232145D01*
X612517D01*
X613497Y231915D01*
X613800Y231869D01*
X614073Y232009D01*
X614680Y232615D01*
X615455Y233063D01*
X616320Y233295D01*
X630515D01*
X631380Y233063D01*
X632155Y232615D01*
X636988Y227782D01*
X637436Y227007D01*
X637667Y226142D01*
Y225021D01*
X637717Y224395D01*
Y218738D01*
X637235Y217517D01*
X636338Y216559D01*
X635152Y215996D01*
X633842Y215909D01*
X632592Y216308D01*
X632084Y216724D01*
X631767Y216836D01*
X631451Y216724D01*
X630989Y216346D01*
X629864Y215945D01*
X628670D01*
X627546Y216346D01*
X627084Y216724D01*
X626767Y216836D01*
X626451Y216724D01*
X625989Y216346D01*
X624864Y215945D01*
X623670D01*
X622546Y216346D01*
X622084Y216724D01*
X621767Y216836D01*
X621451Y216724D01*
X620984Y216342D01*
X619847Y215941D01*
X618640Y215949D01*
X617509Y216366D01*
X616585Y217142D01*
X616283Y217664D01*
X616100Y217846D01*
X615850Y217913D01*
X609493D01*
X608704Y218368D01*
X608248Y219157D01*
Y221745D01*
X608312Y222268D01*
X608214Y222564D01*
X607961Y222745D01*
X607110Y223242D01*
X606767Y223378D01*
X606425Y223242D01*
X606119Y222954D01*
X605337Y222645D01*
X602762D01*
X602347Y222422D01*
X602145Y222120D01*
X601568Y221678D01*
X600880Y221445D01*
X592576D01*
X591761Y221785D01*
X591451Y222099D01*
X591195Y222238D01*
X590905Y222210D01*
X590067Y222045D01*
X584030D01*
X583221Y222380D01*
X582602Y222998D01*
X582267Y223807D01*
Y246195D01*
X574467D01*
X574114Y246048D01*
X573967Y245695D01*
Y234252D01*
X573512Y233463D01*
X572723Y233007D01*
X551266D01*
X550477Y233463D01*
X550022Y234252D01*
Y245695D01*
X549875Y246048D01*
X549522Y246195D01*
X549367D01*
X549014Y246048D01*
X548867Y245695D01*
Y230050D01*
X548983Y229730D01*
X549276Y229558D01*
X549612Y229614D01*
X550675Y230210D01*
X552974Y231018D01*
X555378Y231416D01*
X557815Y231394D01*
X560212Y230951D01*
X562496Y230101D01*
X564599Y228869D01*
X566458Y227293D01*
X568017Y225420D01*
X569229Y223306D01*
X570058Y221014D01*
X570478Y218613D01*
Y216176D01*
X570058Y213776D01*
X569229Y211484D01*
X568017Y209369D01*
X566458Y207496D01*
X564599Y205920D01*
X562496Y204688D01*
X560212Y203838D01*
X557815Y203396D01*
X555378Y203373D01*
X552974Y203771D01*
X550675Y204579D01*
X549612Y205175D01*
X549276Y205231D01*
X548983Y205059D01*
X548867Y204739D01*
Y190891D01*
X549040Y190513D01*
X549439Y190396D01*
X549789Y190622D01*
X550023Y190989D01*
X550786Y191407D01*
X577223D01*
X578012Y190952D01*
X578467Y190163D01*
Y178252D01*
X578012Y177463D01*
X577223Y177007D01*
X550786D01*
X550023Y177426D01*
X549789Y177793D01*
X549439Y178018D01*
X549040Y177902D01*
X548867Y177524D01*
Y165095D01*
X549014Y164741D01*
X549367Y164595D01*
X588274D01*
X588628Y164741D01*
X588774Y165095D01*
X588628Y165448D01*
X583106Y170969D01*
X582586Y171870D01*
X582317Y172875D01*
Y192915D01*
X582586Y193919D01*
X583106Y194820D01*
X588887Y200600D01*
X589915Y201151D01*
X590486Y201267D01*
X590736Y201398D01*
X590875Y201644D01*
X590988Y202131D01*
X591614Y202912D01*
X592517Y203345D01*
X601005D01*
X601889Y202933D01*
X602516Y202186D01*
X602642Y201715D01*
X602821Y201448D01*
X603125Y201345D01*
X604053D01*
X604315Y201419D01*
X604575Y201579D01*
X605162Y201745D01*
X611372D01*
X611960Y201579D01*
X612220Y201419D01*
X612481Y201345D01*
X616787D01*
X617792Y201076D01*
X618693Y200556D01*
X620757Y198491D01*
X621111Y198345D01*
X650302D01*
X650655Y198491D01*
X650802Y198845D01*
X650655Y199198D01*
X641547Y208307D01*
X641099Y209082D01*
X640867Y209947D01*
Y218768D01*
X640817Y219395D01*
Y225051D01*
X641299Y226272D01*
X642196Y227231D01*
X643382Y227793D01*
X644692Y227881D01*
X645943Y227481D01*
X646451Y227066D01*
X646767Y226953D01*
X647084Y227066D01*
X647546Y227444D01*
X648670Y227845D01*
X649864D01*
X650989Y227444D01*
X651451Y227066D01*
X651767Y226953D01*
X652084Y227066D01*
X653167Y227665D01*
X653414Y227847D01*
X653508Y228139D01*
X653362Y228492D01*
X653046Y228808D01*
X652599Y229583D01*
X652367Y230447D01*
Y246012D01*
X652258Y246324D01*
X651978Y246500D01*
X651489Y246611D01*
X650703Y247237D01*
X650267Y248142D01*
Y251582D01*
X650602Y252391D01*
X651221Y253010D01*
X652030Y253345D01*
X659905D01*
X660713Y253010D01*
X661332Y252391D01*
X661667Y251582D01*
Y248228D01*
X661363Y247453D01*
X660796Y246843D01*
X660046Y246482D01*
X659630Y246451D01*
X659301Y246292D01*
X659167Y245952D01*
Y238842D01*
X659326Y238476D01*
X659702Y238343D01*
X660056Y238528D01*
X660369Y238915D01*
X661269Y239345D01*
X672265D01*
X673163Y238916D01*
X673476Y238530D01*
X673865Y238345D01*
X674156D01*
X674575Y238572D01*
X674613Y239047D01*
X674467Y239377D01*
X674317Y240084D01*
Y245553D01*
X674733Y246696D01*
X675515Y247628D01*
X676569Y248237D01*
X677767Y248448D01*
X678965Y248237D01*
X680019Y247628D01*
X680801Y246696D01*
X681217Y245553D01*
Y240084D01*
X681068Y239377D01*
X680922Y239047D01*
X680960Y238572D01*
X681379Y238345D01*
X688867D01*
X689221Y238491D01*
X689367Y238845D01*
Y239818D01*
X689317Y240445D01*
Y245553D01*
X689733Y246696D01*
X690515Y247628D01*
X691569Y248237D01*
X692767Y248448D01*
X693965Y248237D01*
X695019Y247628D01*
X695801Y246696D01*
X696217Y245553D01*
Y240445D01*
X696167Y239818D01*
Y237687D01*
X696251Y237411D01*
X696430Y237140D01*
X696617Y236519D01*
Y230157D01*
X696282Y229348D01*
X695663Y228730D01*
X694855Y228395D01*
X693646D01*
X693293Y228248D01*
X693146Y227895D01*
Y223531D01*
X693293Y223178D01*
X695529Y220941D01*
X695883Y220795D01*
X710124D01*
X710365Y220857D01*
X710969Y221188D01*
X712331Y221404D01*
X713685Y221145D01*
X714872Y220443D01*
X715750Y219381D01*
X716217Y218084D01*
Y214918D01*
X716427Y214510D01*
X716881Y214445D01*
X717767Y214595D01*
X734304D01*
X735297Y214184D01*
X736056Y213424D01*
X736467Y212432D01*
Y191295D01*
X736614Y190941D01*
X736967Y190795D01*
X751567D01*
X751921Y190941D01*
X752067Y191295D01*
Y212432D01*
X752478Y213424D01*
X753238Y214184D01*
X754230Y214595D01*
X770322D01*
X771341Y214158D01*
X772106Y213354D01*
X772299Y212834D01*
X772626Y212529D01*
X773067Y212608D01*
X773267Y213008D01*
Y217602D01*
X773414Y217955D01*
X775707Y220248D01*
X776060Y220395D01*
X805367D01*
X805721Y220541D01*
X805867Y220895D01*
Y233695D01*
G37*
G74*
*
*
G04 PC Copper Outlines (6)*
G04 Layer Name IRMRAK_final_nullvia.pc - dark (6)*
%LPD*%
*
*
G04 PC Area=Custom_Thermal*
*
G04 PC Custom Flashes*
G04 Layer Name IRMRAK_final_nullvia.pc - flashes*
%LPD*%
*
*
G04 PC Circuitry*
G04 Layer Name IRMRAK_final_nullvia.pc - circuitry*
%LPD*%
*
G54D10*
G01X586417Y218595D02*
X588117D01*
X586417Y226195D02*
X588117D01*
X700067Y232545D02*
Y234245D01*
X692467Y232545D02*
Y234245D01*
X808417Y198595D02*
X810117D01*
X808417Y206195D02*
X810117D01*
X793067Y213545D02*
Y215245D01*
X785467Y213545D02*
Y215245D01*
X808417Y184595D02*
X810117D01*
X808417Y192195D02*
X810117D01*
X808417Y170595D02*
X810117D01*
X808417Y178195D02*
X810117D01*
X609117Y205195D02*
X607417D01*
X609117Y197595D02*
X607417D01*
X602967Y177995D02*
Y176795D01*
X610567Y177995D02*
Y176795D01*
X602967Y187995D02*
Y186795D01*
X610567Y187995D02*
Y186795D01*
Y226795D02*
Y227995D01*
X602967Y226795D02*
Y227995D01*
X669867Y205195D02*
X668667D01*
X669867Y197595D02*
X668667D01*
X702367Y201695D02*
X701167D01*
X702367Y194095D02*
X701167D01*
X702117Y264195D02*
X700417D01*
X702117Y256595D02*
X700417D01*
X779117Y219195D02*
X777417D01*
X779117Y211595D02*
X777417D01*
G54D12*
X655967Y257045D02*
Y262745D01*
X634567Y252095D02*
Y262695D01*
G54D13*
X556467Y217395D03*
X832067D03*
G54D14*
X831267Y197395D03*
G54D20*
X675267Y201395D02*
X662267D01*
G54D23*
X612049Y221395D02*
X611830Y221077D01*
X611174Y220599*
X615767*
G54D25*
X576267Y185770D02*
Y181395D01*
Y184520D02*
X575585Y185457D01*
X575131Y185770*
X574449*
X573995Y185457*
X573767Y184520*
Y181395*
Y184520D02*
X573085Y185457D01*
X572631Y185770*
X571949*
X571495Y185457*
X571267Y184520*
Y181395*
X569222Y185770D02*
Y181395D01*
Y183895D02*
X568995Y184832D01*
X568540Y185457*
X568085Y185770*
X567404*
X562631D02*
Y181395D01*
Y184832D02*
X563085Y185457D01*
X563540Y185770*
X564222*
X564676Y185457*
X565131Y184832*
X565358Y183895*
Y183270*
X565131Y182332*
X564676Y181707*
X564222Y181395*
X563540*
X563085Y181707*
X562631Y182332*
X560585Y187957D02*
Y181395D01*
X558313Y185770D02*
X560585Y182645D01*
X559676Y183895D02*
X558085Y181395D01*
X553767Y187957D02*
X556040Y183582D01*
X552631*
X553767Y187957D02*
Y181395D01*
X571540Y242395D02*
Y242707D01*
X571313Y243332*
X571085Y243645*
X570631Y243957*
X569722*
X569267Y243645*
X569040Y243332*
X568813Y242707*
Y242082*
X569040Y241457*
X569495Y240520*
X571767Y237395*
X568585*
X565176Y243957D02*
X565858Y243645D01*
X566313Y242707*
X566540Y241145*
Y240207*
X566313Y238645*
X565858Y237707*
X565176Y237395*
X564722*
X564040Y237707*
X563585Y238645*
X563358Y240207*
Y241145*
X563585Y242707*
X564040Y243645*
X564722Y243957*
X565176*
X559949D02*
X560631Y243645D01*
X561085Y242707*
X561313Y241145*
Y240207*
X561085Y238645*
X560631Y237707*
X559949Y237395*
X559495*
X558813Y237707*
X558358Y238645*
X558131Y240207*
Y241145*
X558358Y242707*
X558813Y243645*
X559495Y243957*
X559949*
X553131Y241770D02*
X553358Y240832D01*
X553813Y240207*
X554495Y239895*
X554722*
X555404Y240207*
X555858Y240832*
X556085Y241770*
Y242082*
X555858Y243020*
X555404Y243645*
X554722Y243957*
X554495*
X553813Y243645*
X553358Y243020*
X553131Y241770*
Y240207*
X553358Y238645*
X553813Y237707*
X554495Y237395*
X554949*
X555631Y237707*
X555858Y238332*
X638267Y249395D02*
Y269695D01*
G75*
G03X637767Y270195I-500J-0D01*
G01X549367*
G03X548867Y269695I0J-500*
G01Y249395*
G03X549367Y248895I500J-0*
G01X637767*
G03X638267Y249395I0J500*
G01X821767Y237395D02*
Y269695D01*
G03X821267Y270195I-500J-0*
G01X793267*
G03X792767Y269695I0J-500*
G01Y237395*
G03X793267Y236895I500J-0*
G01X821267*
G03X821767Y237395I0J500*
G01X733767Y191395D02*
Y211395D01*
G03X733267Y211895I-500J-0*
G01X718267*
G03X717767Y211395I0J-500*
G01Y191395*
G03X718267Y190895I500J-0*
G01X733267*
G03X733767Y191395I0J500*
G01X769767Y193025D02*
Y199003D01*
G03X769652Y199322I-500J-0*
G01X768867Y201495D02*
G03X769652Y199322I3400J-0D01*
G01X768867Y201495D02*
Y211395D01*
G03X768367Y211895I-500J-0*
G01X755267*
G03X754767Y211395I0J-500*
G01Y191395*
G03X755267Y190895I500J-0*
G01X767637*
G03X767990Y191041I-0J500*
G01X769621Y192672*
G03X769767Y193025I-354J353*
G01X761767Y237395D02*
Y269695D01*
G03X761267Y270195I-500J-0*
G01X736267*
G03X735767Y269695I0J-500*
G01Y247809*
G03X735914Y247455I500J-0*
G01X746328Y237041*
G03X746681Y236895I353J354*
G01X761267*
G03X761767Y237395I0J500*
G01X805867Y220895D02*
Y233695D01*
G03X805367Y234195I-500J-0*
G01X792767*
X790067Y236895D02*
G03X792767Y234195I2700J-0D01*
G01X790067Y236895D02*
Y269695D01*
G03X789567Y270195I-500J-0*
G01X764967*
G03X764467Y269695I0J-500*
G01Y236895*
X761767Y234195D02*
G03X764467Y236895I0J2700D01*
G01X761767Y234195D02*
X746474D01*
X744565Y234985D02*
G03X746474Y234195I1909J1910D01*
G01X744565Y234985D02*
X733858Y245693D01*
X733641Y245937D02*
G03X733858Y245693I2126J1665D01*
G01X733641Y245937D02*
G03X733066Y246095I-393J-308D01*
G01X732267Y245945D02*
G03X733066Y246095I0J2200D01*
G01X732267Y245945D02*
X722267D01*
X720067Y248145D02*
G03X722267Y245945I2200J-0D01*
G01X720067Y248145D02*
Y249301D01*
G03X719921Y249655I-500J0*
G01X713449Y256127*
G03X713095Y256273I-354J-354*
G01X706094*
X703894Y258473D02*
G03X706094Y256273I2200J0D01*
G01X703894Y258473D02*
Y259545D01*
G03X703394Y260045I-500J-0*
G01X698467*
X697036Y260574D02*
G03X698467Y260045I1431J1671D01*
G01X697036Y260574D02*
G03X696710Y260695I-326J-379D01*
G01X696356*
G03X695902Y260404I0J-500*
G01X689317Y261845D02*
G03X695902Y260404I3450J-0D01*
G01X689317Y261845D02*
Y266345D01*
X690939Y269271D02*
G03X689317Y266345I1828J-2926D01*
G01X690939Y269271D02*
G03X690674Y270195I-265J424D01*
G01X641467*
G03X640967Y269695I0J-500*
G01Y248895*
X638267Y246195D02*
G03X640967Y248895I0J2700D01*
G01X638267Y246195D02*
X574467D01*
G03X573967Y245695I0J-500*
G01Y234707*
X572267Y233007D02*
G03X573967Y234707I0J1700D01*
G01X572267Y233007D02*
X551722D01*
X550022Y234707D02*
G03X551722Y233007I1700J0D01*
G01X550022Y234707D02*
Y245695D01*
G03X549522Y246195I-500J-0*
G01X549367*
G03X548867Y245695I0J-500*
G01Y230050*
G03X549612Y229614I500J0*
G01Y205175D02*
G03Y229614I6855J12220D01*
G01Y205175D02*
G03X548867Y204739I-245J-436D01*
G01Y190891*
G03X549789Y190622I500J-0*
G01X551222Y191407D02*
G03X549789Y190622I-0J-1700D01*
G01X551222Y191407D02*
X576767D01*
X578467Y189707D02*
G03X576767Y191407I-1700J0D01*
G01X578467Y189707D02*
Y178707D01*
X576767Y177007D02*
G03X578467Y178707I0J1700D01*
G01X576767Y177007D02*
X551222D01*
X549789Y177793D02*
G03X551222Y177007I1433J914D01*
G01X549789Y177793D02*
G03X548867Y177524I-422J-269D01*
G01Y165095*
G03X549367Y164595I500J-0*
G01X588274*
G03X588628Y165448I-0J500*
G01X583474Y170602*
X582317Y173395D02*
G03X583474Y170602I3950J-0D01*
G01X582317Y173395D02*
Y192395D01*
X583474Y195188D02*
G03X582317Y192395I2793J-2793D01*
G01X583474Y195188D02*
X588474Y200188D01*
X590486Y201267D02*
G03X588474Y200188I781J-3872D01*
G01X590486Y201267D02*
G03X590875Y201644I-98J490D01*
G01X593017Y203345D02*
G03X590875Y201644I0J-2200D01*
G01X593017Y203345D02*
X600517D01*
X602642Y201715D02*
G03X600517Y203345I-2125J-570D01*
G01X602642Y201715D02*
G03X603125Y201345I483J130D01*
G01X604053*
G03X604315Y201419I0J500*
G01X605467Y201745D02*
G03X604315Y201419I0J-2200D01*
G01X605467Y201745D02*
X611067D01*
X612220Y201419D02*
G03X611067Y201745I-1153J-1874D01*
G01X612220Y201419D02*
G03X612481Y201345I261J426D01*
G01X616267*
X619060Y200188D02*
G03X616267Y201345I-2793J-2793D01*
G01X619060Y200188D02*
X620757Y198491D01*
G03X621111Y198345I354J354*
G01X639267*
X650302*
G03X650655Y199198I-0J500*
G01X641863Y207991*
X640867Y210395D02*
G03X641863Y207991I3400J-0D01*
G01X640867Y210395D02*
Y218768D01*
G03X640861Y218848I-500J0*
G01X640817Y219395D02*
G03X640861Y218848I3450J-0D01*
G01X640817Y219395D02*
Y224395D01*
X646451Y227066D02*
G03X640817Y224395I-2184J-2671D01*
G01X646451Y227066D02*
G03X647084I316J387D01*
G01X651451D02*
G03X647084I-2184J-2671D01*
G01X651451D02*
G03X652084I316J387D01*
G01X653167Y227665D02*
G03X652084Y227066I1100J-3270D01*
G01X653167Y227665D02*
G03X653362Y228492I-159J474D01*
G01X652367Y230895D02*
G03X653362Y228492I3400J-0D01*
G01X652367Y230895D02*
Y246012D01*
G03X651978Y246500I-500J0*
G01X650267Y248645D02*
G03X651978Y246500I2200J-0D01*
G01X650267Y248645D02*
Y251145D01*
X652467Y253345D02*
G03X650267Y251145I0J-2200D01*
G01X652467Y253345D02*
X659467D01*
X661667Y251145D02*
G03X659467Y253345I-2200J-0D01*
G01X661667Y251145D02*
Y248645D01*
X659630Y246451D02*
G03X661667Y248645I-163J2194D01*
G01X659630Y246451D02*
G03X659167Y245952I37J-499D01*
G01Y238842*
G03X660056Y238528I500J-0*
G01X661767Y239345D02*
G03X660056Y238528I0J-2200D01*
G01X661767Y239345D02*
X671767D01*
X673476Y238530D02*
G03X671767Y239345I-1709J-1385D01*
G01X673476Y238530D02*
G03X673865Y238345I389J315D01*
G01X674156*
G03X674613Y239047I-0J500*
G01X674317Y240445D02*
G03X674613Y239047I3450J-0D01*
G01X674317Y240445D02*
Y244945D01*
X681217D02*
G03X674317I-3450J-0D01*
G01X681217D02*
Y240445D01*
X680922Y239047D02*
G03X681217Y240445I-3155J1398D01*
G01X680922Y239047D02*
G03X681379Y238345I457J-202D01*
G01X687196*
X688867*
G03X689367Y238845I0J500*
G01Y239818*
G03X689361Y239898I-500J0*
G01X689317Y240445D02*
G03X689361Y239898I3450J-0D01*
G01X689317Y240445D02*
Y244945D01*
X696217D02*
G03X689317I-3450J-0D01*
G01X696217D02*
Y240445D01*
X696174Y239898D02*
G03X696217Y240445I-3407J547D01*
G01X696174Y239898D02*
G03X696167Y239818I493J-80D01*
G01Y237687*
G03X696251Y237411I500J0*
G01X696617Y236195D02*
G03X696251Y237411I-2200J-0D01*
G01X696617Y236195D02*
Y230595D01*
X694417Y228395D02*
G03X696617Y230595I0J2200D01*
G01X694417Y228395D02*
X693646D01*
G03X693146Y227895I0J-500*
G01Y223531*
G03X693293Y223178I500J0*
G01X695529Y220941*
G03X695883Y220795I354J354*
G01X710124*
G03X710365Y220857I0J500*
G01X716217Y217395D02*
G03X710365Y220857I-3950J-0D01*
G01X716217Y217395D02*
Y214918D01*
G03X716881Y214445I500J-0*
G01X717767Y214595D02*
G03X716881Y214445I0J-2700D01*
G01X717767Y214595D02*
X733767D01*
X736467Y211895D02*
G03X733767Y214595I-2700J-0D01*
G01X736467Y211895D02*
Y191295D01*
G03X736967Y190795I500J-0*
G01X751567*
G03X752067Y191295I0J500*
G01Y211895*
X754767Y214595D02*
G03X752067Y211895I0J-2700D01*
G01X754767Y214595D02*
X769767D01*
X772299Y212834D02*
G03X769767Y214595I-2532J-939D01*
G01X772299Y212834D02*
G03X773267Y213008I468J174D01*
G01Y213545*
Y217602*
X773414Y217955D02*
G03X773267Y217602I353J-353D01*
G01X773414Y217955D02*
X775707Y220248D01*
X776060Y220395D02*
G03X775707Y220248I0J-500D01*
G01X776060Y220395D02*
X805367D01*
G03X805867Y220895I0J500*
G01X637717Y224395D02*
Y219395D01*
X632084Y216724D02*
G03X637717Y219395I2183J2671D01*
G01X632084Y216724D02*
G03X631451I-317J-388D01*
G01X627084D02*
G03X631451I2183J2671D01*
G01X627084D02*
G03X626451I-317J-388D01*
G01X622084D02*
G03X626451I2183J2671D01*
G01X622084D02*
G03X621451I-317J-388D01*
G01X616283Y217664D02*
G03X621451Y216724I2984J1731D01*
G01X616283Y217664D02*
G03X615850Y217913I-433J-251D01*
G01X609949*
X608248Y219613D02*
G03X609949Y217913I1701J-0D01*
G01X608248Y219613D02*
Y221745D01*
X608297Y222149D02*
G03X608248Y221745I1652J-404D01*
G01X608297Y222149D02*
G03X607961Y222745I-485J119D01*
G01X607110Y223242D02*
G03X607961Y222745I1507J1603D01*
G01X607110Y223242D02*
G03X606425I-343J-364D01*
G01X604917Y222645D02*
G03X606425Y223242I0J2200D01*
G01X604917Y222645D02*
X602762D01*
G03X602347Y222422I0J-500*
G01X600517Y221445D02*
G03X602347Y222422I0J2200D01*
G01X600517Y221445D02*
X593017D01*
X591451Y222099D02*
G03X593017Y221445I1566J1546D01*
G01X591451Y222099D02*
G03X590905Y222210I-355J-351D01*
G01X590067Y222045D02*
G03X590905Y222210I0J2200D01*
G01X590067Y222045D02*
X584467D01*
X582267Y224245D02*
G03X584467Y222045I2200J-0D01*
G01X582267Y224245D02*
Y228145D01*
X584467Y230345D02*
G03X582267Y228145I0J-2200D01*
G01X584467Y230345D02*
X590067D01*
X590271Y230335D02*
G03X590067Y230345I-204J-2190D01*
G01X590271Y230335D02*
G03X590817Y230833I46J498D01*
G01Y231145*
X593017Y233345D02*
G03X590817Y231145I0J-2200D01*
G01X593017Y233345D02*
X600517D01*
X602347Y232367D02*
G03X600517Y233345I-1830J-1222D01*
G01X602347Y232367D02*
G03X602762Y232145I415J278D01*
G01X604917*
X606425Y231547D02*
G03X604917Y232145I-1508J-1602D01*
G01X606425Y231547D02*
G03X607110I342J364D01*
G01X608617Y232145D02*
G03X607110Y231547I0J-2200D01*
G01X608617Y232145D02*
X612517D01*
X613497Y231915D02*
G03X612517Y232145I-980J-1970D01*
G01X613497Y231915D02*
G03X614073Y232009I222J447D01*
G01X614363Y232299*
X616767Y233295D02*
G03X614363Y232299I0J-3400D01*
G01X616767Y233295D02*
X630067D01*
X632471Y232299D02*
G03X630067Y233295I-2404J-2404D01*
G01X632471Y232299D02*
X636671Y228099D01*
X637667Y225695D02*
G03X636671Y228099I-3400J-0D01*
G01X637667Y225695D02*
Y225021D01*
G03X637674Y224942I500J0*
G01X637717Y224395D02*
G03X637674Y224942I-3450J-0D01*
G54D31*
G01X671767Y186395D03*
Y219395D03*
G54D32*
X623267Y264395D03*
X743267D03*
G54D40*
X831267Y175895D03*
G54D43*
X664517Y234395D02*
X669017D01*
X664517Y247395D02*
X669017D01*
X729517Y250895D02*
X725017D01*
X729517Y237895D02*
X725017D01*
G54D47*
X802467Y205895D02*
X797467D01*
X802467Y200895D02*
X797467D01*
X802467Y195895D02*
X797467D01*
X802467Y190895D02*
X797467D01*
X802467Y185895D02*
X797467D01*
X802467Y180895D02*
X797467D01*
X802467Y175895D02*
X797467D01*
X802467Y170895D02*
X797467D01*
X781067D02*
X776067D01*
X781067Y175895D02*
X776067D01*
X781067Y180895D02*
X776067D01*
X781067Y185895D02*
X776067D01*
X781067Y190895D02*
X776067D01*
X781067Y195895D02*
X776067D01*
X781067Y200895D02*
X776067D01*
X781067Y205895D02*
X776067D01*
X619267Y224395D02*
Y219395D01*
X624267Y224395D02*
Y219395D01*
X629267Y224395D02*
Y219395D01*
X634267Y224395D02*
Y219395D01*
X639267Y224395D02*
Y219395D01*
X644267Y224395D02*
Y219395D01*
X649267Y224395D02*
Y219395D01*
X654267Y224395D02*
Y219395D01*
X659267Y224395D02*
Y219395D01*
Y185395D02*
Y180395D01*
X654267Y185395D02*
Y180395D01*
X649267Y185395D02*
Y180395D01*
X644267Y185395D02*
Y180395D01*
X639267Y185395D02*
Y180395D01*
X634267Y185395D02*
Y180395D01*
X629267Y185395D02*
Y180395D01*
X624267Y185395D02*
Y180395D01*
X619267Y185395D02*
Y180395D01*
X692767Y240445D02*
Y244945D01*
X687767Y240445D02*
Y244945D01*
X682767Y240445D02*
Y244945D01*
X677767Y240445D02*
Y244945D01*
Y261845D02*
Y266345D01*
X682767Y261845D02*
Y266345D01*
X687767Y261845D02*
Y266345D01*
X692767Y261845D02*
Y266345D01*
X701338Y201395D02*
X675267D01*
G54D48*
X596767Y177395D03*
Y187395D03*
Y197395D03*
Y217395D03*
Y227395D03*
X701338Y210324D03*
X687196D03*
Y224466D03*
X701338D03*
G54D50*
X772267Y166395D02*
X593267D01*
X586267Y173395*
Y192395*
X591267Y197395*
X596267*
X669267Y194395D02*
X639267D01*
X619267*
X616267Y197395*
X596267*
X701767Y194095D02*
X701267Y194395D01*
X669267*
X701767Y194095D02*
Y194395D01*
X708267*
X712267Y198395*
Y217395*
X687196Y224466D02*
Y234395D01*
X666767*
X692467Y233395D02*
X691467Y234395D01*
X687196*
X727267Y250895D02*
X724267D01*
X711767Y263395*
X710031*
X709231Y264195*
X701267*
X730503Y263395D02*
X742267D01*
X743267Y264395*
G54D55*
X772267Y166395D02*
X784879D01*
X787267Y168783*
Y201695*
X783067Y205895*
X778567*
X812411Y165395D02*
X796255D01*
X792267Y169383*
Y172461*
X795701Y175895*
X799967*
X812411Y165395D02*
X818267Y171251D01*
Y211105*
X809267Y220105*
Y237195*
X805067Y241395*
X797267*
X596767Y177395D02*
X602967D01*
X614967Y172395D02*
X645267D01*
X649267Y176395*
Y182895*
X614967Y172395D02*
X610567Y176795D01*
Y177395*
X618105Y176395D02*
X643817D01*
X644267Y176845*
Y182895*
X618105Y176395D02*
X615267Y179233D01*
Y182095*
X610567Y186795*
Y187395*
X772267Y172895D02*
X663467D01*
X659267Y177095*
Y182895*
X772267Y172895D02*
X775267Y175895D01*
X778567*
X809267Y170595D02*
X810117D01*
X814467Y174945*
Y209139*
X803211Y220395*
X596767Y187395D02*
X602967D01*
X639267Y182895D02*
Y194395D01*
X654267Y182895D02*
Y187395D01*
X656267Y189395*
X668967Y178395D02*
X772163D01*
X774663Y180895*
X778567*
X668967Y178395D02*
X664767Y182595D01*
Y186395*
X661767Y189395*
X656267*
X687767Y183395D02*
X770517D01*
X773017Y185895*
X778567*
X687767Y183395D02*
X684767Y186395D01*
X671767*
X731267Y187395D02*
X769152D01*
X772652Y190895*
X778567*
X731267Y187395D02*
X724267Y194895D01*
X809267Y185845D02*
X799967D01*
Y185895*
Y180895D02*
X802467D01*
X809267Y178945D02*
X807667D01*
X802467Y180895*
X809267Y184595D02*
Y185845D01*
Y178195D02*
Y178945D01*
X596767Y197395D02*
X596290D01*
Y197872*
X596767Y197395D02*
X596967Y197595D01*
X608267*
X669267Y194395D02*
Y197595D01*
X724267Y194895D02*
X726767D01*
Y204658*
X764267D02*
Y194895D01*
Y195895*
X778567*
X799967Y190895D02*
Y190945D01*
X809267*
Y192195*
X799967Y195895D02*
X802467D01*
X807667Y197845*
X809267*
Y198595*
X662267Y201395D02*
X653267D01*
X644267Y210395*
Y221895*
X669267Y205195D02*
X668067Y206395D01*
X655267*
X649267Y212395*
Y221895*
X669267Y205195D02*
X674267Y210195D01*
Y210324*
X701338Y201395D02*
Y210324D01*
X761767Y204658D02*
X764267D01*
X778567Y205895D02*
Y211595D01*
X778267*
X778567Y200895D02*
X773017D01*
X772267Y201495*
Y216395*
X775067Y219195*
X778267*
X799967Y200895D02*
X794417D01*
X793067Y202245*
Y214395*
X799967Y205895D02*
Y205913D01*
X809267*
Y206195*
X671767Y219395D02*
X665767Y213395D01*
X658467*
X654267Y217595*
Y221895*
X687196Y210324D02*
X674267D01*
X712267Y217395D02*
X694267D01*
X687196Y224466*
X778267Y211595D02*
Y213395D01*
X785467*
Y214395*
X587267Y226195D02*
X596767D01*
Y227395*
X602967*
X610567D02*
X614267D01*
X616767Y229895*
X630067*
X634267Y221895D02*
Y225695D01*
X630067Y229895*
X659267Y221895D02*
Y227395D01*
X655767Y230895*
Y249695*
X655967Y249895*
X778267Y219195D02*
Y219945D01*
X782867*
X783317Y220395*
X803211*
X778267Y219195D02*
X772567Y224895D01*
X762003*
X761767Y225131*
X692467Y233395D02*
X692767Y233695D01*
Y242695*
X757267Y241395D02*
X751031Y247631D01*
X744267*
X797267Y241395D02*
Y251552D01*
X797003Y251816*
Y262395*
X692767Y264095D02*
X701267D01*
Y264195*
G54D66*
X764267Y194895D03*
X744267D03*
X724267D03*
X797267Y241395D03*
X777267D03*
X757267D03*
G54D67*
X658217Y249895D02*
X653717D01*
G54D68*
X762752Y204658D02*
X760783D01*
X762752Y225131D02*
X760783D01*
X797003Y263379D02*
Y261410D01*
X776531Y263379D02*
Y261410D01*
X743283Y247631D02*
X745252D01*
X743283Y227158D02*
X745252D01*
X727752Y204658D02*
X725783D01*
X727752Y225131D02*
X725783D01*
X710031Y262410D02*
Y264379D01*
X730503Y262410D02*
Y264379D01*
G74*
X0Y0D02*
M02*
